<svg width="1353" height="1351" viewBox="0 0 1353 1351" fill="none" xmlns="http://www.w3.org/2000/svg">
<path d="M557.5 1.5C492.7 86.7 357.167 103.167 305.5 101C250.7 227.8 149.833 283.833 103 293C113.8 415.8 39.5 506.833 1 537C52.2 647.4 22.3333 763.333 1 807.5C84.6 889.9 97.5 968.5 97.5 1057.5C232.5 1107 275 1207 285 1248C413 1248 506.167 1310.5 535 1344.5C640.2 1302.9 756.167 1329.83 801 1348.5C880.2 1274.9 999 1253.83 1048.5 1252.5C1075.7 1164.5 1187.17 1093.17 1239.5 1068.5C1234.7 964.5 1308.5 862.5 1346 824.5C1306 744.1 1333.33 612.333 1352 556.5C1276.4 494.1 1255.5 363.833 1254.5 306.5C1158.9 274.1 1108 189 1074.5 115C937.5 118.5 853.333 42.1667 825.5 7C732.3 62.2 611.167 24.5 557.5 1.5Z" fill="#B7B0B0" stroke="black"/>
<path d="M557.5 2.5C492.7 87.7 357.167 104.167 305.5 102C250.7 228.8 149.833 284.833 103 294C113.8 416.8 39.5 507.833 1 538C52.2 648.4 22.3333 764.333 1 808.5C84.6 890.9 97.5 969.5 97.5 1058.5C232.5 1108 275 1208 285 1249C413 1249 506.167 1311.5 535 1345.5C640.2 1303.9 756.167 1330.83 801 1349.5C880.2 1275.9 999 1254.83 1048.5 1253.5C1075.7 1165.5 1187.17 1094.17 1239.5 1069.5C1234.7 965.5 1308.5 863.5 1346 825.5C1306 745.1 1333.33 613.333 1352 557.5C1276.4 495.1 1255.5 364.833 1254.5 307.5C1158.9 275.1 1108 190 1074.5 116C937.5 119.5 853.333 43.1667 825.5 8C732.3 63.2 611.167 25.5 557.5 2.5Z" stroke="black"/>
<path d="M1311.5 678.5C1311.5 1023.68 1030.78 1303.5 684.5 1303.5C338.216 1303.5 57.5 1023.68 57.5 678.5C57.5 333.324 338.216 53.5 684.5 53.5C1030.78 53.5 1311.5 333.324 1311.5 678.5Z" fill="#D9D9D9" stroke="black"/>
<path d="M1161.5 678.5C1161.5 946.907 942.347 1164.5 672 1164.5C401.653 1164.5 182.5 946.907 182.5 678.5C182.5 410.093 401.653 192.5 672 192.5C942.347 192.5 1161.5 410.093 1161.5 678.5Z" stroke="black"/>
<path d="M1201.5 682.5C1201.5 974.109 966.67 1210.5 677 1210.5C387.33 1210.5 152.5 974.109 152.5 682.5C152.5 390.891 387.33 154.5 677 154.5C966.67 154.5 1201.5 390.891 1201.5 682.5Z" fill="#D9D5D5" stroke="black"/>
<path d="M372.5 399.5C372.5 414.956 359.748 427.5 344 427.5C328.252 427.5 315.5 414.956 315.5 399.5C315.5 384.044 328.252 371.5 344 371.5C359.748 371.5 372.5 384.044 372.5 399.5Z" fill="black" stroke="black"/>
<circle cx="843" cy="502" r="13.5" fill="#BEB8B8" fill-opacity="0.5" stroke="black"/>
<circle cx="389" cy="710" r="13.5" fill="black" stroke="black"/>
<path d="M962.5 569.5C962.5 584.956 949.748 597.5 934 597.5C918.252 597.5 905.5 584.956 905.5 569.5C905.5 554.044 918.252 541.5 934 541.5C949.748 541.5 962.5 554.044 962.5 569.5Z" fill="black" stroke="black"/>
<path d="M944.5 450.5C944.5 465.956 931.748 478.5 916 478.5C900.252 478.5 887.5 465.956 887.5 450.5C887.5 435.044 900.252 422.5 916 422.5C931.748 422.5 944.5 435.044 944.5 450.5Z" fill="black" stroke="black"/>
<path d="M1046.5 441.5C1046.5 456.956 1033.75 469.5 1018 469.5C1002.25 469.5 989.5 456.956 989.5 441.5C989.5 426.044 1002.25 413.5 1018 413.5C1033.75 413.5 1046.5 426.044 1046.5 441.5Z" fill="black" stroke="black"/>
<path d="M388.5 569.5C388.5 584.956 375.748 597.5 360 597.5C344.252 597.5 331.5 584.956 331.5 569.5C331.5 554.044 344.252 541.5 360 541.5C375.748 541.5 388.5 554.044 388.5 569.5Z" fill="black" stroke="black"/>
<path d="M321.5 491C321.5 508.39 307.18 522.5 289.5 522.5C271.82 522.5 257.5 508.39 257.5 491C257.5 473.61 271.82 459.5 289.5 459.5C307.18 459.5 321.5 473.61 321.5 491Z" fill="black" stroke="black"/>
<path d="M881.5 295.5C881.5 310.956 868.748 323.5 853 323.5C837.252 323.5 824.5 310.956 824.5 295.5C824.5 280.044 837.252 267.5 853 267.5C868.748 267.5 881.5 280.044 881.5 295.5Z" fill="black" stroke="black"/>
<path d="M582.97 278.404C566.175 298.805 531.048 302.748 517.657 302.229C503.453 332.592 477.311 346.009 465.172 348.204C467.972 377.609 448.714 399.407 438.736 406.63C452.006 433.066 444.265 460.826 438.736 471.402C460.403 491.133 463.747 509.954 463.747 531.265C498.736 543.118 509.752 567.063 512.343 576.881C545.519 576.881 569.666 591.847 577.139 599.988C604.405 590.027 634.461 596.476 646.081 600.946C666.608 583.322 697.399 578.278 710.229 577.958C717.278 556.887 746.168 539.806 759.732 533.899C758.488 508.996 777.616 484.572 787.335 475.473C776.968 456.221 784.052 424.669 788.89 411.3C769.296 396.358 763.879 365.165 763.62 351.437C738.842 343.678 725.65 323.301 716.967 305.582C681.459 306.42 659.645 288.142 652.431 279.721C628.275 292.939 596.88 283.911 582.97 278.404Z" fill="white" stroke="black"/>
<path d="M613.16 283.71C593.832 299.97 560.55 298.092 548.235 295.503C529.472 321.401 502.769 329.717 491.115 329.839C488.286 357.527 466.419 374.693 455.839 379.815C463.261 406.399 450.967 430.903 443.892 439.832C460.334 461.526 459.962 479.492 456.031 499.239C486.272 515.731 492.064 539.653 492.656 549.158C523.401 554.382 543.02 572.051 548.444 580.772C575.551 575.835 602.216 586.543 612.161 592.514C634.435 579.416 663.902 579.59 675.851 581.314C686.27 562.899 716.195 551.621 729.855 548.284C733.295 525.013 755.527 505.393 766.212 498.492C760.155 479.021 772.54 450.9 779.489 439.274C764.086 422.344 764.819 392.588 767.111 379.826C745.578 368.736 737.11 347.777 732.332 329.991C699.27 325.177 682.424 304.806 677.291 295.867C652.467 304.311 625.035 291.003 613.16 283.71Z" fill="white" stroke="black"/>
<path d="M584.457 295.153C569.6 313.194 538.525 316.68 526.68 316.222C514.115 343.07 490.989 354.935 480.251 356.876C482.727 382.878 465.692 402.153 456.865 408.541C468.604 431.917 461.756 456.465 456.865 465.817C476.032 483.264 478.99 499.907 478.99 518.752C509.942 529.233 519.687 550.407 521.979 559.089C551.327 559.089 572.688 572.322 579.298 579.522C603.418 570.713 630.007 576.416 640.286 580.369C658.445 564.784 685.683 560.324 697.032 560.041C703.268 541.408 728.825 526.304 740.823 521.081C739.723 499.06 756.643 477.462 765.241 469.416C756.07 452.392 762.337 424.492 766.617 412.67C749.284 399.457 744.492 371.874 744.263 359.734C722.344 352.874 710.674 334.855 702.993 319.186C671.582 319.927 652.285 303.764 645.903 296.318C624.535 308.006 596.762 300.023 584.457 295.153Z" fill="white" stroke="black"/>
<path d="M562.83 309.907C553.025 329.11 525.687 337.488 514.909 339.022C508.929 366.021 490.432 380.86 481.132 384.438C488.552 408.164 477.028 428.874 470.339 436.263C485.591 456.018 484.31 479.937 481.762 489.426C502.533 502.45 508.521 517.408 512.279 534.9C542.293 539.508 555.306 557.549 559.106 565.228C585.581 560.372 607.491 569.122 614.89 574.71C634.893 562.544 660.016 563.438 670.078 565.406C683.351 547.936 707.034 539.29 717.216 537.15C719.125 518.823 739.169 500.575 748.951 493.742C743.567 473.484 754.524 450.637 760.675 441.747C749.007 427.462 749.096 400.528 750.599 388.847C732.327 379.451 722.503 354.641 719.875 343.411C698.733 340.67 684.611 325.875 674.557 312.602C646.369 318.487 625.736 306.677 618.494 300.822C601.548 315.206 574.901 312.392 562.83 309.907Z" fill="white" stroke="black"/>
<path d="M588.694 311.765C576.313 327.941 549.721 331.544 539.548 331.338C529.313 355.253 509.711 366.117 500.537 368.012C503.191 390.925 488.966 408.229 481.522 414.017C492.069 434.456 486.693 456.242 482.686 464.581C499.487 479.661 502.363 494.303 502.746 510.94C529.517 519.671 538.308 538.2 540.452 545.825C565.633 545.33 584.23 556.653 590.049 562.897C610.565 554.714 633.494 559.3 642.394 562.616C657.658 548.552 680.938 544.155 690.671 543.714C695.643 527.159 717.264 513.394 727.453 508.581C726.061 489.159 740.14 469.807 747.354 462.558C739.139 447.684 743.949 422.947 747.381 412.438C732.24 401.066 727.567 376.796 727.124 366.083C708.178 360.396 697.798 344.685 690.889 330.982C663.953 332.166 647.067 318.222 641.44 311.756C623.343 322.435 599.351 315.856 588.694 311.765Z" fill="white" stroke="black"/>
<path d="M616.523 320.582C602.226 332.855 577.814 331.477 568.794 329.539C554.846 349.074 535.192 355.37 526.638 355.475C524.371 376.341 508.205 389.3 500.405 393.171C505.669 413.194 496.478 431.672 491.225 438.408C503.142 454.737 502.744 468.274 499.724 483.158C521.804 495.552 525.89 513.571 526.258 520.733C548.786 524.635 563.062 537.928 566.983 544.493C586.91 540.743 606.405 548.782 613.663 553.271C630.099 543.377 651.723 543.476 660.48 544.762C668.254 530.874 690.293 522.343 700.341 519.814C703.026 502.275 719.476 487.467 727.366 482.255C723.054 467.59 732.337 446.387 737.517 437.619C726.33 424.879 727.072 402.457 728.842 392.838C713.116 384.505 707.046 368.722 703.662 355.325C679.431 351.734 667.209 336.402 663.504 329.672C645.227 336.062 625.187 326.065 616.523 320.582Z" fill="white" stroke="black"/>
<path d="M644.027 332.11C628.162 340.365 606.34 334.199 598.615 330.625C581.353 345.538 562.037 347.292 554.253 345.665C547.274 364.137 529.551 372.638 521.561 374.579C521.613 393.805 508.916 408.716 502.561 413.769C509.519 430.982 505.965 443.184 499.714 456.078C516.82 471.767 516.276 488.937 514.921 495.508C534.437 503.584 544.252 518.518 546.26 525.263C565.222 525.874 581.012 537.093 586.536 542.626C603.782 536.961 623.375 541.404 631.016 544.335C641.345 533.301 663.351 530 673.063 529.728C679.636 514.358 698.053 504.237 706.44 501.098C705.989 486.926 719.412 469.56 726.18 462.649C719.037 448.838 725 428.647 728.875 420.277C716.575 409.551 714.791 394.01 714.882 381.175C693.747 373.038 686.276 356.668 684.503 349.817C666.415 351.934 650.594 338.829 644.027 332.11Z" fill="white" stroke="black"/>
<path d="M662.963 347.747C646.932 352.422 628.483 343.023 622.237 338.439C603.575 348.885 585.763 347.081 579.064 344.245C568.961 359.712 551.201 364.283 543.583 364.636C539.679 382.016 525.141 393.261 518.361 396.712C521.11 413.485 515.391 423.886 507.093 434.44C519.325 451.617 515.304 467.035 512.729 472.734C528.703 483.455 534.502 498.67 534.93 505.117C551.937 508.995 563.898 521.902 567.753 527.871C584.499 525.777 601.289 533.229 607.591 537.217C619.191 529.06 639.752 529.938 648.583 531.396C657.682 518.661 676.402 512.748 684.625 511.382C687.13 498.498 702.828 485.162 710.363 480.105C706.747 466.374 716.285 449.176 721.507 442.293C712.597 430.444 714.18 416.09 716.899 404.509C699.476 393.449 696.09 377.348 695.896 370.846C679.118 369.586 667.516 354.969 662.963 347.747Z" fill="white" stroke="black"/>
<path d="M675.371 367.5C660.292 368.905 645.876 357.477 641.275 352.37C622.726 358.423 607.362 353.807 602.013 350.167C590.02 362.104 573.434 363.124 566.64 362.142C559.738 376.82 544.67 384.278 537.999 386.173C537.09 401.445 529.973 409.655 520.55 417.561C527.93 434.799 521.315 447.725 517.909 452.319C529.876 464.494 531.969 478.907 531.065 484.67C545.305 490.981 553.295 504.403 555.511 510.326C570.709 511.32 584.046 520.748 588.815 525.338C600.676 520.107 618.651 524.372 626.156 527.158C636.719 517.462 654.419 515.42 661.949 515.611C666.722 504.664 683.23 495.558 690.887 492.373C690.426 479.639 702.265 466.078 708.242 460.89C702.735 448.918 706.987 436.517 711.69 426.756C698.511 414.037 698.724 399.25 699.846 393.479C685.287 389.518 677.954 374.647 675.371 367.5Z" fill="white" stroke="black"/>
<path d="M682.828 385.736C669.049 384.501 658.352 371.88 655.221 366.544C637.433 368.897 624.566 362.221 620.48 358.075C607.425 366.783 592.371 364.953 586.476 362.95C577.449 374.954 562.507 379.142 556.164 379.736C552.39 393.264 544.425 399.441 534.452 404.964C537.721 421.624 529.291 432.108 525.349 435.659C533.709 448.544 532.79 461.8 530.863 466.813C542.395 474.82 546.95 488.165 547.786 493.836C561.206 497.241 571.326 507.893 574.708 512.793C586.345 510.07 601.619 516.863 607.8 520.6C619.141 513.663 635.391 514.762 642.098 516.179C648.496 507.163 665.046 501.738 672.522 500.152C674.577 488.67 687.81 478.482 694.17 474.824C691.557 463.19 697.769 452.785 703.874 444.821C694.534 431.248 697.591 418.039 699.714 413.055C687.442 407.099 683.756 392.566 682.828 385.736Z" fill="white" stroke="black"/>
<path d="M688.45 401.814C676.351 398.396 669.395 385.389 667.701 380.125C651.257 379.217 641.114 371.122 638.316 366.753C624.788 372.285 611.67 368.124 606.802 365.353C596.198 374.49 581.923 375.691 576.111 375.15C569.9 386.525 561.466 390.666 551.368 393.89C550.82 409.233 541.069 417.12 536.792 419.609C541.597 432.457 538.003 444.071 535.228 448.197C543.897 457.249 545.194 469.864 544.759 475.04C556.082 480.324 562.932 491.485 564.942 496.405C575.947 495.948 588.225 504.553 592.988 508.912C604.608 504.664 618.951 508.377 624.67 510.765C632.291 503.838 648.267 501.809 655.303 501.66C659.545 491.812 673.54 484.997 680.008 482.82C680.095 472.051 687.84 463.86 694.979 457.817C689.439 444.193 694.941 432.981 697.886 428.913C688.124 421.558 687.855 408.034 688.45 401.814Z" fill="white" stroke="black"/>
<path d="M689.905 421.696C679.823 416.043 676.77 402.817 676.547 397.702C661.917 393.396 654.764 383.933 653.321 379.393C639.726 381.523 628.909 374.983 625.199 371.448C613.35 377.454 600.156 375.513 595.04 373.792C586.603 382.752 577.956 384.706 568.032 385.477C563.726 399.222 552.958 404.28 548.477 405.622C549.627 418.247 543.495 427.978 539.963 431.117C545.546 441.133 543.585 452.804 541.907 457.388C550.824 464.562 554.24 476.097 554.834 480.968C564.89 482.888 573.844 493.264 577.065 498.212C588.617 496.837 600.653 503.232 605.227 506.602C613.832 501.96 628.769 503.513 635.162 504.871C641.44 496.873 655.776 493.683 662.16 493.087C664.914 483.377 673.945 477.619 681.894 473.673C680.274 460.191 688.028 451.227 691.699 448.177C684.707 439.463 687.823 427.188 689.905 421.696Z" fill="white" stroke="black"/>
<path d="M686.088 433.71C677.97 427.145 677.479 414.782 678.153 410.14C665.705 404.125 660.876 394.554 660.352 390.253C647.738 390.188 639.108 382.717 636.369 378.99C624.665 382.674 613.107 379 608.791 376.702C599.657 383.546 591.531 384.045 582.457 383.292C576.227 395.049 565.659 398.037 561.391 398.592C560.27 410.137 553.081 418.011 549.362 420.324C552.681 430.164 548.919 440.395 546.623 444.281C553.432 452.047 554.539 462.94 554.241 467.415C562.975 470.613 569.27 481.269 571.327 486.198C581.972 486.645 591.724 494.163 595.27 497.867C603.818 494.939 617.012 498.518 622.541 500.674C629.566 494.383 643.03 493.6 648.884 493.994C653.025 485.646 662.147 481.775 669.986 479.379C670.83 466.993 679.35 460.048 683.179 457.835C678.368 448.962 683.273 438.356 686.088 433.71Z" fill="white" stroke="black"/>
<path d="M680.371 444.276C674.346 437.179 676.158 426.11 677.601 422.088C667.627 414.808 665.074 405.548 665.39 401.642C654.185 399.627 647.87 391.645 646.113 387.906C635.037 389.365 625.428 384.305 622.008 381.592C612.643 386.259 605.326 385.442 597.395 383.364C589.718 392.851 579.778 393.868 575.883 393.699C572.786 403.79 564.963 409.675 561.235 411.155C562.398 420.419 557.192 428.933 554.444 432.031C559.087 439.993 558.09 449.85 557.012 453.783C564.196 457.982 567.856 468.434 568.788 473.135C578.172 475.184 585.476 483.383 587.955 487.226C596.088 485.95 607.169 491.18 611.693 493.955C619.082 489.452 631.197 490.845 636.33 492.104C641.53 485.324 650.345 483.297 657.75 482.384C660.752 471.502 669.591 466.649 673.398 465.275C670.733 456.639 677.023 447.97 680.371 444.276Z" fill="white" stroke="black"/>
<path d="M673.483 454.147C669.376 446.701 673.161 436.936 675.25 433.517C667.588 425.254 667.055 416.414 668.097 412.915C658.299 409.236 654.1 400.937 653.225 397.248C642.872 396.749 635.113 390.564 632.528 387.533C623.112 390.233 616.618 388.283 609.808 385.087C600.996 392.446 591.763 391.732 588.254 390.936C583.489 399.6 575.239 403.661 571.565 404.392C570.832 413.006 564.455 419.888 561.358 422.252C564.041 430.256 561.231 439.054 559.49 442.452C565.211 447.454 566.52 457.56 566.459 461.988C574.595 465.399 579.653 474.057 581.164 477.96C588.805 478.14 597.869 484.722 601.446 487.991C609.034 485.115 619.779 488.379 624.203 490.37C630.241 485.063 638.646 484.674 645.555 485.064C650.387 475.665 659.36 472.71 663.087 472.089C662.332 463.798 669.726 456.953 673.483 454.147Z" fill="white" stroke="black"/>
<path d="M671.1 443.222C665.991 437.22 667.511 427.848 668.727 424.441C660.275 418.289 658.102 410.453 658.364 407.146C648.877 405.452 643.521 398.701 642.029 395.538C632.653 396.785 624.513 392.511 621.614 390.219C613.692 394.18 607.497 393.495 600.78 391.745C594.293 399.785 585.88 400.656 582.582 400.517C579.973 409.063 573.357 414.054 570.204 415.31C571.199 423.152 566.803 430.364 564.481 432.99C568.421 439.725 567.59 448.071 566.681 451.402C572.768 454.948 575.88 463.793 576.675 467.772C584.622 469.496 590.816 476.429 592.919 479.68C599.802 478.591 609.189 483.007 613.023 485.351C619.273 481.531 629.53 482.697 633.877 483.758C638.271 478.012 645.73 476.287 651.998 475.506C654.526 466.291 662.002 462.173 665.223 461.006C662.957 453.698 668.271 446.352 671.1 443.222Z" fill="white" stroke="black"/>
<path d="M665.422 452.436C662.003 446.013 665.372 437.692 667.206 434.787C660.753 427.625 660.413 420.048 661.351 417.063C653.009 413.802 649.521 406.648 648.82 403.479C639.96 402.935 633.397 397.551 631.223 394.927C623.123 397.133 617.587 395.39 611.797 392.576C604.153 398.781 596.255 398.065 593.26 397.344C589.066 404.71 581.947 408.096 578.79 408.681C578.049 416.05 572.497 421.872 569.814 423.862C572.007 430.747 569.484 438.25 567.949 441.141C572.783 445.489 573.771 454.159 573.661 457.951C580.584 460.962 584.801 468.434 586.044 471.794C592.586 472.034 600.262 477.773 603.283 480.612C609.819 478.234 618.979 481.15 622.741 482.905C627.982 478.428 635.186 478.189 641.097 478.601C645.359 470.606 653.083 468.175 656.282 467.685C655.745 460.576 662.167 454.797 665.422 452.436Z" fill="white" stroke="black"/>
<path d="M659.458 457.928C657.394 451.55 661.873 444.399 664.04 441.997C659.316 434.508 660.269 427.511 661.627 424.907C654.52 420.728 652.516 413.67 652.402 410.664C644.367 408.903 639.246 403.03 637.69 400.314C629.893 401.183 625.107 398.796 620.266 395.391C612.22 399.992 605.096 398.211 602.47 397.123C597.394 403.282 590.3 405.373 587.307 405.459C585.398 412.113 579.334 416.662 576.541 418.104C577.403 424.731 573.838 431.253 571.948 433.686C575.655 438.361 575.114 446.454 574.381 449.916C580.227 453.664 582.848 461.117 583.428 464.376C589.387 465.527 595.469 471.884 597.766 474.919C604.158 473.669 612.071 477.648 615.229 479.793C620.783 476.433 627.429 477.24 632.783 478.46C638.025 471.735 645.514 470.606 648.531 470.612C649.225 464.016 656.079 459.63 659.458 457.928Z" fill="white" stroke="black"/>
<path d="M651.932 463.249C651.286 457.043 656.804 451.223 659.266 449.378C656.396 441.707 658.644 435.438 660.403 433.273C654.693 428.244 654.235 421.423 654.721 418.642C647.684 415.679 644.131 409.425 643.234 406.669C635.9 406.162 631.97 403.168 628.191 399.229C619.896 402.109 613.7 399.28 611.501 397.841C605.629 402.649 598.701 403.382 595.934 402.961C592.875 408.754 586.411 411.918 583.562 412.776C583.054 419.009 578.499 424.404 576.285 426.322C578.774 431.239 576.69 438.584 575.337 441.641C579.973 446.064 580.919 453.351 580.812 456.442C586.061 458.498 590.403 465.357 591.918 468.529C598.035 468.451 604.526 473.432 607.006 475.932C612.768 473.775 618.716 475.629 623.395 477.646C629.531 472.345 636.634 472.562 639.404 473.073C641.335 467.128 648.493 464.247 651.932 463.249Z" fill="white" stroke="black"/>
<path d="M651.932 463.249C651.286 457.043 656.804 451.223 659.266 449.378C656.396 441.707 658.644 435.438 660.403 433.273C654.693 428.244 654.235 421.423 654.721 418.642C647.684 415.679 644.131 409.425 643.234 406.669C635.9 406.162 631.97 403.168 628.191 399.229C619.896 402.109 613.7 399.28 611.501 397.841C605.629 402.649 598.701 403.382 595.934 402.961C592.875 408.754 586.411 411.918 583.562 412.776C583.054 419.009 578.499 424.404 576.285 426.322C578.774 431.239 576.69 438.584 575.337 441.641C579.973 446.064 580.919 453.351 580.812 456.442C586.061 458.498 590.403 465.357 591.918 468.529C598.035 468.451 604.526 473.432 607.006 475.932C612.768 473.775 618.716 475.629 623.395 477.646C629.531 472.345 636.634 472.562 639.404 473.073C641.335 467.128 648.493 464.247 651.932 463.249Z" fill="white" stroke="black"/>
<path d="M635.486 217.595C632.237 221.51 626.983 230.761 628.5 241C630.1 251.8 632.833 267.121 634 273.431C584.42 267.823 527.887 285.777 478.576 356.5C471.652 353 454 353 451.5 352C449 351 442.5 355 437.5 358C433.5 360.4 430.167 359 429 358C418.5 349 396.8 330.1 394 326.5C391.677 323.514 385.065 322.844 380.5 322.893C379.562 322.903 378.71 322.943 378 323H374.5C376.833 326 375 337.2 349 358L373.5 376.5C381 385.167 392 407.4 376 427C360 446.6 332.333 437.167 320.5 430L305.5 416.5C303 415.5 297.1 413.8 293.5 415L284 431.5C283.167 435.167 282.6 442.4 287 442C291.4 441.6 294.5 443.5 295.5 444.5C308.667 450.167 334.6 466.2 333 485C331.4 503.8 311.667 533.5 302 546L284.5 556H269.5L261.5 550.5L243 544C239.5 543.5 232.1 544.1 230.5 550.5C228.9 556.9 217.5 640.5 212 681.5C210.333 694.833 210.6 722.5 225 726.5C243.667 722.667 284.2 728 297 780C297.833 786.667 293.5 802.9 269.5 814.5C320.5 930 460 1132.85 744.5 1092C1037 1050 1124 770.5 1093 592L1047.5 600C1084.67 697.5 1044.98 1003.04 739 1052C514 1088 353.167 912.167 310 802.5L443.5 764C456 759 484.7 738.8 499.5 698C499.167 652.333 520.5 553.4 608.5 523C684.532 496.735 746.878 520.086 777.802 541.005C779.038 541.842 780.225 542.674 781.36 543.5C784.693 545.924 787.582 548.285 790 550.5L839 605.5C850.333 618.333 883.1 641.4 923.5 631C963.9 620.6 1023 606 1047.5 600L1093 592L1114.5 585.065L1124 582C1167.5 912 997.5 1075 744.5 1125C448 1169 287.833 953.333 245.5 843C237.5 830.6 242.167 822.167 245.5 819.5L269.5 814.5C293.5 802.9 297.833 786.667 297 780C284.2 728 243.667 722.667 225 726.5C210.6 722.5 210.333 694.833 212 681.5C217.5 640.5 228.9 556.9 230.5 550.5C232.1 544.1 239.5 543.5 243 544L261.5 550.5L269.5 556H284.5L302 546C311.667 533.5 331.4 503.8 333 485C334.6 466.2 308.667 450.167 295.5 444.5C294.5 443.5 291.4 441.6 287 442C282.6 442.4 283.167 435.167 284 431.5L293.5 415C297.1 413.8 303 415.5 305.5 416.5L320.5 430C332.333 437.167 360 446.6 376 427C392 407.4 381 385.167 373.5 376.5L349 358C375 337.2 376.833 326 374.5 323H378C378.71 322.943 379.562 322.903 380.5 322.893L388.5 311L412.5 296.5L484 255C503.333 245.167 554.6 224.4 605 220C612.6 219.002 623.201 218.144 635.486 217.595Z" fill="#E2DBDB"/>
<path d="M938.5 319.5C958.5 316.7 972.167 335.667 976.5 345.5H975.5V356.5H976.5C976.5 360.5 964 389 938.5 386.5C917.491 384.44 907.833 365 906.5 356.5H908.5V345.5H907.5C909.5 338 918.5 322.3 938.5 319.5Z" fill="#E2DBDB"/>
<path d="M739 323C715.79 301.495 677.581 278.361 634 273.431M460 384.5C464.616 376.657 473.812 363.332 478.576 356.5M636 217C632.833 220.5 626.9 230.2 628.5 241C630.1 251.8 632.833 267.121 634 273.431M634 273.431C584.42 267.823 527.887 285.777 478.576 356.5M478.576 356.5C471.652 353 454 353 451.5 352C449 351 442.5 355 437.5 358C433.5 360.4 430.167 359 429 358C418.5 349 396.8 330.1 394 326.5C391.677 323.514 385.065 322.844 380.5 322.893M269.5 814.5C293.5 802.9 297.833 786.667 297 780C284.2 728 243.667 722.667 225 726.5C210.6 722.5 210.333 694.833 212 681.5C217.5 640.5 228.9 556.9 230.5 550.5C232.1 544.1 239.5 543.5 243 544L261.5 550.5L269.5 556H284.5L302 546C311.667 533.5 331.4 503.8 333 485C334.6 466.2 308.667 450.167 295.5 444.5C294.5 443.5 291.4 441.6 287 442C282.6 442.4 283.167 435.167 284 431.5L293.5 415C297.1 413.8 303 415.5 305.5 416.5L320.5 430C332.333 437.167 360 446.6 376 427C392 407.4 381 385.167 373.5 376.5L349 358C375 337.2 376.833 326 374.5 323H378C378.71 322.943 379.562 322.903 380.5 322.893M269.5 814.5C320.5 930 460 1132.85 744.5 1092C1037 1050 1124 770.5 1093 592M269.5 814.5L245.5 819.5C242.167 822.167 237.5 830.6 245.5 843C287.833 953.333 448 1169 744.5 1125C997.5 1075 1167.5 912 1124 582L1114.5 585.065M1093 592L1047.5 600M1093 592L1114.5 585.065M1047.5 600C1023 606 963.9 620.6 923.5 631C883.1 641.4 850.333 618.333 839 605.5L790 550.5C787.582 548.285 784.693 545.924 781.36 543.5M1047.5 600C1084.67 697.5 1044.98 1003.04 739 1052C514 1088 353.167 912.167 310 802.5L443.5 764C456 759 484.7 738.8 499.5 698C499.167 652.333 520.5 553.4 608.5 523C687.573 495.684 751.843 522.033 781.36 543.5M1114.5 585.065L1070.5 579L1038.5 550C1032.5 537 1027.1 506.7 1053.5 489.5C1079.9 472.3 1075.83 459 1070.5 454.5H1063.5L1031.5 473.5C1019.83 475 995.2 473.3 990 454.5C983.5 431 991 424.5 994.5 417C997.3 411 1017 398.833 1026.5 393.5L1018 383.5H1012.5L985.5 401C978.167 404.167 959.5 409.1 943.5 403.5M1045 600C1036 556.5 1001.3 455.8 934.5 401C932.5 398.5 926.6 393.5 919 393.5C911.4 393.5 903.5 400.167 900.5 403.5L869 422.5L839 438C830.167 441 812 448 810 452C808 456 804.5 453.667 803 452C800.167 472.5 790.6 516.5 775 528.5C773.073 531.167 771.648 537.9 781.36 543.5M975.5 345.5V356.5M975.5 356.5H976.5C976.5 360.5 964 389 938.5 386.5C917.491 384.44 907.833 365 906.5 356.5H908.5M975.5 356.5H908.5M908.5 345.5H907.5C909.5 338 918.5 322.3 938.5 319.5C958.5 316.7 972.167 335.667 976.5 345.5H908.5ZM908.5 345.5V356.5M380.5 322.893L388.5 311L412.5 296.5L484 255C503.333 245.167 554.6 224.4 605 220C631.667 216.5 695.261 214.71 739 222C799 232 857 242.5 939.5 300" stroke="black"/>
<path d="M944 403.5L932 398.5" stroke="black"/>
<circle cx="675.5" cy="681.5" r="128" fill="#E9DEDE" stroke="black"/>
<circle cx="679.5" cy="685.5" r="115" fill="#D8D7D7" stroke="black"/>
<path d="M253 761C266.2 757.8 274.5 766.667 277 771.5L276.5 771.617L278 777.123L278.5 777C279 782.167 276.9 793.4 264.5 797C252.1 800.6 241.667 791.833 238 787L238.5 786.877L237 780.883L236.5 781C236.5 775.667 239.8 764.2 253 761Z" fill="#1A1616"/>
<path d="M370.5 787C359.833 754 343.5 673.7 363.5 616.5M316.5 800.5C296 744.333 270.5 608.9 332.5 516.5C363.667 520.167 431.9 526.4 455.5 522L492.5 564L510 585C512.333 585 519 590 523 600M237 780.883L236.5 781C236.5 775.667 239.8 764.2 253 761C266.2 757.8 274.5 766.667 277 771.5L276.5 771.617M237 780.883L238.5 786.877M237 780.883L276.5 771.617M238.5 786.877L238 787C241.667 791.833 252.1 800.6 264.5 797C276.9 793.4 279 782.167 278.5 777L278 777.123M238.5 786.877L278 777.123M276.5 771.617L278 777.123" stroke="black"/>
<path d="M900.5 378L894 383.5C888.8 387.9 835.833 415.667 810 429L763.5 445.5C751.333 448.5 723.4 456.4 709 464C694.6 471.6 680.667 487.833 675.5 495L652.5 508.5C650.833 508.5 645.1 509.1 635.5 511.5C625.9 513.9 615.833 514.833 612 515L597.5 511.5C570.5 494.5 537 495.5 516.5 500.5C500.1 504.5 474.667 504.833 464 504.5C449.6 508.1 375 503 339.5 500V489L347 481L370 451.5L381 436.5L425.5 392L445 376.5L452.5 379C467.7 393.8 526.167 410.833 553.5 417.5C547.1 464.7 570.5 490.5 583 497.5C595.5 503.333 625.9 512.7 647.5 503.5C669.1 494.3 680.833 472 684 462C698 431.6 681.833 403.667 672 393.5C677 388.833 691 376.6 707 365C723 353.4 746.333 321.833 756 307.5C812 320.7 852 341.667 865 350.5C871.667 354.833 886.8 364.5 894 368.5C901.2 372.5 901.333 376.5 900.5 378Z" fill="#F5EEEE"/>
<path d="M665.5 395L652.5 383.5L650 375L652.5 356C656 346.333 660.9 326.1 652.5 322.5C644.1 318.9 630.333 319.667 624.5 320.5C618.5 324.5 615.333 351.5 614.5 364.5L609.5 376C585.5 388.5 586.5 391 572 404C557.5 417 558.5 450 563.5 468.5C567.5 483.3 587.833 496 597.5 500.5C614.167 505.333 652.4 507.6 672 478C691.6 448.4 675.833 410.333 665.5 395Z" fill="#F5EEEE"/>
<path d="M956 406C960.167 403.167 969.4 394.7 973 383.5V368.5L989.5 350.5L1006 367.5L1032 392C1057.33 420.833 1108.6 499.7 1111 584.5M976 359.5L989.5 344.5C990 343 989.2 338.7 982 333.5C974.8 328.3 966 319 962.5 315L946.5 301C945.5 299.833 943 297.7 941 298.5C939 299.3 928.5 312.167 923.5 318.5L913.5 330.5L912.5 334.5M898 368.5C897 363 895.3 350.5 896.5 344.5C897.7 338.5 902 330.333 904 327L919 306C920.5 303.167 921.7 296.5 914.5 292.5C907.3 288.5 902.167 285.167 900.5 284C896.167 294.333 886.5 315.7 882.5 318.5C878.5 321.3 874.833 324.333 873.5 325.5C867.667 328.333 853.1 332.9 841.5 328.5C829.9 324.1 823.667 311.667 822 306C821.167 300 819.6 287.2 820 284C820.4 280.8 829.167 262.333 833.5 253.5L799 238C795.167 237.167 787.1 237.3 785.5 244.5C783.9 251.7 778.833 263.5 776.5 268.5L766 288.5L754 296L739 322M894 383.5L900.5 378C901.333 376.5 901.2 372.5 894 368.5C886.8 364.5 871.667 354.833 865 350.5C852 341.667 812 320.7 756 307.5C746.333 321.833 723 353.4 707 365C691 376.6 677 388.833 672 393.5C681.833 403.667 698 431.6 684 462C680.833 472 669.1 494.3 647.5 503.5C625.9 512.7 595.5 503.333 583 497.5C570.5 490.5 547.1 464.7 553.5 417.5C526.167 410.833 467.7 393.8 452.5 379L445 376.5L425.5 392L381 436.5L370 451.5L347 481L339.5 489V500C375 503 449.6 508.1 464 504.5C474.667 504.833 500.1 504.5 516.5 500.5C537 495.5 570.5 494.5 597.5 511.5L612 515C615.833 514.833 625.9 513.9 635.5 511.5C645.1 509.1 650.833 508.5 652.5 508.5L675.5 495C680.667 487.833 694.6 471.6 709 464C723.4 456.4 751.333 448.5 763.5 445.5L810 429C835.833 415.667 888.8 387.9 894 383.5ZM652.5 383.5L665.5 395C675.833 410.333 691.6 448.4 672 478C652.4 507.6 614.167 505.333 597.5 500.5C587.833 496 567.5 483.3 563.5 468.5C558.5 450 557.5 417 572 404C586.5 391 585.5 388.5 609.5 376L614.5 364.5C615.333 351.5 618.5 324.5 624.5 320.5C630.333 319.667 644.1 318.9 652.5 322.5C660.9 326.1 656 346.333 652.5 356L650 375L652.5 383.5Z" stroke="black"/>
<circle cx="637" cy="345" r="9.5" fill="#C0B9B9" stroke="black"/>
<path d="M667.5 439.5C667.5 463.801 647.801 483.5 623.5 483.5C599.199 483.5 579.5 463.801 579.5 439.5C579.5 415.199 599.199 395.5 623.5 395.5C647.801 395.5 667.5 415.199 667.5 439.5Z" fill="white" stroke="black"/>
<circle cx="624" cy="440" r="38.5" fill="#F2EEEE" stroke="black"/>
<circle cx="623.5" cy="439.5" r="30" fill="#CECACA" stroke="black"/>
<circle cx="675.5" cy="681.5" r="102" fill="#CEC6C6" stroke="black"/>
<circle cx="674.5" cy="680.5" r="74" fill="#A7A1A1" stroke="black"/>
<circle cx="674" cy="680" r="67.5" fill="#847E7E" stroke="black"/>
<circle cx="675.5" cy="681.5" r="22" fill="#514949" stroke="black"/>
<path d="M693.323 681C693.323 690.389 685.712 698 676.323 698C666.934 698 659.323 690.389 659.323 681C659.323 671.611 666.934 664 676.323 664C685.712 664 693.323 671.611 693.323 681Z" fill="black" stroke="black"/>
<path d="M686.653 1015.97C686.65 1015.85 686.552 1015.76 686.359 1015.69C686.166 1015.62 685.973 1015.59 685.781 1015.6L685.767 1014.91L692.389 1014.78L692.403 1015.46C692.212 1015.46 692.02 1015.5 691.83 1015.58C691.639 1015.66 691.545 1015.75 691.548 1015.87L692.061 1040.71C692.063 1040.83 692.161 1040.92 692.355 1040.99C692.548 1041.06 692.741 1041.09 692.933 1041.09L692.947 1041.77L686.324 1041.91L686.31 1041.22C686.502 1041.22 686.693 1041.18 686.884 1041.1C687.074 1041.03 687.168 1040.93 687.166 1040.81L686.653 1015.97Z" fill="black"/>
<path d="M705.693 1041.56C704.807 1041.62 704.045 1041.38 703.408 1040.85C702.793 1040.29 702.455 1039.57 702.395 1038.68C702.339 1037.84 702.59 1037.12 703.15 1036.5C703.708 1035.86 704.418 1035.51 705.28 1035.46C706.118 1035.4 706.845 1035.65 707.46 1036.21C708.098 1036.75 708.445 1037.43 708.501 1038.27C708.561 1039.16 708.312 1039.92 707.754 1040.56C707.218 1041.17 706.531 1041.51 705.693 1041.56Z" fill="black"/>
<path d="M745.946 1035.49C746.048 1035.69 746.348 1035.76 746.847 1035.69L746.943 1036.37L739.708 1037.39L739.612 1036.72C739.921 1036.67 740.124 1036.57 740.223 1036.41C740.321 1036.25 740.325 1036.11 740.233 1035.97L737.559 1031.23L725.94 1032.88L724.693 1038.18L724.673 1038.29C724.693 1038.44 724.771 1038.56 724.907 1038.66C725.063 1038.74 725.248 1038.76 725.462 1038.73L725.558 1039.41L718.537 1040.4L718.44 1039.73C718.916 1039.66 719.186 1039.51 719.25 1039.28L725.735 1013.78C725.786 1013.63 725.803 1013.49 725.786 1013.37C725.756 1013.16 725.64 1013.03 725.44 1012.99C725.237 1012.92 725.028 1012.9 724.814 1012.93L724.718 1012.25L733.022 1011.07L733.119 1011.75C732.905 1011.78 732.709 1011.86 732.533 1011.98C732.353 1012.08 732.278 1012.23 732.309 1012.45C732.325 1012.57 732.38 1012.69 732.471 1012.82L745.946 1035.49ZM729.642 1017.23L726.961 1028.55L735.373 1027.36L729.642 1017.23Z" fill="black"/>
<path d="M758.026 1034.29C757.159 1034.48 756.37 1034.36 755.661 1033.92C754.971 1033.46 754.531 1032.79 754.341 1031.92C754.162 1031.1 754.304 1030.35 754.768 1029.66C755.226 1028.94 755.877 1028.49 756.721 1028.31C757.542 1028.13 758.298 1028.27 758.988 1028.74C759.697 1029.17 760.141 1029.8 760.321 1030.62C760.51 1031.49 760.375 1032.28 759.917 1032.99C759.477 1033.68 758.847 1034.11 758.026 1034.29Z" fill="black"/>
<path d="M775.41 1001.65C777.231 1001.12 778.919 1001 780.473 1001.27C782.026 1001.55 783.334 1002.18 784.395 1003.17C785.473 1004.14 786.232 1005.38 786.672 1006.9C787.159 1008.58 787.169 1010.13 786.702 1011.54C786.228 1012.92 785.421 1014.11 784.28 1015.09C783.133 1016.04 781.81 1016.74 780.311 1017.17L774.294 1018.91L776.974 1028.18C777.007 1028.29 777.126 1028.36 777.331 1028.38C777.535 1028.39 777.718 1028.38 777.879 1028.33L778.069 1028.99L771.879 1030.78L771.689 1030.12C771.85 1030.07 772.013 1029.99 772.178 1029.87C772.342 1029.74 772.408 1029.62 772.374 1029.51L765.474 1005.65C765.44 1005.53 765.321 1005.47 765.117 1005.45C764.936 1005.43 764.764 1005.44 764.603 1005.49L764.413 1004.83L775.41 1001.65ZM779.318 1012.7C780.124 1012.46 780.789 1012.09 781.312 1011.56C781.827 1011.01 782.167 1010.41 782.33 1009.77C782.492 1009.12 782.487 1008.5 782.314 1007.9C782.054 1007 781.443 1006.31 780.482 1005.84C779.521 1005.37 778.465 1005.3 777.312 1005.63L770.983 1007.46L773.023 1014.52L779.318 1012.7Z" fill="black"/>
<path d="M803.951 1021.16C803.116 1021.46 802.318 1021.45 801.558 1021.11C800.812 1020.74 800.287 1020.14 799.984 1019.31C799.698 1018.52 799.738 1017.75 800.106 1017C800.465 1016.24 801.051 1015.7 801.863 1015.41C802.652 1015.12 803.42 1015.16 804.166 1015.53C804.927 1015.87 805.451 1016.43 805.737 1017.22C806.04 1018.05 806.012 1018.86 805.653 1019.62C805.308 1020.36 804.74 1020.87 803.951 1021.16Z" fill="black"/>
<path d="M847.305 996.297L849.841 1001.47L849.226 1001.77C849.152 1001.62 849.046 1001.48 848.908 1001.36C848.769 1001.25 848.646 1001.21 848.538 1001.27L832.086 1009.33L831.784 1008.72C831.935 1008.64 832.07 1008.54 832.189 1008.4C832.33 1008.25 832.374 1008.12 832.321 1008.01L821.385 985.712C821.332 985.604 821.203 985.56 820.999 985.58C820.817 985.589 820.65 985.631 820.499 985.705L820.198 985.091L835.81 977.435C835.918 977.382 835.967 977.265 835.958 977.082C835.949 976.9 835.907 976.733 835.833 976.582L836.447 976.281L838.983 981.453L838.369 981.754C838.295 981.603 838.189 981.468 838.05 981.349C837.911 981.23 837.788 981.197 837.681 981.249L826.949 986.511L829.739 992.2L838.886 987.715C838.994 987.662 839.043 987.544 839.034 987.362C839.025 987.179 838.983 987.013 838.909 986.862L839.523 986.561L842.059 991.732L841.445 992.033C841.371 991.883 841.265 991.748 841.126 991.628C840.987 991.509 840.864 991.476 840.757 991.529L831.609 996.014L835.096 1003.13L846.668 997.451C846.775 997.398 846.825 997.281 846.815 997.098C846.806 996.916 846.764 996.749 846.69 996.598L847.305 996.297Z" fill="black"/>
<path d="M871.288 987.043C871.349 987.147 871.47 987.187 871.651 987.163C871.853 987.127 872.037 987.061 872.202 986.963L872.55 987.552L867.096 990.776L866.748 990.187C866.913 990.09 867.05 989.967 867.158 989.819C867.286 989.66 867.32 989.528 867.259 989.425L863.449 982.979C862.826 981.925 862.036 981.179 861.08 980.741C860.112 980.282 859.111 980.358 858.078 980.968C857.024 981.591 856.375 982.449 856.129 983.542C855.904 984.623 856.182 985.825 856.963 987.147L860.627 993.345C860.688 993.449 860.809 993.489 860.991 993.465C861.193 993.429 861.376 993.363 861.542 993.265L861.89 993.854L856.466 997.06L856.118 996.471C856.284 996.373 856.42 996.251 856.528 996.103C856.657 995.943 856.691 995.812 856.63 995.709L849.302 983.312C849.241 983.209 849.109 983.175 848.907 983.211C848.726 983.235 848.563 983.289 848.418 983.375L848.07 982.786L852.75 980.02L853.501 981.29C853.745 980.477 854.149 979.722 854.714 979.026C855.286 978.297 855.955 977.707 856.719 977.255C858.042 976.473 859.353 976.074 860.654 976.058C861.975 976.03 863.175 976.338 864.254 976.983C865.34 977.595 866.226 978.48 866.91 979.637L871.288 987.043Z" fill="black"/>
<path d="M878.875 962.533L881.961 967.052L881.396 967.438C881.301 967.299 881.184 967.191 881.043 967.112C880.889 967.014 880.762 966.999 880.663 967.067L878.731 968.386L885.186 977.841C885.254 977.94 885.377 977.972 885.557 977.936C885.736 977.901 885.895 977.836 886.034 977.741L886.42 978.306L881.573 981.615L881.188 981.05C881.327 980.955 881.445 980.831 881.543 980.677C881.641 980.523 881.656 980.396 881.589 980.297L875.133 970.843L873.706 971.817C873.607 971.885 873.575 972.008 873.611 972.187C873.632 972.347 873.691 972.496 873.785 972.635L873.22 973.021L870.135 968.502L870.7 968.116C870.794 968.255 870.919 968.373 871.073 968.471C871.214 968.55 871.334 968.555 871.433 968.487L872.86 967.513L870.485 964.034C870.417 963.935 870.293 963.903 870.114 963.939C869.935 963.974 869.776 964.039 869.637 964.134L869.251 963.569L874.097 960.26L874.483 960.825C874.344 960.919 874.226 961.044 874.128 961.198C874.03 961.352 874.014 961.479 874.082 961.578L876.457 965.056L878.39 963.737C878.489 963.669 878.527 963.556 878.506 963.396C878.47 963.217 878.405 963.058 878.311 962.919L878.875 962.533Z" fill="black"/>
<path d="M886.698 953.938C886.086 954.401 885.4 954.588 884.641 954.5C883.902 954.397 883.293 954.03 882.816 953.398C882.367 952.804 882.194 952.138 882.297 951.398C882.404 950.625 882.764 950.007 883.377 949.544C883.99 949.081 884.673 948.91 885.427 949.032C886.167 949.135 886.761 949.483 887.209 950.076C887.687 950.708 887.874 951.394 887.772 952.134C887.669 952.873 887.311 953.474 886.698 953.938ZM887.307 958.623C887.234 958.527 887.1 958.508 886.903 958.566C886.726 958.61 886.57 958.683 886.436 958.784L886.024 958.239L890.963 954.505L891.376 955.05C891.242 955.152 891.12 955.289 891.01 955.462C890.919 955.621 890.91 955.748 890.983 955.844L899.666 967.331C899.739 967.427 899.864 967.452 900.041 967.409C900.238 967.35 900.403 967.27 900.537 967.169L900.949 967.715L896.01 971.449L895.597 970.903C895.731 970.802 895.844 970.672 895.934 970.513C896.044 970.34 896.063 970.205 895.99 970.11L887.307 958.623Z" fill="black"/>
<path d="M904.81 942.348L908.317 946.549L907.791 946.987C907.684 946.858 907.556 946.761 907.409 946.697C907.246 946.614 907.118 946.611 907.026 946.688L905.23 948.187L912.565 956.976C912.642 957.068 912.768 957.088 912.943 957.036C913.118 956.983 913.27 956.903 913.399 956.796L913.838 957.321L909.332 961.081L908.894 960.556C909.023 960.448 909.129 960.313 909.212 960.15C909.295 959.987 909.298 959.86 909.221 959.767L901.885 950.978L900.559 952.086C900.467 952.163 900.447 952.289 900.499 952.464C900.536 952.62 900.608 952.763 900.716 952.892L900.191 953.331L896.685 949.129L897.21 948.691C897.317 948.82 897.453 948.926 897.616 949.009C897.763 949.073 897.883 949.067 897.975 948.99L899.302 947.883L896.603 944.649C896.526 944.557 896.4 944.537 896.225 944.59C896.05 944.642 895.898 944.722 895.769 944.83L895.33 944.305L899.835 940.544L900.274 941.07C900.145 941.177 900.039 941.313 899.956 941.475C899.873 941.638 899.87 941.766 899.947 941.858L902.646 945.092L904.442 943.592C904.535 943.515 904.562 943.399 904.525 943.242C904.473 943.067 904.393 942.915 904.285 942.786L904.81 942.348Z" fill="black"/>
<path d="M905.432 930.254C905.351 930.166 905.215 930.16 905.025 930.237C904.852 930.297 904.695 930.392 904.554 930.522L904.092 930.018L908.761 925.735L909.223 926.239C909.082 926.369 908.964 926.525 908.872 926.708C908.796 926.875 908.799 927.002 908.881 927.091L925.672 945.396C925.753 945.484 925.88 945.498 926.052 945.438C926.242 945.361 926.408 945.258 926.55 945.128L927.012 945.632L922.343 949.915L921.881 949.411C922.022 949.281 922.13 949.133 922.206 948.966C922.298 948.784 922.304 948.648 922.223 948.559L905.432 930.254Z" fill="black"/>
<path d="M926.992 921.407C928.279 920.081 929.683 919.22 931.205 918.824C932.709 918.411 934.195 918.431 935.661 918.884C937.128 919.337 938.455 920.14 939.643 921.294C940.005 921.645 940.342 922.021 940.653 922.424L931.478 931.88C932.371 932.613 933.368 932.878 934.468 932.675C935.568 932.472 936.561 931.914 937.447 931.001C938.049 930.381 938.464 929.781 938.693 929.2C938.939 928.602 939.048 927.973 939.021 927.311C938.986 927.21 938.959 927.151 938.942 927.134C938.873 927.067 938.779 927.026 938.66 927.011C938.524 926.979 938.413 926.972 938.329 926.991L938.242 926.305L943.273 925.618L943.384 926.278C942.979 926.386 942.786 926.55 942.806 926.771C943.083 929.38 942.235 931.701 940.263 933.734C938.993 935.043 937.589 935.921 936.051 936.368C934.496 936.799 932.969 936.822 931.47 936.437C929.97 936.018 928.626 935.232 927.437 934.079C926.18 932.859 925.311 931.497 924.83 929.994C924.349 928.491 924.293 926.998 924.661 925.516C925.028 924 925.806 922.63 926.992 921.407ZM935.317 923.115C934.544 922.499 933.599 922.284 932.482 922.47C931.364 922.623 930.412 923.104 929.627 923.914C928.841 924.723 928.414 925.663 928.345 926.733C928.259 927.787 928.511 928.717 929.1 929.522L935.317 923.115Z" fill="black"/>
<path d="M967.948 898.91C968.041 898.985 968.168 898.981 968.33 898.896C968.507 898.792 968.656 898.666 968.777 898.517L969.308 898.948L965.312 903.865L964.781 903.434C964.902 903.285 964.988 903.122 965.038 902.946C965.103 902.752 965.089 902.617 964.996 902.541L959.185 897.818C956.876 895.941 955.1 895.767 953.859 897.294C953.254 898.039 953.092 898.866 953.373 899.775C953.655 900.684 954.41 901.639 955.639 902.638L961.227 907.179C961.32 907.254 961.447 907.25 961.609 907.165C961.786 907.061 961.935 906.935 962.056 906.786L962.587 907.217L958.613 912.106L958.083 911.675C958.204 911.526 958.289 911.363 958.339 911.188C958.405 910.993 958.391 910.858 958.298 910.783L952.487 906.06C951.462 905.227 950.505 904.712 949.614 904.514C948.705 904.301 947.903 904.622 947.206 905.479C946.661 906.15 946.474 906.894 946.644 907.713C946.81 908.497 947.356 909.328 948.283 910.205L954.597 915.336C954.69 915.412 954.825 915.398 955.002 915.294C955.179 915.191 955.32 915.074 955.426 914.943L955.957 915.375L951.915 920.348L951.384 919.916C951.49 919.786 951.576 919.623 951.641 919.429C951.706 919.235 951.693 919.1 951.599 919.024L940.425 909.942C940.332 909.866 940.197 909.88 940.02 909.983C939.858 910.068 939.724 910.176 939.618 910.306L939.087 909.875L942.584 905.573L943.338 906.186C943.255 904.881 943.682 903.651 944.62 902.496C945.468 901.453 946.4 900.726 947.415 900.314C948.427 899.868 949.46 899.719 950.516 899.865C950.1 898.97 949.966 898.011 950.117 896.989C950.282 895.949 950.721 894.991 951.432 894.115C952.855 892.365 954.436 891.485 956.175 891.476C957.915 891.467 959.613 892.136 961.271 893.483L967.948 898.91Z" fill="black"/>
<path d="M964.811 875.003C965.846 873.472 967.078 872.379 968.507 871.722C969.916 871.053 971.382 870.813 972.905 871.002C974.428 871.192 975.875 871.751 977.247 872.678C977.665 872.961 978.062 873.273 978.439 873.615L971.059 884.53C972.067 885.096 973.095 885.182 974.142 884.79C975.19 884.397 976.07 883.674 976.782 882.62C977.266 881.905 977.57 881.241 977.694 880.629C977.831 879.998 977.829 879.359 977.687 878.712C977.634 878.619 977.598 878.565 977.578 878.552C977.499 878.498 977.399 878.474 977.279 878.48C977.139 878.472 977.029 878.485 976.949 878.518L976.744 877.857L981.577 876.301L981.802 876.932C981.422 877.109 981.261 877.305 981.319 877.518C982.048 880.039 981.619 882.472 980.033 884.818C979.011 886.329 977.783 887.44 976.347 888.149C974.891 888.845 973.391 889.135 971.848 889.018C970.298 888.868 968.837 888.329 967.465 887.402C966.014 886.42 964.92 885.232 964.184 883.836C963.447 882.44 963.131 880.98 963.234 879.456C963.331 877.899 963.856 876.415 964.811 875.003ZM973.306 875.229C972.438 874.757 971.469 874.711 970.402 875.09C969.328 875.436 968.475 876.076 967.843 877.01C967.211 877.944 966.955 878.945 967.074 880.01C967.174 881.063 967.584 881.934 968.305 882.625L973.306 875.229Z" fill="black"/>
<path d="M996.919 853.542C997.024 853.601 997.149 853.576 997.294 853.466C997.452 853.335 997.578 853.186 997.673 853.019L998.268 853.357L995.13 858.862L994.536 858.524C994.631 858.357 994.689 858.182 994.71 858.001C994.742 857.798 994.706 857.667 994.602 857.608L988.096 853.9C987.033 853.294 985.977 853.038 984.93 853.131C983.861 853.213 983.03 853.775 982.436 854.818C981.829 855.881 981.691 856.948 982.019 858.02C982.36 859.07 983.197 859.976 984.532 860.736L990.787 864.301C990.892 864.361 991.017 864.335 991.162 864.225C991.32 864.094 991.446 863.945 991.541 863.778L992.136 864.117L989.016 869.59L988.422 869.252C988.517 869.085 988.575 868.91 988.595 868.729C988.628 868.526 988.592 868.395 988.488 868.336L975.977 861.206C975.873 861.146 975.742 861.182 975.584 861.313C975.439 861.424 975.324 861.552 975.241 861.698L974.647 861.359L977.338 856.636L978.621 857.367C978.429 856.54 978.406 855.684 978.551 854.8C978.687 853.883 978.974 853.038 979.414 852.267C980.175 850.932 981.116 849.936 982.237 849.277C983.371 848.597 984.565 848.269 985.822 848.295C987.069 848.287 988.277 848.616 989.444 849.282L996.919 853.542Z" fill="black"/>
<path d="M991.353 828.496L996.274 830.889L995.974 831.504C995.823 831.431 995.667 831.395 995.506 831.397C995.324 831.388 995.206 831.438 995.154 831.546L994.13 833.65L1004.42 838.658C1004.53 838.711 1004.66 838.677 1004.79 838.557C1004.93 838.438 1005.04 838.303 1005.11 838.151L1005.73 838.451L1003.16 843.727L1002.54 843.428C1002.62 843.277 1002.66 843.11 1002.67 842.928C1002.68 842.745 1002.63 842.628 1002.52 842.575L992.224 837.567L991.468 839.121C991.416 839.229 991.449 839.352 991.569 839.49C991.667 839.618 991.792 839.718 991.943 839.792L991.643 840.407L986.723 838.013L987.022 837.398C987.173 837.471 987.34 837.512 987.523 837.521C987.684 837.519 987.79 837.465 987.843 837.357L988.599 835.803L984.811 833.96C984.703 833.908 984.58 833.941 984.442 834.061C984.304 834.18 984.198 834.316 984.124 834.467L983.509 834.168L986.076 828.891L986.692 829.19C986.618 829.341 986.577 829.508 986.568 829.691C986.559 829.873 986.609 829.991 986.717 830.043L990.504 831.886L991.528 829.782C991.581 829.674 991.558 829.556 991.46 829.428C991.34 829.29 991.205 829.184 991.054 829.111L991.353 828.496Z" fill="black"/>
<path d="M1018.64 793.036L1024.06 794.977L1023.83 795.621C1023.68 795.564 1023.51 795.542 1023.32 795.553C1023.14 795.564 1023.03 795.626 1022.99 795.739L1016.82 812.992L1016.17 812.762C1016.23 812.603 1016.25 812.433 1016.24 812.251C1016.24 812.046 1016.18 811.923 1016.07 811.882L992.678 803.514C992.565 803.473 992.442 803.531 992.309 803.688C992.185 803.822 992.094 803.968 992.038 804.126L991.394 803.896L997.252 787.524C997.292 787.411 997.246 787.292 997.112 787.168C996.978 787.044 996.832 786.953 996.674 786.896L996.904 786.252L1002.33 788.193L1002.1 788.837C1001.94 788.78 1001.77 788.758 1001.59 788.769C1001.4 788.78 1001.29 788.842 1001.25 788.955L997.225 800.208L1003.19 802.343L1006.62 792.751C1006.66 792.638 1006.62 792.519 1006.48 792.395C1006.35 792.27 1006.2 792.18 1006.04 792.123L1006.27 791.479L1011.7 793.42L1011.47 794.064C1011.31 794.007 1011.14 793.984 1010.96 793.996C1010.77 794.007 1010.66 794.069 1010.62 794.182L1007.19 803.774L1014.65 806.443L1018.99 794.308C1019.03 794.195 1018.98 794.076 1018.85 793.952C1018.72 793.828 1018.57 793.737 1018.41 793.68L1018.64 793.036Z" fill="black"/>
<path d="M1029.39 769.684C1029.5 769.715 1029.62 769.66 1029.73 769.516C1029.85 769.35 1029.94 769.174 1029.99 768.989L1030.65 769.168L1028.98 775.282L1028.32 775.103C1028.37 774.917 1028.39 774.734 1028.36 774.553C1028.34 774.349 1028.27 774.231 1028.16 774.2L1020.93 772.234C1019.75 771.913 1018.67 771.928 1017.68 772.28C1016.66 772.626 1016 773.378 1015.68 774.536C1015.36 775.717 1015.49 776.785 1016.08 777.74C1016.67 778.672 1017.71 779.34 1019.19 779.743L1026.14 781.633C1026.25 781.665 1026.37 781.609 1026.48 781.466C1026.6 781.3 1026.69 781.124 1026.74 780.938L1027.4 781.118L1025.74 787.197L1025.08 787.018C1025.13 786.832 1025.14 786.649 1025.12 786.468C1025.1 786.264 1025.03 786.146 1024.92 786.115L1011.02 782.334C1010.91 782.303 1010.79 782.37 1010.67 782.536C1010.56 782.68 1010.48 782.832 1010.43 782.994L1009.77 782.815L1011.2 777.569L1012.62 777.957C1012.23 777.204 1012 776.381 1011.91 775.488C1011.82 774.566 1011.89 773.677 1012.12 772.82C1012.52 771.338 1013.18 770.138 1014.11 769.219C1015.03 768.278 1016.11 767.663 1017.33 767.374C1018.54 767.055 1019.79 767.072 1021.09 767.425L1029.39 769.684Z" fill="black"/>
<path d="M1020.17 737.664L1020.84 737.791C1020.81 737.956 1020.81 738.14 1020.85 738.342C1020.89 738.52 1020.96 738.62 1021.08 738.643L1037.61 741.72C1040.56 742.276 1042.67 743.554 1043.96 745.554C1045.27 747.559 1045.64 750.024 1045.09 752.948C1044.87 754.151 1044.28 755.36 1043.35 756.576C1042.43 757.796 1041.21 758.847 1039.67 759.73C1039.6 759.741 1039.55 759.805 1039.53 759.923C1039.49 760.111 1039.54 760.327 1039.66 760.571L1039.06 760.86L1036.39 755.778L1037 755.453C1037.07 755.589 1037.18 755.731 1037.32 755.88C1037.47 756.006 1037.61 756.044 1037.74 755.996C1038.68 755.562 1039.41 755.04 1039.94 754.432C1040.47 753.823 1040.83 753.036 1041.01 752.069C1041.3 750.536 1041.15 749.262 1040.56 748.247C1039.99 747.237 1038.95 746.589 1037.44 746.305L1034.22 745.698C1035.1 747.402 1035.35 749.22 1034.99 751.154C1034.66 752.9 1034.01 754.39 1033.05 755.624C1032.06 756.831 1030.85 757.701 1029.41 758.235C1027.94 758.741 1026.36 758.834 1024.66 758.514C1022.97 758.194 1021.56 757.513 1020.43 756.471C1019.29 755.425 1018.5 754.153 1018.07 752.656C1017.63 751.155 1017.56 749.579 1017.87 747.928C1018.24 745.947 1019.1 744.339 1020.46 743.105L1019.19 742.865L1020.17 737.664ZM1031.24 750.229C1031.55 748.625 1031.36 747.307 1030.67 746.274C1029.96 745.237 1028.9 744.585 1027.49 744.319C1026.07 744.052 1024.81 744.304 1023.72 745.074C1022.62 745.844 1021.93 746.96 1021.66 748.422C1021.39 749.837 1021.62 751.101 1022.33 752.213C1023.06 753.302 1024.13 753.98 1025.54 754.246C1027 754.522 1028.26 754.27 1029.31 753.491C1030.34 752.708 1030.98 751.62 1031.24 750.229Z" fill="black"/>
<path d="M1018.69 725.693C1018.59 726.455 1018.25 727.078 1017.66 727.56C1017.07 728.019 1016.38 728.199 1015.6 728.101C1014.86 728.009 1014.26 727.669 1013.8 727.08C1013.32 726.464 1013.13 725.775 1013.22 725.013C1013.32 724.25 1013.67 723.642 1014.28 723.186C1014.87 722.727 1015.54 722.544 1016.28 722.636C1017.06 722.733 1017.68 723.077 1018.14 723.666C1018.6 724.255 1018.78 724.931 1018.69 725.693ZM1022.47 728.522C1022.35 728.507 1022.25 728.591 1022.15 728.772C1022.06 728.93 1022 729.093 1021.98 729.259L1021.3 729.175L1022.07 723.03L1022.75 723.115C1022.73 723.281 1022.74 723.465 1022.79 723.664C1022.84 723.84 1022.92 723.935 1023.04 723.95L1037.33 725.729C1037.45 725.744 1037.56 725.672 1037.65 725.514C1037.74 725.333 1037.8 725.159 1037.82 724.992L1038.5 725.076L1037.74 731.221L1037.06 731.136C1037.08 730.97 1037.06 730.798 1037.01 730.623C1036.96 730.423 1036.88 730.316 1036.76 730.302L1022.47 728.522Z" fill="black"/>
<path d="M1039.63 697.593C1039.75 697.601 1039.85 697.523 1039.93 697.36C1040.02 697.172 1040.07 696.983 1040.08 696.791L1040.76 696.833L1040.37 703.157L1039.69 703.115C1039.7 702.924 1039.67 702.742 1039.61 702.57C1039.55 702.374 1039.46 702.272 1039.34 702.265L1031.87 701.804C1030.65 701.729 1029.59 701.964 1028.69 702.51C1027.76 703.054 1027.27 703.926 1027.19 705.123C1027.12 706.345 1027.46 707.364 1028.23 708.181C1029 708.974 1030.15 709.417 1031.68 709.512L1038.87 709.954C1038.99 709.961 1039.09 709.883 1039.17 709.72C1039.26 709.533 1039.3 709.344 1039.32 709.152L1040 709.194L1039.61 715.482L1038.93 715.44C1038.94 715.248 1038.92 715.066 1038.85 714.894C1038.79 714.698 1038.7 714.597 1038.58 714.589L1024.21 713.704C1024.09 713.697 1023.99 713.787 1023.91 713.974C1023.82 714.137 1023.78 714.303 1023.77 714.47L1023.09 714.428L1023.42 709.003L1024.89 709.093C1024.36 708.435 1023.96 707.677 1023.7 706.82C1023.42 705.937 1023.3 705.052 1023.36 704.166C1023.45 702.633 1023.86 701.323 1024.57 700.237C1025.29 699.127 1026.22 698.306 1027.36 697.775C1028.47 697.219 1029.7 696.982 1031.04 697.065L1039.63 697.593Z" fill="black"/>
<path d="M1023.55 678.959C1023.52 677.111 1023.9 675.509 1024.7 674.153C1025.47 672.797 1026.53 671.761 1027.89 671.044C1029.25 670.328 1030.75 669.957 1032.41 669.932C1032.91 669.925 1033.42 669.953 1033.92 670.017L1034.12 683.192C1035.27 683.079 1036.17 682.561 1036.8 681.639C1037.43 680.718 1037.74 679.621 1037.72 678.349C1037.71 677.485 1037.58 676.767 1037.33 676.195C1037.08 675.598 1036.71 675.076 1036.23 674.627C1036.13 674.581 1036.07 674.558 1036.04 674.558C1035.95 674.559 1035.85 674.597 1035.76 674.67C1035.64 674.744 1035.56 674.817 1035.51 674.89L1034.96 674.466L1038.03 670.423L1038.58 670.811C1038.37 671.175 1038.35 671.427 1038.52 671.568C1040.56 673.218 1041.6 675.458 1041.65 678.29C1041.67 680.114 1041.3 681.728 1040.53 683.131C1039.74 684.535 1038.67 685.632 1037.34 686.42C1035.98 687.184 1034.48 687.579 1032.82 687.604C1031.07 687.63 1029.49 687.282 1028.09 686.559C1026.69 685.836 1025.59 684.821 1024.8 683.512C1023.99 682.18 1023.57 680.663 1023.55 678.959ZM1030.64 674.279C1029.66 674.39 1028.84 674.907 1028.18 675.829C1027.5 676.727 1027.16 677.74 1027.18 678.868C1027.2 679.996 1027.56 680.962 1028.27 681.768C1028.95 682.574 1029.79 683.053 1030.77 683.206L1030.64 674.279Z" fill="black"/>
</svg>
