<?xml version="1.0" encoding="UTF-8"?><svg id="Layer_2" xmlns="http://www.w3.org/2000/svg" xmlns:xlink="http://www.w3.org/1999/xlink" viewBox="0 0 136.17 127.75"><defs><style>.cls-1{fill:#d1d3d4;}.cls-2{fill:url(#radial-gradient-2);}.cls-3{fill:url(#linear-gradient-8);}.cls-4{fill:url(#linear-gradient-7);}.cls-5{fill:url(#linear-gradient-5);}.cls-6{fill:url(#linear-gradient-6);}.cls-7{fill:url(#linear-gradient-9);}.cls-8{fill:url(#linear-gradient-4);}.cls-9{fill:url(#linear-gradient-3);}.cls-10{fill:url(#linear-gradient-2);}.cls-11{fill:#231f20;}.cls-12,.cls-13{fill:#212631;}.cls-14{fill:url(#radial-gradient);}.cls-15{fill:url(#linear-gradient);}.cls-13{stroke:#212631;stroke-miterlimit:10;}.cls-16{fill:url(#linear-gradient-10);}.cls-17{fill:url(#linear-gradient-11);}.cls-18{fill:url(#linear-gradient-12);}.cls-19{fill:url(#linear-gradient-13);}.cls-20{fill:#878284;}</style><linearGradient id="linear-gradient" x1="-3.35" y1="19.03" x2="52.94" y2="19.03" gradientTransform="translate(132.82) rotate(-180) scale(1 -1)" gradientUnits="userSpaceOnUse"><stop offset="0" stop-color="#85288f"/><stop offset=".07" stop-color="#802f92"/><stop offset=".17" stop-color="#74459d"/><stop offset=".3" stop-color="#6068ae"/><stop offset=".45" stop-color="#4598c5"/><stop offset=".55" stop-color="#2fc1d9"/><stop offset="1" stop-color="#222732"/></linearGradient><linearGradient id="linear-gradient-2" x1="26.02" y1="330.68" x2="48.99" y2="330.68" gradientTransform="translate(182.47 -281.81) rotate(-166.89) scale(1 -1)" xlink:href="#linear-gradient"/><linearGradient id="linear-gradient-3" x1="27.17" y1="36.97" x2="50.04" y2="36.97" gradientTransform="translate(132.82) rotate(-180) scale(1 -1)" gradientUnits="userSpaceOnUse"><stop offset="0" stop-color="#222732"/><stop offset=".45" stop-color="#2fc1d9"/><stop offset=".55" stop-color="#4598c5"/><stop offset=".7" stop-color="#6068ae"/><stop offset=".83" stop-color="#74459d"/><stop offset=".93" stop-color="#802f92"/><stop offset="1" stop-color="#85288f"/></linearGradient><linearGradient id="linear-gradient-4" x1="22.03" y1="46.32" x2="40.99" y2="46.32" gradientTransform="translate(132.82) rotate(-180) scale(1 -1)" gradientUnits="userSpaceOnUse"><stop offset="0" stop-color="#f5f3b5"/><stop offset=".08" stop-color="#efd6a1"/><stop offset=".26" stop-color="#e59f7c"/><stop offset=".43" stop-color="#dd715e"/><stop offset=".6" stop-color="#d64e46"/><stop offset=".75" stop-color="#d13434"/><stop offset=".89" stop-color="#ce252a"/><stop offset="1" stop-color="#ce2027"/></linearGradient><linearGradient id="linear-gradient-5" x1="86.86" y1="7.79" x2="117.48" y2="7.79" gradientTransform="translate(132.82) rotate(-180) scale(1 -1)" gradientUnits="userSpaceOnUse"><stop offset="0" stop-color="#f5f3b5"/><stop offset=".04" stop-color="#f0dba4"/><stop offset=".12" stop-color="#e8af87"/><stop offset=".2" stop-color="#e1886d"/><stop offset=".29" stop-color="#db6857"/><stop offset=".39" stop-color="#d64d45"/><stop offset=".5" stop-color="#d23938"/><stop offset=".62" stop-color="#d02a2e"/><stop offset=".76" stop-color="#ce2228"/><stop offset="1" stop-color="#ce2027"/></linearGradient><linearGradient id="linear-gradient-6" x1="86.41" y1="13.97" x2="119.62" y2="13.97" xlink:href="#linear-gradient-5"/><linearGradient id="linear-gradient-7" x1="82.85" y1="20.11" x2="132.82" y2="20.11" xlink:href="#linear-gradient-5"/><linearGradient id="linear-gradient-8" x1="76.64" y1="28.78" x2="129.4" y2="28.78" xlink:href="#linear-gradient-5"/><linearGradient id="linear-gradient-9" x1="83.5" y1="32.41" x2="121.77" y2="32.41" xlink:href="#linear-gradient-5"/><linearGradient id="linear-gradient-10" x1="77.9" y1="37.72" x2="118.14" y2="37.72" gradientTransform="translate(132.82) rotate(-180) scale(1 -1)" gradientUnits="userSpaceOnUse"><stop offset="0" stop-color="#f5f3b5"/><stop offset=".1" stop-color="#f3ebb0"/><stop offset=".25" stop-color="#f0d8a3"/><stop offset=".42" stop-color="#eab88d"/><stop offset=".62" stop-color="#e18b6f"/><stop offset=".83" stop-color="#d75349"/><stop offset="1" stop-color="#ce2027"/></linearGradient><linearGradient id="linear-gradient-11" x1="65.15" y1="43.66" x2="107.84" y2="43.66" xlink:href="#linear-gradient-10"/><radialGradient id="radial-gradient" cx="54.31" cy="46.85" fx="54.31" fy="46.85" r="16.57" gradientTransform="translate(132.82 5) rotate(-180) scale(1 -.94)" gradientUnits="userSpaceOnUse"><stop offset="0" stop-color="#878284"/><stop offset=".84" stop-color="#262e38"/></radialGradient><linearGradient id="linear-gradient-12" x1="77.8" y1="98.2" x2="112.56" y2="98.2" xlink:href="#linear-gradient-3"/><linearGradient id="linear-gradient-13" x1="88.28" y1="92.16" x2="120.55" y2="92.16" xlink:href="#linear-gradient-3"/><radialGradient id="radial-gradient-2" cx="19.44" cy="42.74" fx="19.44" fy="42.74" r="9.27" gradientTransform="translate(132.82 -213.71) rotate(-180) scale(1 -6)" xlink:href="#radial-gradient"/></defs><g id="Layer_1-2"><path class="cls-13" d="M124.99,47.68l-10.51-6.62c-.16-.91-.55-2.4-1.54-3.96-.31-.48-1.66-2.52-4.36-3.92-2.01-1.04-3.79-1.21-4.99-1.31-2.66-.22-4.69.32-6.14.71-1.29.35-3.85,1.78-7.04,3.5,0,0-4.58,2.77-7.34,3.87-.06.03-.41.16-.87.16-.24,0-.84,0-1.03-.32-.2-.32.17-.72.32-1.27.25-.96-.33-1.86-.67-2.46-.76-1.33-1.93-4.02-3.53-7.92-4.14-1.03-9.13-2.64-14.52-5.24-6.91-3.33-12.24-7.2-16.08-10.46.4,1.68.74,3.95.6,6.62-.08,1.57-.32,2.97-.6,4.14,1.22,1.11,2.43,2.22,3.65,3.32.06.72.26,1.84.95,2.95.37.6.84,1.11,2.29,2.23,2.42,1.87,3.82,2.52,3.73,2.71-.15.34-4.9-1.46-5.94-1.85-.59-.22-1.08-.42-1.44-.56-.03.34-.02.87.2,1.43,0,0,.35.92,1.36,1.63,1.24.87,7.75,3.59,16.79,6.9-.04.33-.14.57-.23.73-.47.85-1.59,1.01-2.15,1.12,0,0-2.62.51-5.25,2.13-.95.59-1.5,1.18-2.56,2.34-2.48,2.73-3.96,5.28-4.49,6.2-2.79,4.88-4.95,9.78-6.07,12.45-.18.34-.48.87-.88,1.5-1.83,2.84-3.88,4.5-4.22,4.79-1.75,1.5-8.06,9.39-24.9,32.43,3.6-4.08,7.37-8.21,11.31-12.39,4.2-4.45,8.36-8.71,12.46-12.78-6.11,13.88-12.22,27.76-18.33,41.64,10.15-16.07,20.29-32.14,30.44-48.22.84-.86,2.14-2.26,3.62-4.09,1.01-1.25,1.8-2.31,3.44-4.27,1.93-2.3,2.87-3.26,4.38-3.72.82-.25,1.5-.26,1.99-.26,1.77-.03,2.1.51,4.79,1.08,1.86.39,3.27.47,4.01.49.19,0,.74.02,1.52-.02,1.37-.06,4.28-.19,7.74-1.45,3.54-1.29,6.05-3.03,8.88-5.51,2.27-1.98,4.21-4.03,6.08-5.33,2.67-1.87,3.16-1.74,4.57-2.21,7.77-2.59,19.11-1.08,20.55-.95Z"/><path class="cls-15" d="M100.65,30.07c6.25-3.7,6.78-6.08,13.49-10.82,3.93-2.77,7.7-4.73,8.16-4.98,2.72-1.47,4.53-2.2,8.91-4.63,3.66-2.03,4.51-7.15,4.96-9.63-1.96,1.85-4.44,4.09-7.61,6.05-2.23,1.38-4.42,2.28-6.33,3.1.05-.86.1-1.71.14-2.57-2.93,2.05-5.86,4.1-8.79,6.14.02-.69.05-1.38.07-2.07-3.31,2.41-6.62,4.81-9.93,7.22.1-.71.19-1.43.29-2.14-3.41,2.36-6.81,4.72-10.22,7.07.05-.76.1-1.52.14-2.29-4.12,3.14-8.24,6.29-12.36,9.43-.07-.31-.14-.62-.21-.93-.5.33-.99.65-1.49.98,1.18,2.69,2.36,5.38,3.55,8.07.88-.43,1.76-.87,2.64-1.31,1.55-.78,2.27-1.15,2.67-1.35,2.57-1.28,3.64-1.64,6-2.57,2.1-.83,3.79-1.5,5.91-2.76Z"/><path class="cls-10" d="M81.17,37.58c-3.2-1.22-7.07-2.99-11.18-5.62-3.73-2.39-6.73-4.88-9.05-7.08-.2.34-.63,1.17-.58,2.24.04.83.36,1.45.46,1.62.19.31.36.51.48.63,1.11,1.19,3.19,2.21,4.37,2.79,2.68,1.32,6.23,3.13,10.68,5.36.53-.05,1.19-.06,1.94.02,1.14.13,2.14.29,2.96.52"/><path class="cls-9" d="M105.66,35.86c-.29-.36-.6-.74-.95-1.12-.52-.57-.79-.86-1.23-1.19-.32-.24-.7-.53-1.27-.73-.71-.26-1.3-.24-1.84-.22,0,0-1.07.05-2.06.39-1.42.49-7.44,3.34-15.53,7.45.71.39,1.35.6,1.8.72.46.12.98.24,1.65.2.64-.04,1.11-.22,1.36-.31,2.22-.86,4.04-1.96,4.04-1.96,1.08-.66,3-1.54,6.83-3.32.41-.19,1.14-.52,2.13-.64.56-.07,1.04-.05,1.4-.04.48.02,1.16.08,1.96.26.48.11,1.07.27,1.71.53Z"/><path class="cls-8" d="M101.52,49.46c1.46-1.69,2.5-2.14,3.53-2.8,1.16-.74,2.39-1.32,4.34-2.73.6-.44,1.09-.82,1.41-1.07-.41-.32-1.02-.84-1.64-1.58-.97-1.18-1.16-1.94-1.94-3.04-.7-.98-1.3-1.77-2.38-2.35-1.46-.79-2.92-.7-3.53-.67-.73.04-1.25.2-2.29.52-.9.28-1.3.49-1.54.88-.08.13-.16.32-.21.76-.14,1.18.18,2.15.25,2.38.4,1.18,1.08,1.91,1.38,2.23.81.86,1.63,1.27,1.85,1.38.35.17.75.36,1.31.45.51.09.78.03.82.13.08.23-1.31.85-2.3,1.42-1.55.9-2.44,1.88-3.8,3.37-2.1,2.31-3.21,4.44-3.48,4.99-.74,1.46-1.19,2.77-1.47,3.74,1.32-.96,2.26-1.84,2.89-2.47.5-.51.77-.83,1.46-1.48.66-.62,1.27-1.27,2.17-2,.44-.36.57-.44,1.57-1.07.45-.28,1.35-.84,1.59-.99Z"/><path class="cls-11" d="M100.72,35.48c-.16.18-.44.54-.56,1.05-.19.85.18,1.54.34,1.84.16.3.41.77.96,1.07.65.36,1.29.26,1.55.22.28-.04.82-.13,1.29-.57.31-.3.45-.61.49-.7.15-.37.15-.69.15-.76-.02-.74-.54-1.25-.74-1.46-.52-.52-1.11-.68-1.43-.76-.89-.23-1.66-.06-2.05.06Z"/><path class="cls-5" d="M45.97,11.83c-.01,1.13-.03,2.26-.04,3.38-4.02-1.93-8.52-3.88-13.5-5.68-4.81-1.75-9.36-3.12-13.56-4.2-.27-.66-.64-1.44-1.17-2.25-.78-1.21-1.64-2.1-2.35-2.72.47.02,1.15.06,1.98.13,2.34.21,6.9.83,14.66,4.05,3.74,1.55,8.59,3.86,13.99,7.28Z"/><path class="cls-6" d="M46.37,17.11c.01,1.39.03,2.78.04,4.17-10.25-3.84-20.5-7.67-30.75-11.51-.82-1.04-1.64-2.08-2.46-3.12.69-.01,1.59,0,2.64.13,0,0,1.11.13,2.24.4,1.77.42,13,4.33,28.29,9.93Z"/><path class="cls-4" d="M49.7,28.05c-15.25-3.72-30.5-7.44-45.74-11.17-1.32-1.6-2.64-3.19-3.96-4.79.62-.02,1.64-.03,2.9.06,2.98.22,5.16.87,5.8,1.06,3.16.91,17.26,4.34,37.03,9.11.07.28.14.56.21.84,1.22,1.11,2.45,2.23,3.67,3.34.02.45.11.79.19,1.03.09.28.22.54.14.6-.05.04-.16-.02-.25-.07Z"/><path class="cls-3" d="M56.19,33.87c-.04.08-.83-.27-1.95-.73-.76-.31-2.71-.99-4.37-1.54,0,0-1.43-.4-3.39-.69-2.96-.43-18.32-1.74-39.31-3.29-1.25-1.13-2.5-2.25-3.75-3.38.35-.16.82-.33,1.38-.44.66-.13,1.17-.12,1.38-.11,5.85.16,7.35.34,7.35.34,4.03.46,2.81.16,7.9.71,3.65.4,3.54.47,8.92,1.12,4.44.54,5.33.58,8.56,1.02,2.47.33,4,.53,6.11.92,2.42.45,4.41.92,5.8,1.28.1.24.28.59.56.98.29.38.58.66,1.35,1.27.56.45.84.67,1.39,1.07,1.41,1.03,2.1,1.41,2.06,1.48Z"/><path class="cls-7" d="M48.8,32.03c.17.83.35,1.67.52,2.5-11.98-.42-23.96-.83-35.94-1.25-.78-.69-1.56-1.38-2.34-2.07.13-.25.33-.53.66-.72.52-.29,1.08-.18,1.2-.16.96.15,15.49.81,35.89,1.69Z"/><path class="cls-16" d="M50.05,35.66c.29.19.73.48,1.27.85,1.09.75,1.41,1.03,2.06,1.38.98.51,1.53.55,1.54.64,0,.32-8.41.73-37.74,1.27-.83-.72-1.66-1.45-2.49-2.17.18-.13.47-.31.85-.46.85-.33,1.6-.28,1.76-.28,1.1.04,14.3-.47,32.75-1.22Z"/><path class="cls-17" d="M59.6,46.19c1.24-.92,2.33-1.33,3.1-1.53,1.51-.4,2.94-.33,4.49-1.43.21-.15.37-.29.47-.37-3.52-1.04-7.05-2.07-10.57-3.11-2.2,0-5.2.04-8.76.21-2.99.15-7.44.37-13.18,1.16-2.65.36-6.12.92-10.17,1.79.21.18.51.42.91.67.91.55,1.76.78,2.42.91,2.07.42,3.86.25,3.86.25,2.08-.2,12.66-1.24,27.24-2.8-.98.18-2.68.49-3.71.68-4.02.73-4.91.89-6.34,1.18-2.26.46-3.39.69-4.53,1-2.43.67-4.34,1.47-5.62,2.06.17.04.42.11.72.21.57.2.97.4,1.01.43,1.13.57,9.18-1.3,10.6-1.6,1.81-.37,4.51-.6,8.07.31Z"/><path class="cls-14" d="M60.97,53.75c-.93.68-2.13,1.95-2.04,2.12.23.45,4.67-2.04,6.65-.55.89.67,1.09,2,1.24,2.96.16,1.07.05,1.97-.08,2.55,2.4.21,4.33,0,5.63-.25,4.1-.76,7.21-2.67,9.04-3.81.32-.2.55-.35.7-.45,1.43-.97,3.39-2.6,8.5-7.55,1.91-1.85,4.5-4.42,7.5-7.59-.3-.35-.66-.86-.93-1.55-.46-1.21-.33-2.27-.23-2.8-3,1.1-4.9,2.08-6.11,2.8-.73.43-1.46.72-2.92,1.29-.65.26-1.53.58-2.58.41-.3-.05-.54-.12-.7-.18-.75.51-2.01,1.32-3.65,2.2-1.76.94-2.56,1.21-6.63,3.04-2.07.93-3.1,1.39-4.27,1.97-.95.46-1.71.86-2.17,1.1-1.71.89-2.56,1.34-3.28,1.8-1.84,1.18-1.02.58-3.65,2.5Z"/><path class="cls-18" d="M55.03,68.64c-1.22,1.04-3.33,2.53-6.27,3.38-1.66.48-3.15.62-4.33.63-.55.99-1.17,1.95-1.64,2.99-8.33,18.54-15.07,35.84-22.52,52.11,2.99-4.77,5.57-8.93,7.67-12.33.62-1,3.16-5.12,6.44-10.51,2.28-3.75,3.63-5.98,5.96-9.74,1.46-2.37,2.67-4.31,3.48-5.6.02-.02.04-.05.03-.05-.03-.04-.91.8-1.88,1.35-.41.23-1.06.53-1.96.71,5.01-7.64,10.02-15.29,15.03-22.93Z"/><path class="cls-19" d="M44.55,72.1c-1.36,3.47-2.72,6.94-4.08,10.41-3.86,3.83-7.16,7.19-9.8,9.91-2.55,2.62-5.91,6.09-9.94,10.44-3.07,3.32-4.6,4.97-6.26,6.88-1.27,1.47-2.14,2.51-2.2,2.47-.08-.06,1.77-2.5,6.01-8.17,2.18-2.91,4.35-5.83,6.52-8.74,2.81-3.77,3.75-5.03,5.27-7.01,1.61-2.11,2.91-3.77,3.92-5.04,2.02-2.55,1.66-2.03,2.76-3.44,2.78-3.58,3.35-4.68,5.1-6.05,1.05-.82,2.03-1.35,2.69-1.66Z"/><path class="cls-11" d="M124.08,47.37c-4.42-1.58-8.84-3.22-13.27-4.92-.15-.06-.33-.13-.49-.19.22.2.45.39.67.59l-1.35,1.08c4.81,1.15,9.62,2.29,14.44,3.44Z"/><path class="cls-20" d="M55.8,29.05c-2.94-2.35-5.87-4.7-8.81-7.04,0,.43-.01.86-.02,1.29,1.26,1.16,2.52,2.31,3.78,3.47,1.68.76,3.36,1.53,5.04,2.29Z"/><path class="cls-12" d="M119.36,13.53c.87-1.3,1.74-2.6,2.61-3.9-1.55,1.28-3.37,2.72-5.45,4.26-1.1.81-3.09,2.28-5.77,4.04-1.51.99-3.39,2.12-7.08,4.34-1.9,1.14-3.46,2.07-4.51,2.7.17-.65.43-1.45.84-2.32.45-.95.9-1.62,1.26-2.15.39-.57.9-1.25,1.56-1.98-7.12,4.88-14.24,9.77-21.36,14.65.68,1.54,1.36,3.09,2.05,4.63,3.7-1.88,7.41-3.77,11.13-5.64.3-.15,1.24-.55,2.44-1.23,1.5-.84,2.57-1.63,3.53-2.36,2.35-1.77,3.81-3,5.58-4.43,1.9-1.54,2.29-1.79,4.45-3.5,2.07-1.63,5.03-4.01,8.7-7.11Z"/><path class="cls-2" d="M106.55,36.02c1.55.56,2.67,1.21,3.38,1.69,1.46.97,1.96,1.68,3.96,3.11.79.57,1.38.94,2.21,1.45,3.54,2.2,7.1,4.38,8.54,5.26-1.4-.17-8.33-.51-9.86-.45-7.23.27-8.25.69-12.65,2.37.38-.47.57-.65,1.08-1.14,1.18-1.12,2.11-1.51,4.72-3.1.54-.33,1.14-.7,1.77-1.1,4.84,1.09,9.69,2.18,14.53,3.27-4.72-1.78-9.43-3.56-14.15-5.34-.12-.12-.29-.29-.49-.52-.18-.2-.53-.62-1.16-1.61-.26-.42-.5-.78-.76-1.28-.34-.63-.76-1.51-1.13-2.63Z"/><ellipse class="cls-1" cx="101.73" cy="37.17" rx=".8" ry="1.03" transform="translate(-6.57 38.46) rotate(-20.75)"/></g></svg>