<?xml version="1.0" encoding="UTF-8"?><svg id="Layer_2" xmlns="http://www.w3.org/2000/svg" xmlns:xlink="http://www.w3.org/1999/xlink" viewBox="0 0 93.89 223.4"><defs><style>.cls-1{fill:#f5f4bb;stroke:#6d6e71;}.cls-1,.cls-2,.cls-3,.cls-4,.cls-5,.cls-6,.cls-7,.cls-8,.cls-9{stroke-miterlimit:10;}.cls-10,.cls-3{fill:#868284;}.cls-11{fill:#d1d3d4;}.cls-12{fill:url(#linear-gradient-8);}.cls-13{fill:url(#linear-gradient-7);}.cls-14{fill:url(#linear-gradient-5);}.cls-15{fill:url(#linear-gradient-6);}.cls-16{fill:url(#linear-gradient-9);}.cls-17{fill:url(#linear-gradient-4);}.cls-18{fill:url(#linear-gradient-3);}.cls-19{fill:url(#linear-gradient-2);}.cls-20{fill:url(#radial-gradient);}.cls-21{fill:url(#linear-gradient);}.cls-22{fill:#221f20;}.cls-2{fill:#222630;stroke:#222630;}.cls-3{stroke:#f5f4bb;stroke-width:.75px;}.cls-23{fill:url(#linear-gradient-10);}.cls-24{fill:url(#linear-gradient-11);}.cls-25{fill:url(#linear-gradient-12);}.cls-26{fill:url(#linear-gradient-13);}.cls-27{fill:url(#linear-gradient-19);}.cls-28{fill:url(#linear-gradient-14);}.cls-29{fill:url(#linear-gradient-21);}.cls-30{fill:url(#linear-gradient-20);}.cls-31{fill:url(#linear-gradient-22);}.cls-32{fill:url(#linear-gradient-23);}.cls-33{fill:url(#linear-gradient-25);}.cls-34{fill:url(#linear-gradient-15);}.cls-35{fill:url(#linear-gradient-16);}.cls-36{fill:url(#linear-gradient-17);}.cls-37{fill:url(#linear-gradient-18);}.cls-38{fill:url(#linear-gradient-24);}.cls-4{fill:url(#radial-gradient-5);}.cls-4,.cls-5,.cls-6,.cls-7,.cls-8,.cls-9{stroke:#868284;}.cls-5{fill:url(#radial-gradient-4);}.cls-5,.cls-6,.cls-7{stroke-width:2px;}.cls-6{fill:url(#radial-gradient-2);}.cls-7{fill:url(#radial-gradient-7);}.cls-8{fill:url(#radial-gradient-6);}.cls-8,.cls-9{stroke-width:1.5px;}.cls-9{fill:url(#radial-gradient-3);}</style><linearGradient id="linear-gradient" x1="343.94" y1="233.65" x2="377.15" y2="233.65" gradientTransform="translate(286.25 473.77) rotate(-89.46) scale(1 -1)" gradientUnits="userSpaceOnUse"><stop offset="0" stop-color="#f5f4bb"/><stop offset="0" stop-color="#f3efb7"/><stop offset=".09" stop-color="#e7c397"/><stop offset=".18" stop-color="#dc9c7b"/><stop offset=".27" stop-color="#d27c64"/><stop offset=".37" stop-color="#cb6151"/><stop offset=".48" stop-color="#c54d42"/><stop offset=".61" stop-color="#c13e37"/><stop offset=".76" stop-color="#be3631"/><stop offset="1" stop-color="#be3430"/></linearGradient><linearGradient id="linear-gradient-2" x1="614.53" y1="271.23" x2="649.05" y2="271.23" gradientTransform="translate(441.21 683.53) rotate(-100.59) scale(1 -1)" xlink:href="#linear-gradient"/><linearGradient id="linear-gradient-3" x1="1165.57" y1="296.35" x2="1199.99" y2="296.35" gradientTransform="translate(952.23 879.96) rotate(-125.81) scale(.97 -.92)" xlink:href="#linear-gradient"/><linearGradient id="linear-gradient-4" x1="1539.61" y1="349.08" x2="1562.72" y2="349.08" gradientTransform="translate(1242.36 772.28) rotate(-138.84) scale(.85 -.79)" xlink:href="#linear-gradient"/><linearGradient id="linear-gradient-5" x1="9.13" y1="62.17" x2="25.86" y2="62.17" gradientUnits="userSpaceOnUse"><stop offset="0" stop-color="#232731"/><stop offset=".18" stop-color="#262a33"/><stop offset=".32" stop-color="#303339"/><stop offset=".45" stop-color="#404444"/><stop offset=".57" stop-color="#585b54"/><stop offset=".69" stop-color="#777968"/><stop offset=".8" stop-color="#9c9d80"/><stop offset=".91" stop-color="#c8c89d"/><stop offset="1" stop-color="#f5f4bb"/></linearGradient><linearGradient id="linear-gradient-6" x1="-1304.17" y1="285.83" x2="-1269.02" y2="285.83" gradientTransform="translate(-381.75 1307.2) rotate(95.12) scale(1 -1)" gradientUnits="userSpaceOnUse"><stop offset="0" stop-color="#7a2f8b"/><stop offset=".07" stop-color="#78368f"/><stop offset=".18" stop-color="#744c9a"/><stop offset=".31" stop-color="#6e6fac"/><stop offset=".47" stop-color="#669fc5"/><stop offset=".55" stop-color="#61bfd6"/><stop offset="1" stop-color="#232731"/></linearGradient><linearGradient id="linear-gradient-7" x1="-953.01" y1="110.21" x2="-903.62" y2="110.21" gradientTransform="translate(31.98 1049.79) rotate(82.01) scale(1 -1)" xlink:href="#linear-gradient"/><linearGradient id="linear-gradient-8" x1="-953.39" y1="111.29" x2="-899.99" y2="111.29" gradientTransform="translate(31.7 1049.97) rotate(82.02) scale(1 -1)" xlink:href="#linear-gradient"/><linearGradient id="linear-gradient-9" x1="-965.07" y1="112.17" x2="-885.73" y2="112.17" gradientTransform="translate(31.98 1049.79) rotate(82.01) scale(1 -1)" xlink:href="#linear-gradient"/><linearGradient id="linear-gradient-10" x1="-1005.98" y1="154.79" x2="-923.44" y2="154.79" gradientTransform="translate(-31.93 1088.91) rotate(83.75) scale(1 -1)" xlink:href="#linear-gradient"/><linearGradient id="linear-gradient-11" x1="-947.93" y1="70.03" x2="-888.67" y2="70.03" gradientTransform="translate(135.94 1033.77) rotate(74.49) scale(1 -1.87)" xlink:href="#linear-gradient"/><linearGradient id="linear-gradient-12" x1="-912.25" y1="-492.34" x2="-850.4" y2="-492.34" gradientTransform="translate(1209.73 717.59) rotate(75.91) scale(1 -2.04)" gradientUnits="userSpaceOnUse"><stop offset="0" stop-color="#f5f4bb"/><stop offset=".11" stop-color="#f2ecb5"/><stop offset=".26" stop-color="#edd9a7"/><stop offset=".45" stop-color="#e4b990"/><stop offset=".66" stop-color="#d78c70"/><stop offset=".88" stop-color="#c75447"/><stop offset="1" stop-color="#be3430"/></linearGradient><linearGradient id="linear-gradient-13" x1="-572.65" y1="-1679.49" x2="-536.68" y2="-1679.49" gradientTransform="translate(-957.56 1191.39) rotate(59.72) scale(.88 .87)" gradientUnits="userSpaceOnUse"><stop offset="0" stop-color="#232731"/><stop offset=".5" stop-color="#f5f4bb"/><stop offset="1" stop-color="#7a2f8b"/></linearGradient><linearGradient id="linear-gradient-14" x1="-659.94" y1="-933.14" x2="-605.27" y2="-933.14" gradientTransform="translate(-135.07 1288.42) rotate(41.55)" xlink:href="#linear-gradient-13"/><linearGradient id="linear-gradient-15" x1="-643.46" y1="-942.63" x2="-592.71" y2="-942.63" gradientTransform="translate(-135.07 1288.42) rotate(41.55)" xlink:href="#linear-gradient-13"/><radialGradient id="radial-gradient" cx="-1101.64" cy="18.5" fx="-1101.64" fy="18.5" r="9.16" gradientTransform="translate(1122.16 -43.76) rotate(2.73) scale(1 6)" gradientUnits="userSpaceOnUse"><stop offset="0" stop-color="#868284"/><stop offset=".84" stop-color="#282e37"/></radialGradient><linearGradient id="linear-gradient-16" x1="20.13" y1="25.41" x2="48.02" y2="25.41" gradientTransform="translate(63.89) rotate(-180) scale(1 -1)" xlink:href="#linear-gradient"/><linearGradient id="linear-gradient-17" x1="-1310.04" y1="353.36" x2="-1270.11" y2="353.36" gradientTransform="translate(501.85 1313.51) rotate(85.97)" xlink:href="#linear-gradient-12"/><radialGradient id="radial-gradient-2" cx="74.99" cy="134.96" fx="74.99" fy="134.96" r="12.31" gradientTransform="translate(0 11.04) scale(1 .96)" gradientUnits="userSpaceOnUse"><stop offset="0" stop-color="#f5f4bb"/><stop offset=".29" stop-color="#f2f3bb"/><stop offset=".45" stop-color="#eaf0bc"/><stop offset=".58" stop-color="#dcebbf"/><stop offset=".7" stop-color="#c9e4c2"/><stop offset=".8" stop-color="#b0dbc7"/><stop offset=".89" stop-color="#90d0cd"/><stop offset=".98" stop-color="#6cc3d3"/><stop offset="1" stop-color="#61bfd6"/></radialGradient><radialGradient id="radial-gradient-3" cx="76.62" cy="165.4" fx="76.62" fy="165.4" r="15.48" gradientTransform="translate(-39.52 -22.92) scale(1.13 1.07)" xlink:href="#radial-gradient-2"/><radialGradient id="radial-gradient-4" cx="60.37" cy="128.27" fx="60.37" fy="128.27" r="18.71" gradientTransform="matrix(1,0,0,1,0,0)" xlink:href="#radial-gradient-2"/><radialGradient id="radial-gradient-5" cx="73.62" cy="137.32" fx="73.62" fy="137.32" r="4.34" gradientTransform="matrix(1,0,0,1,0,0)" xlink:href="#radial-gradient-2"/><radialGradient id="radial-gradient-6" cx="100.84" cy="164.66" fx="100.84" fy="164.66" r="15.14" gradientTransform="translate(-39.52 -22.92) scale(1.13 1.07)" xlink:href="#radial-gradient-2"/><radialGradient id="radial-gradient-7" cx="46.42" cy="161.12" fx="46.42" fy="161.12" r="14.93" gradientTransform="matrix(1,0,0,1,0,0)" xlink:href="#radial-gradient-2"/><linearGradient id="linear-gradient-18" x1="-1144.53" y1="193.01" x2="-1099.58" y2="193.01" gradientTransform="translate(164.22 1246.24) rotate(94.57)" xlink:href="#linear-gradient"/><linearGradient id="linear-gradient-19" x1="53.3" y1="495.42" x2="90.17" y2="495.42" gradientTransform="translate(424.9 242.52) rotate(-78.92) scale(.84 -.79)" xlink:href="#linear-gradient"/><linearGradient id="linear-gradient-20" x1="88.94" y1="231.8" x2="121.74" y2="231.8" gradientTransform="translate(241.51 248.6) rotate(-78.04) scale(.97 -.93)" xlink:href="#linear-gradient"/><linearGradient id="linear-gradient-21" x1="-1202.62" y1="211.94" x2="-1167.42" y2="211.94" gradientTransform="translate(258.63 1297.9) rotate(90.86)" xlink:href="#linear-gradient"/><linearGradient id="linear-gradient-22" x1="-1223.53" y1="216.77" x2="-1171.53" y2="216.77" gradientTransform="translate(198.91 1315.85) rotate(93.57)" xlink:href="#linear-gradient"/><linearGradient id="linear-gradient-23" x1="-1213.49" y1="218.66" x2="-1173.15" y2="218.66" gradientTransform="translate(212.59 1311.82) rotate(92.95)" xlink:href="#linear-gradient"/><linearGradient id="linear-gradient-24" x1="-1226.41" y1="274.57" x2="-1181.49" y2="274.57" gradientTransform="translate(320.38 1334.1) rotate(94.65) scale(1 1.33)" xlink:href="#linear-gradient"/><linearGradient id="linear-gradient-25" x1="-1246.44" y1="236.99" x2="-1186.02" y2="236.99" gradientTransform="translate(204.04 1324.64) rotate(94.65) scale(1 1.07)" xlink:href="#linear-gradient"/></defs><g id="Layer_1-2"><path class="cls-21" d="M56.53,127.34c-.52.11-1.04.21-1.57.32.08-10.42.15-20.85.23-31.27.42-.64.84-1.28,1.27-1.92.16.13.34.32.46.62.19.47.13.95.12,1.05-.08.83-.27,13.46-.51,31.21Z"/><path class="cls-19" d="M57.64,128.06c-.05-1.36.17-2.39.19-2.46.28-1.33.19-8.56-.74-27.64.6-1.09,1.21-2.17,1.81-3.26.12.21.26.49.37.86.12.42.15.78.17.93.31,4.05.31,5.11.31,5.11,0,2.86.1,1.96.12,5.56.01,2.59-.04,2.52-.06,6.35-.02,3.16.02,3.78-.02,6.08-.03,1.76-.04,2.85-.13,4.38-.1,1.75-.26,3.21-.38,4.24-.15.11-.35.29-.56.58-.43.63-.51,1.24-.69,1.19-.22-.07-.35-1.12-.38-1.91Z"/><path class="cls-18" d="M62.28,131.35c-.95-11.31-1.9-22.61-2.85-33.92.49-1.99.99-3.97,1.48-5.96.12.32.3.87.47,1.63.42,1.81.5,3.52.52,4.02.13,2.45,1.02,12.9,2.27,27.51-.11.26-.23.52-.34.78-.29,1.55-.58,3.1-.88,4.66-.2.36-.34.68-.43.92-.11.27-.2.55-.25.55-.03,0-.02-.1,0-.19Z"/><path class="cls-17" d="M69.32,122.48c-.41,1.17-.81,2.34-1.22,3.51-1.11-7.6-2.23-15.21-3.34-22.81.13-1.22.25-2.44.38-3.66.15.28.35.69.54,1.24,0,0,.2.59.37,1.29.27,1.11,1.57,9.19,3.27,20.43Z"/><path class="cls-1" d="M45.78,131.2c-1.27-2.8-2.64-5.82-4.13-9.11,1.72,1.11,3.44,2.22,5.17,3.33,3.67-1.23,7.35-2.46,11.02-3.69.34,1.4.69,2.79,1.03,4.19,3.33-.53,6.66-1.07,9.99-1.6-7.69,2.3-15.38,4.6-23.08,6.9Z"/><path class="cls-1" d="M45.16,131.03c.08,0,.11-.02.2-.04.09-.02.2-.05.25-.07,0,0,.22-.06.41-.2.3-.2.42-27.11.72-45.1-.19-.08-1.34-.51-3.22-.53-1.67-.01-2.77.32-3.02.4,2.25,26.4,4.33,45.33,4.33,45.43,0,0,0,0,0,0,0,.03.03.06.05.07.05.03.08.05.27.02Z"/><path class="cls-1" d="M31.73,131.45c1.27-2.8,2.64-5.82,4.13-9.11-1.72,1.11-3.44,2.22-5.17,3.33-3.67-1.23-7.35-2.46-11.02-3.69-.34,1.4-.69,2.79-1.03,4.19-3.33-.53-6.66-1.07-9.99-1.6,7.69,2.3,15.38,4.6,23.08,6.9Z"/><path class="cls-1" d="M32.35,131.28c-.08,0-.11-.02-.2-.04-.09-.02-.2-.05-.25-.07,0,0-.22-.06-.41-.2-.3-.2-.42-27.11-.72-45.1.19-.08,1.34-.51,3.22-.53,1.67-.01,2.77.32,3.02.4-2.25,26.4-4.33,45.33-4.33,45.43,0,0,0,0,0,0,0,.03-.03.06-.05.07-.05.03-.08.05-.27.02Z"/><path class="cls-14" d="M20.27,33.34c-.36.48-.72,1.01-1.1,1.61-1.38,2.22-2.53,4.8-3.47,7.3-2.58,6.16-5.47,14.82-6.41,23.73-1.21,11.43,4.4,20.2,4.79,26.83.41-.99.54-1.34,1.13-1.78.31-.23.62-.13.84-.25.45-2.13-.3-4.45.15-6.59.33-.26.83-.83,1.31-2.17.26-.72.47-1.56.92-4.06.75-4.18.98-6.48,1.07-6.39.16.16-.44,7.9-.58,9.6-.08.96-.14,1.77-.19,2.35.16-.04.4-.17.65-.64,0,0,.4-.76.68-2.49,2.87-10.52,5.7-25.94,5.7-25.94.65-15.88-2.48-20.91-3.15-22.34-.61-1.3-1.55-.18-2.35,1.23Z"/><path class="cls-15" d="M19.86,34.05c-.41,5.22-1.05,11.61-2.06,18.56-.92,6.31-1.93,11.52-2.83,15.62.17.23.57.7,1.06.36.38-.26.65-.89.72-1.09.13-.36.22-.68.27-.89.49-1.99.86-5.43,1.08-7.4.48-4.44,1.15-10.34,1.96-17.72-.05-.8-.08-1.82-.08-2.99,0-1.79.04-3.37.1-4.69"/><path class="cls-13" d="M13.24,90.58c.52-.24,1.04-.48,1.55-.73-.7,6.65-1.38,14.06-1.98,22.15-.58,7.83-1,15.17-1.3,21.9-.29.57-.63,1.33-.98,2.33-.52,1.49-.89,3.03-1.14,4.25-.01-.73-.03-1.79-.03-3.08-.01-3.66.06-10.83,1.18-23.55.54-6.13,1.38-14.15,2.69-23.28Z"/><path class="cls-12" d="M13.92,90.52c.64-.35,1.27-.7,1.91-1.05-1.29,16.71-2.58,33.42-3.86,50.12-.44,1.51-.88,3.02-1.32,4.53-.04-1.06-.07-2.45-.06-4.1,0,0,0-1.74.08-3.55.11-2.83,1.39-21.06,3.25-45.96Z"/><path class="cls-16" d="M16.94,77.8c-1,24.39-2,48.78-3.01,73.16-.67,2.41-1.34,4.82-2.01,7.23-.04-.95-.09-2.52-.11-4.48-.04-4.65.16-8.17.22-9.19.27-5.09,1.19-27.64,2.46-59.24.12-.18.25-.35.37-.53.45-2.15.91-4.3,1.36-6.45.2-.14.36-.35.46-.54.12-.21.24-.47.27-.36.02.07,0,.25-.02.4Z"/><path class="cls-23" d="M19.17,71.32s-.13,1.34-.34,3.17c-.14,1.25-.46,4.41-.72,7.08,0,0-.19,2.29-.32,5.38-.2,4.66-.82,28.65-1.56,61.38-.53,2.18-1.05,4.35-1.58,6.53-.07-.5-.15-1.18-.21-2.03-.06-.99-.05-1.78-.05-2.11.08-9.07.16-11.42.16-11.42.22-6.31.08-4.36.34-12.34.19-5.72.22-5.56.53-14,.25-6.97.27-8.35.48-13.43.16-3.89.25-6.29.43-9.64.21-3.83.43-7.01.6-9.23.11-.21.28-.56.45-1.08.18-.53.31-1.04.59-2.36.21-.96.31-1.44.5-2.38.48-2.41.66-3.55.69-3.5Z"/><path class="cls-24" d="M14.34,85.04c.68-.61,1.35-1.22,2.03-1.84.92,18.88,1.85,37.77,2.77,56.65-.49,1.5-.99,3-1.48,4.49-.22-.1-.48-.3-.67-.75-.3-.69-.26-1.62-.26-1.8.03-1.56-.96-24.53-2.39-56.76Z"/><path class="cls-25" d="M16.29,84.83c.16-.53.41-1.35.73-2.34.65-2.02.9-2.63,1.19-3.8.44-1.75.45-2.64.53-2.67.29-.13,1.01,12.92,2.66,58.8-.64,1.6-1.27,3.19-1.91,4.79-.12-.23-.3-.62-.46-1.16-.34-1.21-.32-2.4-.32-2.65,0-1.74-1-22.28-2.42-50.96Z"/><path class="cls-10" d="M19.54,67.15c-1.03,4.49-3.32,8.87-4.35,13.36-.82,3.57-.38,7.25-1.2,10.82.09-.04.55-.25.64-.3.21-.1.43-.2.64-.3.94-3.53,2.83-7.35,3.77-10.88.48-4.33.02-8.37.51-12.7Z"/><path class="cls-2" d="M21.7,101.15c-1.66-4.28-3.64-10.28-5.02-17.64-1.89-10.11-1.52-18.01-1.6-24.35-.09-8.01.13-15.4,2.41-23.06,0,0,3.53-10.96,7.05-12.51.12-.05.79-.32,1.02-.92.11-.3.1-.63-.33-1.76-.42-1.11-.63-1.67-.99-2.2,0,0-.67-.98-1.76-1.76-2.41-1.73-7.74-1.13-8.32-1.09,2.09-1.21,6.12-2.77,8.21-3.98.27-.49.69-1.25,1.21-2.2,1.43-2.61,1.63-3.03,2.09-3.74.54-.83,1.42-2.18,2.64-3.19,1.92-1.59,4.1-1.88,5.95-2.09,5.37-.63,9.67,1.1,10.46,1.43,6.23,2.59,9.43,7.47,10.89,9.76,1.36,2.14,2.36,5.1,4.37,11.03,1.94,5.73,2.96,8.81,3.45,13.1,0,0,.51,4.44,0,9.65-.83,8.54-9.97,30.11-26.13,56.72-1.08,3.63-4.42,14.92-5.84,20.98-.13.54-.34,1.46-.52,2.68-.81,5.26-.13,9.35-.03,10.05.5,3.6-.31,19.46-4.51,64.15.01-8.55-.11-17.35-.38-26.38-.29-9.62-.75-18.97-1.34-28.03-7.29,22.71-14.57,45.42-21.86,68.13,4.82-29.5,10.71-58.85,14.47-88.5.38-3.02,1.5-7.88,1.81-10.86.56-5.39,1.13-8.16,2.6-13.37Z"/><path class="cls-26" d="M50.34,18.92c.62.09,1.29.21,1.99.37,1.04.23,1.58.35,2.27.65.51.22,1.12.47,1.75,1.01.8.67,1.19,1.4,1.54,2.04,0,0,.69,1.31.98,2.72.41,2.03,4.19,11.47,2.05,23.71-.96-.58-1.65-1.2-2.1-1.66-.46-.47-.98-1.01-1.39-1.84-.4-.79-.52-1.48-.58-1.84-.53-3.24-.5-6.18-.5-6.18.02-1.75-.27-4.65-.85-10.46-.06-.62-.18-1.72-.73-2.99-.31-.72-.67-1.28-.93-1.69-.36-.56-.91-1.34-1.68-2.17-.46-.5-1.07-1.09-1.82-1.67Z"/><path class="cls-28" d="M20.74,117.56c.36,2.5,1.27,6.45,3.86,10.52,1.46,2.29,3.07,4.02,4.44,5.26-.38,1.74-.65,3.52-1.19,5.23-9.54,30.51-19.65,57.91-27.85,84.83,1.46-8.72,2.76-16.32,3.84-22.51.32-1.82,1.63-9.32,3.38-19.09,1.22-6.8,1.97-10.83,3.15-17.68.75-4.31,1.34-7.86,1.74-10.22,0-.04,0-.1.02-.1.08-.01.23,1.89.81,3.55.24.7.69,1.73,1.57,2.88,2.08-14.22,4.15-28.45,6.23-42.67Z"/><path class="cls-34" d="M29.46,132.57c-2.02,5.5-4.04,11.01-6.06,16.51.54,8.54.93,15.94,1.2,21.89.26,5.75.6,13.34.8,22.65.15,7.1.23,10.65.19,14.62-.03,3.05-.09,5.19.01,5.19.16,0,.52-4.79,1.44-15.88.48-5.7.96-11.4,1.45-17.09.62-7.37.83-9.83,1.11-13.74.3-4.17.5-7.47.64-10.03.29-5.11.17-4.12.35-6.93.46-7.11.93-9,.3-12.44-.38-2.07-.98-3.71-1.43-4.76Z"/><path class="cls-22" d="M5.55,19.19c2.61-1.05,6.14-2.4,8.84-3.26,1.9-.61,4.21-.81,6.1-1.44.16-.05.33-.11.49-.16-.24.19-.47.48-.71.67.44.39.97.95,1.42,1.34-2.21.42-4.49,1.02-6.7,1.44-2.75.52-6.69.89-9.45,1.41Z"/><path class="cls-20" d="M24.59,8.31c-1.58.69-2.54,1.39-3.32,1.86-1.6.96-2.19,1.23-4.46,2.6-.88.53-1.51.92-2.41,1.42-3.85,2.15-7.73,4.28-9.29,5.13,1.49-.11,8.83-.11,10.45.02,7.63.65,7.16.36,11.73,2.36-.38-.51-.57-.72-1.08-1.26-1.19-1.24-.63-.91-3.31-2.73-.56-.38-1.17-.8-1.81-1.26-5.18.91-10.35,1.82-15.53,2.73,5.07-1.64,10.15-3.29,15.22-4.93.13-.12.32-.3.54-.52.2-.2.59-.63,1.31-1.65.3-.43.56-.8.87-1.31.39-.65.65-1.31,1.09-2.47Z"/><path class="cls-35" d="M31.83,20.32c.47.2,2.67.39,3.61.35,1.21-.06,2.8-.03,5.29-1.52,1.17-.7,2.68-3.19,2.86-4.43.13-.95.31-2.3,0-4.78-.08-.63-.46-2.67-1.99-4.17-1.22-1.19-2.58-1.49-3.94-1.8-2.32-.52-4.17-.16-4.73-.03-.76.17-2.08.48-3.43,1.46-1.02.74-1.55,1.49-2.55,2.89-1.21,1.7-1.17,2.22-2.04,3.4-.62.84-1.63,1.94-3.33,2.96.2.28.51.7.95,1.16,1.05,1.1,1.87,1.45,3.13,2.41,1.06.81,1.55,1.08,1.97,1.77.28.46.5.77.49,1.17,0,.18-.05.62-.65,1.25-.84.89-1.88,1.2-1.99,1.23-2.93.91-6.11,9.72-6.11,9.72-1.21,3.37-2.59,8.01-3.51,13.77.74-.35,1.84-.91,3.11-1.73,1.83-1.19,4.74-3.08,6.79-6.58.52-.88.99-2.25,1.92-4.99,1.59-4.69,2.39-7.04,2.45-9.07.04-1.48-1.19-3.4,1-4.18.31-.11.53-.18.7-.26Z"/><path class="cls-22" d="M36.94,7.61c.36.12,1.02.39,1.59,1,.93,1.01.96,2.24.98,2.78.02.54.04,1.37-.47,2.21-.6.99-1.56,1.36-1.94,1.51-.42.16-1.22.47-2.2.23-.65-.16-1.09-.48-1.21-.57-.5-.39-.74-.82-.8-.92-.56-1.03-.25-2.13-.13-2.57.3-1.11.98-1.79,1.35-2.15,1.04-1.01,2.22-1.38,2.84-1.52Z"/><ellipse class="cls-11" cx="37.34" cy="11.81" rx="1.63" ry="1.26" transform="translate(20.31 47.08) rotate(-81.78)"/><path class="cls-2" d="M55.19,31.01c.34.55.68,1.17,1.03,1.86,1.3,2.55,2.37,5.51,3.24,8.36,2.39,7.06,5.04,16.95,5.79,27.09.96,13.01-4.65,22.85-5.16,30.37-.38-1.13-.5-1.53-1.06-2.05-.3-.27-.6-.17-.82-.3-.4-2.43.38-5.05-.02-7.48-.31-.3-.79-.96-1.23-2.49-.24-.82-.43-1.79-.82-4.63-.65-4.76-.83-7.38-.92-7.29-.16.17.28,8.98.38,10.91.06,1.1.1,2.01.14,2.68-.15-.05-.38-.2-.62-.74,0,0-.38-.87-.62-2.84-2.59-12.02-5.05-29.58-5.05-29.58-.34-18.05,2.8-23.7,3.48-25.31.61-1.46,1.51-.17,2.26,1.44Z"/><path class="cls-36" d="M56.88,31.83c.35,5.94.94,13.21,1.94,21.12.91,7.19,1.94,13.13,2.87,17.81-.19.26-.66.78-1.21.39-.42-.31-.72-1.03-.79-1.25-.14-.41-.23-.78-.29-1.02-.52-2.28-.86-6.19-1.06-8.42-.45-5.05-1.08-11.77-1.84-20.17.07-.91.14-2.06.16-3.4.03-2.04.03-3.83-.01-5.32"/><path class="cls-10" d="M56.52,69.42c1.07,5.12,3.57,10.14,4.65,15.27.85,4.07.28,8.24,1.13,12.32-.1-.05-.62-.3-.72-.35-.24-.12-.48-.23-.72-.35-.99-4.03-3.05-8.41-4.04-12.44-.46-4.93.16-9.51-.3-14.44Z"/><path class="cls-6" d="M88.97,131.19c-9.29.02-18.59.51-27.88.53-.41.91-.38,1.22-.02,2.11.3.74.82,1.11,1.34.94v12.98c.05.35.17.95.45,1.54.35.75.76,1.06.96,1.18,3.86,0,7.72.02,11.58.03,3.56,0,7.13.02,10.7.02.18-.07.59-.28.96-.93.43-.75-.2-.75-.16-1.08.02-4.5.66-7.85.67-12.35.09.01.86-1.92,1.31-2.8.41-.8.42-1.12.1-2.19Z"/><polygon class="cls-9" points="62.81 136.34 31.36 153.6 33.04 172.56 62.85 149.25 62.81 136.34"/><path class="cls-3" d="M59.19,160.65c-.65-2.66-2.56-10.88-3.21-13.53-.65-2.66-1.29-5.31-1.94-7.97-.8.3-1.6.6-2.4.91.21-3.1.41-6.19.62-9.29,1.21-.26,2.41-.52,3.62-.78,1.46,2.51,2.91,5.01,4.37,7.52-.82.31-1.64.63-2.46.94,1.36,5.7,3.99,16.96,5.35,22.66-1.32-.15-2.63-.3-3.95-.45Z"/><path class="cls-3" d="M46.88,154.37s-8.39-6.85-8.41-6.87-3.9-3.1-3.92-3.11c-.51.29-1.44.72-2.65.75-1.89.04-3.68-.6-4.41-1.13-.89-.65-1.73-1.92-2.2-3.69-.5-1.88.25-3.47.51-3.97.42.69,1.9,2.96,4.42,3.41.97.17,1.62,0,1.76-.04,2.12-.61,2.79-3.11,2.82-3.24.08-.34.27-1.09.08-1.95-.39-1.76-2.18-3.15-4.48-3.63.61-.32,1.58-.74,2.83-.85.47-.04,2.86-.26,4.7,1.18,1.89,1.47,2.64,4.24,1.94,6.99,4.47,3.85,8.94,7.71,13.4,11.56-3.62.29-2.75,4.32-6.38,4.61Z"/><path class="cls-5" d="M48.46,130.28c-.42.79-.44,1.55-.44,1.9,0,.42-.01.73,0,.8.05.93.07,6.35.06,15.55-1.52.05-3.04-.05-4.56,0-.11-9.59-.12-16.57-.15-18.01,0-.39-.08-1.52.6-2.39.7-.9,1.35-1.42,1.79-1.79,1.89-1.59,14.71-9.16,28.01-18.27.54-.09,1.48-.15,2.19.4.66.5.83,1.28.9,1.6.38,1.74.59,13.59.51,24.13h-3.62c.4-7.26.47-16.73.22-18.08-.05-.25-.16-.87-.66-1.26-.57-.45-1.35-.41-1.62-.32-3.19,1.12-19.81,11.95-21.96,14.08-.15.15-.81.81-1.27,1.67Z"/><rect class="cls-4" x="68.4" y="134.09" width="10.45" height="6.46" rx="3.02" ry="3.02"/><path class="cls-3" d="M61.27,152.92c2.74-4.39,10.95-22.47,13.69-26.86-.3-.23-.73-.62-.99-1.22-.31-.72-.1-1.09-.3-1.94-.08-.35-.34-1.46-1.22-2.08-.75-.53-1.62-.46-2.75-.38-.87.06-1.58.25-2.06.41.31-.7.96-1.89,2.2-2.94,1.81-1.54,3.78-1.83,4.62-1.94,1.84-.24,3.25.11,4.41.41,1.48.39,4.06,1.28,6.78,3.54.03.4.12.99.39,1.64.23.55.44,1.05.87,1.33.7.45,1.83.2,2.85-.53.2,0,2.33,0,3.31,1.57.27.44.39.89.43,1.26-1.19,2.09-2.38,4.18-3.57,6.27-.26.2-.74.49-1.38.54-1.05.08-2.09-.51-2.74-1.52-.05-.37-.15-.92-.43-1.54-.25-.56-.41-.93-.78-1.11-.51-.25-1.06.13-1.73.41-.69.28-1.69.54-3.07.46-1.9,3.22-9.26,20.13-11.17,23.36-2.45.29-4.9.57-7.35.86Z"/><polygon class="cls-8" points="88.24 134.76 61.15 152.63 60.75 172.56 87.38 152.06 88.24 134.76"/><path class="cls-7" d="M63.13,148.53c-11.09.03-22.18.06-33.26.09-.49,1.12-.53,2.71-.1,3.82.35.92.98,1.38,1.6,1.16v16.67c.06.43.21,1.18.54,1.92.42.93.91,1.32,1.14,1.47,4.61.01,9.21.02,13.82.03,4.25.01,8.51.02,12.76.03.22-.09.7-.35,1.14-1.15.52-.93.66-2.02.7-2.43.02-5.58.04-11.15.07-16.73.1.02.87.13,1.41-.96.49-1,.58-2.59.19-3.92Z"/><rect class="cls-10" x="65.29" y="151.23" width="4.46" height="5.88" rx="1.69" ry="1.69"/><rect class="cls-10" x="66.26" y="147" width="19.88" height="3.09" transform="translate(221.34 231.04) rotate(146.77)"/><rect class="cls-10" x="82.08" y="140.29" width="4.46" height="5.88" rx="1.69" ry="1.69"/><path class="cls-37" d="M57.4,89.83l4.73,41.17c.03.23.09.45.19.63.6,1.07,1.19,2.14,1.79,3.21.39.7.99.31.98-.64,0-.29-.01-.59-.02-.91-.1-3.38-.48-5.94-.58-6.68-.52-3.66-.87-8.16-3.53-30.76-.05-.4-.21-.75-.42-.9h0c-.11-.08-.21-.22-.29-.39-.58-1.34-1.16-2.68-1.74-4.02-.09-.21-.21-.37-.35-.44-.18-.09-.33-.2-.44-.3-.17-.15-.33-.33-.37-.25-.02.05,0,.18.04.29Z"/><path class="cls-27" d="M53.69,121.49c-.11.19-.28.47-.49.82-.44.7-.59.88-.8,1.33-.31.66-.23-.12-.27-.14-.15-.07.06-5.65,1.71-29.12.41-.5.81-.99,1.22-1.49.05.17.12.45.17.78.11.76.03,1.34.02,1.46-.09.86-.7,11.49-1.54,26.35Z"/><path class="cls-30" d="M51.56,118.27c.14-2.04.31-4.84.43-8.2.1-2.82.25-7.03.16-12.61-.04-2.58-.14-5.98-.39-10.02-.12.13-.28.34-.44.63-.38.66-.56,1.38-.68,1.94-.37,1.79-.39,3.5-.39,3.5-.02,2-.08,12.15-.09,26.19"/><path class="cls-29" d="M62.02,92.38l-1.04-.17c-.5-.08-.81,1.02-.6,2.13,2.7,13.98,3.52,16.97,6.22,30.95.06.29.14.55.25.75.19.35.38.7.57,1.05.53.97,1.23.16,1.11-1.3,0-.01,0-.03,0-.04,0,0-.14-1.59-.35-3.22-.34-2.51-1.34-7.31-5.44-28.96-.12-.66-.41-1.13-.7-1.18Z"/><path class="cls-31" d="M58.85,102.86c-.14-3.07-.46-4.95-.64-7.59-.19-2.77-.41-5.1-.58-6.82-.03-.28-.12-.52-.24-.67-.12-.14-.25-.33-.39-.57-.23-.39-.39-.78-.74-1.79-.26-.73-.39-1.1-.62-1.82-.59-1.84-.81-2.72-.85-2.68-.05.04.15,1.05.39,2.47.17.97.53,3.44.82,5.53,0,0,.21,1.8.33,4.23.18,3.67.61,10,1,35.8,0,.22.04.43.11.6.44,1.11.89,2.23,1.33,3.34.25.63.75.46.84-.29,0,0,0-.01,0-.02.1-.79.1-1.43.11-1.69.06-7.21,0-9.08,0-9.08-.17-5-.02-3.47-.22-9.78"/><path class="cls-32" d="M56.64,129.07c.18-.65.13-.7.12-.85-.09-1.25-.25-11.8-.72-37.92-.01-.74-.26-1.41-.6-1.62h-.02c-.48-.31-.93.41-.92,1.46.21,14.83.22,21.72.43,36.55,0,.38.07.75.19,1.05"/><path class="cls-38" d="M53.83,127.04c.29-1.15.26-2.2.26-2.42-.01-1.5.49-8.82,1.46-33.44.05-1.34-.15-2.71-.57-3.9,0,0,0-.02,0-.03-.59-1.63-.81-2.11-1.08-3.09-.4-1.44-.42-2.23-.49-2.24-.25-.05-.59,1.04-1.62,40.03-.04,1.55.26,3.12.83,4.39"/><path class="cls-33" d="M49.58,73.45c.65-1.75.96-3.35,1.13-4.48.33-2.23.34-4.39,1.13-6.58.11-.3.2-.53.26-.67.52,5.45,1.05,10.9,1.57,16.35-.09,3.31-.25,7.84-.51,13.18-.22,4.49-.56,11.17-1.32,19.72-.35,3.95.03,5.31-.71,11.29-.11-.34-.9-.14-1.04-.77-.32-1.44-.43-2.76-.49-3.77-.18-3.18,0-5.85,0-5.85.22-3.11,1.1-15.82,2.75-37.59-.16,1.46-.43,3.98-.6,5.5-.65,5.96-.79,7.29-1.04,9.41-.4,3.35-.59,5.02-.85,6.7-.54,3.57-1.14,6.35-1.59,8.21-.02-.26-.05-.65-.1-1.11-.1-.89-.22-1.51-.24-1.58-.32-1.78,1.24-13.67,1.49-15.77.32-2.68.58-6.72.15-12.21Z"/></g></svg>