<?xml version="1.0" encoding="UTF-8"?><svg id="Layer_2" xmlns="http://www.w3.org/2000/svg" xmlns:xlink="http://www.w3.org/1999/xlink" viewBox="0 0 934.63 749.78"><defs><style>.cls-1{fill:#231f20;}.cls-2{fill:url(#radial-gradient-12);}.cls-2,.cls-3,.cls-4,.cls-5,.cls-6,.cls-7,.cls-8,.cls-9,.cls-10,.cls-11,.cls-12,.cls-13,.cls-14,.cls-15,.cls-16,.cls-17,.cls-18,.cls-19{stroke:#231f20;stroke-miterlimit:10;}.cls-2,.cls-3,.cls-4,.cls-6,.cls-7,.cls-8,.cls-9,.cls-10,.cls-11,.cls-12,.cls-13,.cls-14,.cls-18{stroke-width:8px;}.cls-3{fill:url(#radial-gradient-13);}.cls-4{fill:url(#radial-gradient-10);}.cls-5{fill:url(#radial-gradient-11);}.cls-5,.cls-17{stroke-width:6px;}.cls-20{fill:#fff;}.cls-6{fill:url(#radial-gradient-4);}.cls-7{fill:url(#radial-gradient-7);}.cls-8{fill:url(#radial-gradient-6);}.cls-9{fill:url(#radial-gradient-5);}.cls-10{fill:url(#radial-gradient-2);}.cls-11{fill:url(#radial-gradient-3);}.cls-12{fill:url(#radial-gradient-8);}.cls-13{fill:url(#radial-gradient-9);}.cls-14{fill:url(#radial-gradient);}.cls-15{fill:#be4c3d;stroke-width:3px;}.cls-16{fill:#f5f3b5;}.cls-16,.cls-19{stroke-width:7px;}.cls-17,.cls-18,.cls-19{fill:none;}.cls-21{fill:#eee;}</style><radialGradient id="radial-gradient" cx="146.65" cy="580.26" fx="146.65" fy="580.26" r="35.23" gradientTransform="translate(0 -3.04) scale(1 .92)" gradientUnits="userSpaceOnUse"><stop offset=".04" stop-color="#878284"/><stop offset=".91" stop-color="#cc2728"/><stop offset=".96" stop-color="#ce2027"/></radialGradient><radialGradient id="radial-gradient-2" cx="99.64" cy="532.7" fx="99.64" fy="532.7" r="34.63" xlink:href="#radial-gradient"/><radialGradient id="radial-gradient-3" cx="107.66" cy="448.37" fx="107.66" fy="448.37" r="83.12" xlink:href="#radial-gradient"/><radialGradient id="radial-gradient-4" cx="119.62" cy="266.66" fx="119.62" fy="266.66" r="43.63" xlink:href="#radial-gradient"/><radialGradient id="radial-gradient-5" cx="164.49" cy="211.45" fx="164.49" fy="211.45" r="34.48" xlink:href="#radial-gradient"/><radialGradient id="radial-gradient-6" cx="208.66" cy="158.68" fx="208.66" fy="158.68" r="31.04" xlink:href="#radial-gradient"/><radialGradient id="radial-gradient-7" cx="275.31" cy="130.9" fx="275.31" fy="130.9" r="37.2" xlink:href="#radial-gradient"/><radialGradient id="radial-gradient-8" cx="402.26" cy="74" fx="402.26" fy="74" r="39.27" xlink:href="#radial-gradient"/><radialGradient id="radial-gradient-9" cx="573.03" cy="63.05" fx="573.03" fy="63.05" r="40.79" xlink:href="#radial-gradient"/><radialGradient id="radial-gradient-10" cx="708.66" cy="608.67" fx="708.66" fy="608.67" r="98.84" gradientTransform="translate(0 -3.04) scale(1 .92)" gradientUnits="userSpaceOnUse"><stop offset="0" stop-color="#2fc1d9"/><stop offset=".22" stop-color="#49adbe"/><stop offset=".55" stop-color="#6b959e"/><stop offset=".82" stop-color="#7f878b"/><stop offset="1" stop-color="#878284"/></radialGradient><radialGradient id="radial-gradient-11" cx="769.86" cy="224.42" fx="769.86" fy="224.42" r="43.55" xlink:href="#radial-gradient-10"/><radialGradient id="radial-gradient-12" cx="368.65" cy="217.18" fx="368.65" fy="217.18" r="278.91" gradientTransform="translate(0 -3.04) scale(1 .92)" gradientUnits="userSpaceOnUse"><stop offset="0" stop-color="#878284"/><stop offset=".4" stop-color="#865889"/><stop offset=".79" stop-color="#85358d"/><stop offset="1" stop-color="#85288f"/></radialGradient><radialGradient id="radial-gradient-13" cx="474.86" cy="397.53" fx="474.86" fy="397.53" r="375.03" gradientTransform="translate(0 -3.04) scale(1 .92)" gradientUnits="userSpaceOnUse"><stop offset="0" stop-color="#878284"/><stop offset=".46" stop-color="#858385"/><stop offset=".63" stop-color="#7e888c"/><stop offset=".75" stop-color="#729097"/><stop offset=".84" stop-color="#619ca8"/><stop offset=".92" stop-color="#4bacbd"/><stop offset=".99" stop-color="#31bfd6"/><stop offset="1" stop-color="#2fc1d9"/></radialGradient></defs><g id="Layer_1-2"><path class="cls-14" d="M124.73,548.29c-1.66.24-6.23.98-12.35.62-4.53-.27-8.19-1.04-10.56-1.65.22-1.56.9-4.69,3.37-7.84,2.29-2.92,5.03-4.38,6.06-4.95,13.35-7.31,21.22-17.55,35.71-21.98,17.06-5.22,41-1.67,44.14,7.19,3.42,9.67-16.66,29.3-35.76,30.28-9.32.48-17.8-3.51-30.61-1.66Z"/><path class="cls-10" d="M70.65,495.65c-1.18-.22-4.9-.84-9.14-2.98-2.67-1.35-4.64-2.85-5.89-3.92.86-1.73,2.45-4.36,5.28-6.9,2.46-2.2,4.95-3.52,6.7-4.29,4.03-2.41,30.13-17.49,55.34-7.67,8.09,3.16,21.6,11.03,20.67,18.99-1.23,10.55-27.75,20.89-46.37,15.91-7.51-2.01-17.06-7.4-26.59-9.14Z"/><path class="cls-11" d="M79.43,440.81c-10.34-1.7-18.89-3.49-25.11-4.91-24.96-5.69-34.47-10.32-39.76-13.24-3.39-1.87-6.03-3.58-7.67-4.7,6.05-4.53,11.6-7.96,16.04-10.47,7.27-4.1,12.7-6.36,16.97-8.12,6.67-2.75,9.77-3.52,13.02-3.84,4.18-.42,7.68,0,10,.43-3.66-1-7.56-2.25-11.62-3.84-10.96-4.3-19.59-9.68-26.04-14.52,4.06-2.23,8.71-4.44,13.95-6.41,16.42-6.15,31.6-7.25,42.31-7.05,12.36-4.28,30.41-9.15,52.59-10.25,20.66-1.02,61.91-3.07,72.07,15.4,10.81,19.66-20.24,50.55-31.85,62.1-14.96,14.88-37.67,37.48-63.69,32.33-16.67-3.29-26.89-16.42-31.21-22.91Z"/><path class="cls-6" d="M76.33,248.38c-1.32-1.11-3.05-2.6-4.82-4.95-3.66-4.86-4.83-9.89-5.25-13.29,4-.01,8.31.14,12.91.52,7.35.62,13.96,1.72,19.71,3-1.01-.92-2.03-1.99-2.98-3.26-4.68-6.25-4.68-13.16-4.4-16.55,2.29-.24,4.86-.4,7.66-.39,3.79.02,7.17.34,10.07.78,5.53-.82,17.12-1.78,29.91,3.12,15.82,6.06,23.3,17.21,27.93,24.12,4.28,6.38,6.82,10.16,5.59,14.37-2.52,8.61-18.55,11.21-28.49,12.83-7.22,1.17-32.14,5.23-49.72-5.65-2.93-1.81-7.99-6.1-18.11-14.66Z"/><path class="cls-9" d="M139.57,184.02c-1.98-2.09-3.33-2.78-5.47-5.63-4.51-6.01-5.66-12.49-5.91-17.08,1.17,0,2.79,0,4.7.1,3.07.16,7.07.37,11.81,1.51,2.42.58,5.65,1.54,9.3,3.22,17.35-3.83,34.46,2.51,42.12,14.79,6.04,9.69,7.13,24.57-2.23,33.36-12.71,11.93-38.28,6.65-45.25-3.59-5.07-7.44-.13-17.24-9.07-26.67Z"/><path class="cls-8" d="M182.56,134.97c-.67-.9-2.34-3.1-3.76-6.39-2.25-5.24-2.48-10.06-2.35-13.21,2.26.03,5.37.19,9.02.78,6.96,1.12,12,3.18,14.94,4.4,2.49,1.04,5.72,2.53,9.3,4.66,22.47,13.84,34.51,29.47,30.38,37.39-4.37,8.39-28.17,10.7-39.51,1.9-7.87-6.11-8.3-16.48-18.03-29.53Z"/><path class="cls-7" d="M247.46,95.24c-.28-.82-1.19-3.36-1.77-6.94-.72-4.52-.51-8.29-.24-10.71,1.53.12,3.79.39,6.43,1.11,1.62.44,5.1,1.52,12.94,6.43,3.82,2.39,5.71,3.61,9.08,6.2,15.28,11.75,22.92,17.62,26.98,25.15,7.01,13,6.03,33.55-3.96,38.85-14.29,7.57-50.05-14.44-50.22-32.78-.06-6.18,3.87-18.08.76-27.3Z"/><path class="cls-12" d="M371.93,54.95c-.53-2.19-1.5-6.12-2-11.52-.76-8.26.05-15.14.89-19.78,2.91.71,6.95,1.93,11.43,4.08,5.37,2.57,8.94,5.31,12.1,7.75,0,0,5.59,4.35,10.32,9.48,7.12,7.74,38,41.27,28.38,54.51-7.51,10.34-40.15,8.9-51.54-4.86-4.74-5.72-2.17-9.19-9.57-39.67Z"/><path class="cls-13" d="M550.08,33.77c-.03-1.86-.24-4.27.23-7.93.83-6.59,3.16-11.77,5-15.13,2.45,1.63,5.64,3.93,9.08,6.99,7.75,6.88,11.98,13.31,12.94,14.81,3.54,5.49,4.16,8.31,6.47,13.14,8.77,18.35,19.98,19.48,21.03,29.53.97,9.35-7.47,20.25-17.18,23.07-20.16,5.85-49.57-22.09-46.25-38.85,1.4-7.07,8.86-13.35,8.68-25.64Z"/><path class="cls-4" d="M731.52,601.01c20.82,4.62,41.65,9.25,62.47,13.87,11.84-10.24,23.68-20.48,35.52-30.73,5.21-3.37,3.87-9.02.06-11.78-3.92-2.85-9.01-3.79-15.27-7.63-5.81-3.57-12.97-7.11-22.35-12.06-17.89-9.44-38.81-19.05-40.27-38.76-5.05-5.17-8.2-8.52-10.7-10.88,0,0-3.39-2.77-6.81-4.93-11.39-7.21-141.27,40.98-149.48,68.71-6.65,22.45,87.94,20.07,146.82,34.2Z"/><path class="cls-15" d="M870.59,556.55c-.22-.54-1.7-.15-2-.59-.63-.91,4.31-4.66,8.46-8.08,5.85-4.82,8.78-7.23,11.28-9.86,3.4-3.58,5.6-6.68,7.27-6.16.78.25,1.15,1.19,1.24,1.78.3,1.87-1.68,3.45-4.04,5.46-1.86,1.58-4.5,3.87-7.69,6.83,2.88-2.19,10.75-8.14,15.03-10.92,1.02-.66,2.97-1.88,3.65-1.37.32.24.24.8.21,1.05-.23,1.63-1.89,2.71-2.27,2.96-3.12,2.05-5.65,4.82-8.81,6.82-2.14,1.36-8.34,5.28-13.56,10.76-1.28,1.34-3.17,2.75-6.97,5.57-1.14.84-2.96,2.17-3.8,1.67-.33-.2-.39-.62-.44-.97-.21-1.48.95-2.89,1.57-3.65.59-.71.97-1,.85-1.3Z"/><path class="cls-15" d="M884.84,586.15c-.08-1.21,2.29-2.29,4.17-3.16,2.76-1.26,5.09-1.44,11.29-1.41,8.37.04,12.56.06,14.66-.05,4.55-.23,5.6-.55,9.46-.48,3.24.06,8.01.38,8.01.38.32.33.83.94.67,1.53-.21.75-1.4,1.07-2.6,1.3-3.67.7-6.69.42-9.45.37-1.35-.03-3.28-.01-5.64.2,1.85.45,3.88.86,6.08,1.19,4.85.73,7.31.87,8.33.75.71-.08,2.13-.3,2.76.4.3.33.41.87.21,1.26-.5.99-2.88.88-3.77.84-12.86-.52-43.89,1.19-44.19-3.12Z"/><path class="cls-15" d="M883.64,615.88c.04-.17-1.74-.35-2.81-1.6-.44-.51-1.01-1.48-.67-2.07.53-.9,3.03-.55,5.29-.14,5.87,1.05,8.93,2.23,13.79,3.5,2.72.71,5.07,1.2,9.77,2.16,2.34.48,5.61-.22,6.7,1.31.07.11.53.75.27,1.18-.33.56-1.64.45-2.3.38-4.37-.46-19.65-3.16-19.7-3.04-.03.07,4.25,1.52,4.25,1.52,4.28,1.45,3.69,1.36,8.25,2.93,2.86.98,5.53,2.44,8.47,3.18.42.1,2.03.5,3.13,1.78.13.16,1.1,1.29.69,1.84-.37.5-2.19.04-2.42-.02-8.13-2.1-38.36-6.59-37.86-11.07.03-.31.26-.99.85-1.45,1.47-1.14,4.26-.18,4.31-.4Z"/><path class="cls-15" d="M866.03,636.12c.44-.3-.11-1.15.25-1.7.31-.48,1.17-.49,1.48-.5,2.56-.04,6.74,5.6,7.47,6.57,2.72,3.63,6.46,6.51,9.66,9.79,3.21,3.3,6.66,5.59,6.16,6.28-.12.17-.44.21-1.02.12-4.93-.73-11.8-8.48-12.1-8.28-.09.06.21.93,2.53,3.87,3.76,4.77,5.97,6.29,7.74,10.09.41.88,1.51,3.27.69,3.87-.28.21-.7.13-.85.1-3.81-.7-24.85-25.77-24.35-28.73.04-.26.19-1.08.72-1.26.25-.08.52-.01,1.25-.14.2-.04.31-.06.35-.09Z"/><path class="cls-16" d="M574.71,626.58c.61-2.01,2.04-6.17,4.61-9.72,1.1-1.52,2.07-2.46,3.15-3.21.69-.48,1.98-1.39,3.78-1.82,0,0,2.24-.53,4.88.11,57.12,13.88,127.2,59.04,127.2,59.04.52.23.91.51,1.21.78,2.44,2.22,1.12,6.32.99,6.73-2.29,6.14-4.93,12.52-8,19.09-9.59,20.53-10.82,25.62-26.46,44.56-.16.19-.57.94-1.41,1.68-1.53,1.35-3.31,1.75-4.27,1.98-6.14,1.41-12.24-.78-12.24-.78-62.07-21.01-91.76-38.46-91.76-38.46-17.33-10.69-29.91-18.47-31.88-19.66-.2-.12-.81-.48-1.18-1.17-.86-1.57.22-3.55.53-4.15,1.45-2.75,7.04-15.02,14.78-31.96"/><path class="cls-16" d="M588.06,620.2c18.08,34,31.27,58.65,34.05,64.43.5,1.04,1.95,4.13,5.47,6.19,0,0,3.09,1.8,7.57,2,6.87.31,37.2-5.75,77.9-15.71"/><path class="cls-16" d="M660.08,697.54c5.87,14.24,11.74,28.49,17.62,42.73"/><path class="cls-16" d="M603.12,669.69c-17.06,4.73-34.12,9.45-51.19,14.18"/><path class="cls-5" d="M800.86,249.3c2.56-11.65,3.62-21.62,4.08-29.13.73-12.01,1.07-18.94-1.64-32.35-2.83-13.97-6.76-18.68-7.98-20.05-1.8-2.04-7.28-8.06-16.9-10.13-12.83-2.77-24.9,3.66-26.67,4.79-4.33,3.51-16.81,14.59-17.44,30.7-.82,20.85,18.79,34.76,27.73,41.09,14.9,10.57,30.35,13.88,38.83,15.08Z"/><path class="cls-2" d="M675.83,97.74c-2.84-8.36-7.26-18.74-14.29-29.85-6.33-10.01-13.12-17.99-19.06-24.07-2.44,2.49-5.72,6.54-7.66,12.19-.72,2.09-1.13,4.05-1.36,5.78-3.84-11.14-10.95-26.01-24.67-39.86-3.4-3.43-6.84-6.44-10.21-9.07-1.71,2.24-4.03,5.62-6.12,10-3.21,6.73-4.33,12.58-5.1,18.13-2.31,16.61-2.05,34.22-1.87,40.95-6.35-9.52-14.03-19.78-23.31-30.32-15.75-17.89-31.9-31.79-46.11-42.36-1.67,5.48-3.17,11.88-4.08,19.07-1.41,11.16-.98,20.96,0,28.76-2.1-4.88-4.9-10.14-8.68-15.47-15.6-22.06-38.41-32.21-50.7-36.57-.99,2.47-2.4,6.36-3.57,11.25-.59,2.45-1.64,7.37-2.55,22.04-.24,3.81-.51,9.1-.68,15.47-4.17-3.98-10.37-9.03-18.86-13.46-6.98-3.65-13.49-5.82-18.64-7.15-.71,8.67-1,18.31-.54,28.76.34,7.78,1.05,15.06,1.99,21.78-7.99-6.89-17.99-14.38-30.22-21.45-23.44-13.54-45.85-20.17-62.25-23.61-.54,3.75-.93,7.75-1.09,11.97-.57,15.11,1.93,28.22,5.07,38.57-1.46-4.34-3.95-9.68-8.32-14.96-13.55-16.37-34.56-19.33-40.17-19.95-.52,4.13-.8,8.57-.72,13.3.36,21.02,7.78,37.99,14.3,49.21-9.36-5.63-20.76-11.64-34.2-17.12-15.45-6.3-29.74-10.33-41.8-12.97-.68,4.79-1.09,10.02-1.09,15.63.03,19.06,5,34.9,9.95,46.21-10.25-3.69-22.3-7.36-36.01-10.31-14.74-3.17-28.21-4.83-39.81-5.65,1.61,4.75,3.99,11.41,7.24,19.28,3.81,9.24,5.71,13.85,8.87,18.95,3.19,5.15,8.62,12.42,17.92,19.78-7.05-1.11-14.41-2.07-22.08-2.83-23.23-2.31-44.59-2.33-63.52-1.16,4.01,6.7,8.84,13.88,14.66,21.28,3.27,4.16,14.14,17.65,31.85,32.58,5.7,4.81,13.47,10.91,23.27,17.39-3.97-1.74-8.12-3.32-12.48-4.71-45.49-14.49-90.27-.61-115.38,9.89,2.19,3.24,5.47,7.77,9.91,12.88,8.97,10.3,17.49,16.96,24.61,22.45,4.79,3.7,11.32,8.44,19.49,13.5-4.44-.9-9.48-1.65-15.04-2.04-10.19-.71-19.09,0-26.15,1.1,1.19,2.84,2.78,5.99,4.96,9.26,5.4,8.14,12.01,13.51,16.92,16.8,116.36,61.59,185.75,56.5,227.77,40.09,58.39-22.8,63.63-67.33,181.37-143.63,59.84-38.78,88.53-46.75,115.7-47.4,53.51-1.28,86.55,26.18,103.19,12.93,9.76-7.77,14.56-30.09-20.63-101.29Z"/><path class="cls-3" d="M902.28,467.8c-8.23-4.74-20.05-12.97-29.46-26.3-7.02-9.95-9.89-18.77-12.86-28.59-9.16-30.24-13.2-49.79-16.6-62.89-6.02-23.26-13.29-38.86-25.72-65.56-16.72-35.91-25.08-53.86-37.76-67.09-3.51-3.66-10.98-10.99-17.84-22.87-8.03-13.91-10.47-25.82-11.2-28.97-3.46-14.83-17.21-41.14-62.24-91.48-1.81,2.78-4.21,6.91-6.22,12.2-3.79,9.93-4.02,18.16-4.15,22.49-.41,14.13-1.04,35.8-1.24,62.89-1.55-8.02-4.52-17.86-10.37-28.21-16.57-29.31-44.91-42.6-56.43-47.26l-3.32,46.88c-7.14-9.16-18.23-21.31-34.44-32.78-14.8-10.47-29.02-16.95-39.83-20.96-1.01,6.46-1.63,14.04-1.24,22.49.77,17.09,5.32,31.05,9.54,40.78-2.34-7.95-6.31-17.6-13.28-27.44-20.89-29.5-53.75-39.63-65.56-42.69-.89,5.7-1.51,11.95-1.66,18.68-.39,17.31,2.43,32.22,5.81,43.83-12.38-7.53-28.02-15.72-46.89-22.87-14.97-5.67-28.91-9.53-41.08-12.2.28,5.29.92,11.04,2.07,17.15,2.97,15.68,8.41,28.64,13.69,38.5-6.19-5.53-13.88-11.49-23.24-17.15-19.94-12.05-39.24-17.73-53.11-20.58.33,4.88,1.07,10.27,2.49,16.01,4.53,18.38,13.84,32.08,21.16,40.78-11.89-1.08-24.21-1.98-36.93-2.67-9.77-.53-19.32-.9-28.63-1.14-.06,4.52.37,10.77,2.49,17.91,2.15,7.24,5.3,12.89,7.88,16.77-1.99-3.45-5.56-8.67-11.62-13.34-9.13-7.04-18.95-9.02-35.68-12.2-6.19-1.18-14.98-2.59-25.72-3.43,1.85,5.79,4.59,12.44,8.71,19.44,9.87,16.74,22.96,27.44,31.95,33.54-10.4-3.03-23.26-5.96-38.17-7.62-13.83-1.55-26.19-1.65-36.51-1.14,2.31,4.46,5.17,9.22,8.71,14.1,10.67,14.7,23.28,24.56,33.19,30.87-10.95-2.17-25.61-3.91-42.74-2.67-31.83,2.31-55.47,13.69-68.05,20.96,3.45,3.6,7.56,7.37,12.45,11.05,15.14,11.4,30.85,16.77,41.91,19.44-10.09-.18-21.22.21-33.19,1.52-30.48,3.36-55.48,11.58-73.85,19.44,6.67,5,14.26,10.05,22.82,14.87,28.96,16.28,57.29,23.2,78.42,26.3-10.71,1.93-22.77,4.81-35.68,9.15-22.94,7.71-41.21,17.57-54.77,26.3,6.89,3.71,14.84,7.53,23.86,11.09,10.97,4.33,21.23,7.38,30.25,9.56-6.36-1.9-15.81-3.83-27.11-2.89-27.03,2.24-43.84,19.16-48.16,23.79,1.54,1.55,4.2,4.02,7.99,6.45,10.1,6.48,20.69,7.85,33.16,9.34,3.97.47,9.79,1.02,16.94,1.11-6.73,2.07-15.01,5.3-23.72,10.45-14.49,8.57-23.82,18.71-29.28,25.79,3.72,1.58,8.91,3.67,15.25,5.78,15.52,5.18,27.83,7.2,38.48,8.89,10.96,1.75,25.13,3.44,41.87,4-5.54,2.85-13.28,7.59-20.81,15.12-7.23,7.22-11.64,14.39-14.28,19.57,6.11,1.68,12.91,3.22,20.33,4.45,10.18,1.68,20.95,3.45,34.61,2.67,6.17-.35,14.77-1.33,24.87-4.09,8.65,10.29,18.64,21.14,30.14,32.17,18.85,18.07,37.58,32.61,54.55,44.19,19.09-.15,38.18-.3,57.28-.46.55-1.67,1.06-4.09.5-6.83-.5-2.41-1.56-3.72-2.73-5.92-1.83-3.45-2.45-6.27-3.22-9.79-.83-3.79-.85-8.24-.5-15.26.14-2.8.7-29.78,7.56-36.78,15.16,6.49,38.34,17.83,55.19,21.37,35.49,7.46,50.96,5.66,79.3,3.64,4.98,4.95,11.91,21.7,16.52,27.82,8.23,10.91,20.66,16.25,30.2,22.42,20.41.19,40.82.38,61.22.57.95-.48,2.2-1.3,2.9-2.66,1.2-2.35.03-4.93-1.86-8.93-1.8-3.81-2.88-4-4.14-7.03-1.07-2.57-1.32-4.72-1.54-7.18-.65-7.55-.61-27.7-.54-31.85,11.48-1.36,23.76-3.44,36.64-6.49,44.75-10.6,79.47-16.34,103.89-32.49,17.56-.58,38.35-2.46,61.31-6.97,32.24-6.33,55.31-14.64,70.5-21.15,47.65-20.45,53.77-37.04,55.14-41.38,2.08-6.58,1.9-12.46,1.44-16.33Z"/><path class="cls-17" d="M675.99,253.86c-3.94-5.12-20.1-24.87-50.21-31.14-11.82-2.46-32.69-7.65-48.96,3.46-19.01,12.98-17.48,38.15-17.16,43.44,2.12,34.8,36.53,54.77,41.01,57.28"/><path class="cls-17" d="M641.26,271.54c-3.2-4.08-11.33-13.17-25.11-16.53-5.42-1.32-15.58-3.8-23.43,1.54-7.56,5.14-8.21,14.28-8.37,16.53-1.29,18.23,19.42,30.65,20.92,31.52"/><path class="cls-1" d="M747.38,406.37c-7.81.95-15.69,5.4-19.75,12.83-.79,1.45-5.88,11.16-.17,20.81,4.58,7.74,13.69,11.36,21.8,11.26,9.76-.11,19-5.5,22.82-13.77,5.33-11.52-1.57-24.93-11.69-29.5-5.48-2.48-10.84-1.89-13.01-1.63Z"/><path class="cls-1" d="M878.71,455.19c-3.27,3.93-3.32,8.38-3.34,10.41-.08,7.86,4.69,13.57,8.17,17.75,2.41,2.88,6.63,7.21,13.35,11.03,4.15-3.34,7.57-6.29,10.17-8.58,7.7-6.8,9.52-9.13,10.9-11.63,1.26-2.29,2.76-4.98,2.91-8.77.05-1.31.26-6.75-3.89-11.04-2.37-2.45-5.04-3.37-7.79-4.32-8-2.76-15.19-1.53-17.52-1.04-4.28.89-9.43,1.96-12.96,6.2Z"/><path class="cls-20" d="M754.38,417.46c-3.95.62-5.55,4.01-5.77,4.5-1.01,2.25-1.06,5.49,1.2,7.7,1.84,1.8,4.26,1.97,4.79,2,4.15.21,6.62-3.03,6.75-3.2,2-2.72,1.98-6.88-.76-9.3-2.53-2.22-5.97-1.73-6.2-1.7Z"/><path class="cls-21" d="M907.25,450.55c-3.71.34-5.22,2.19-5.42,2.45-.95,1.23-.99,3,1.13,4.2,1.73.98,4.01,1.08,4.5,1.09,3.9.11,6.23-1.65,6.35-1.74,1.88-1.48,1.86-3.75-.72-5.07-2.38-1.21-5.62-.95-5.83-.93Z"/><path class="cls-18" d="M712.88,553.68c-10.54.72-25.41.71-41.95-2.82-4.76-1.02-9.08-2.2-12.94-3.44"/><path class="cls-19" d="M352.37,549.91c-3.4,3.09-7.72,7.59-11.7,13.58-3.87,5.82-6.23,11.25-7.67,15.33"/><path class="cls-19" d="M451.82,562.33c2.4,4.87,4.9,9.82,7.52,14.83,4.23,8.08,8.52,15.88,12.84,23.4"/><path class="cls-19" d="M572.87,605.23c-.56-6.85-.59-15.18.75-24.54,2.06-14.41,6.64-26.07,10.75-34.34"/></g></svg>