<svg xmlns="http://www.w3.org/2000/svg" xmlns:xlink="http://www.w3.org/1999/xlink" width="593" height="361" viewBox="0 0 593 361">
  <defs>
    <linearGradient id="linear-gradient" x1="0.5" x2="0.5" y2="1" gradientUnits="objectBoundingBox">
      <stop offset="0" stop-color="#ced1d6"/>
      <stop offset="1" stop-color="#88898b"/>
    </linearGradient>
    <linearGradient id="linear-gradient-2" x1="-0.145" y1="0.5" x2="1.156" y2="0.5" gradientUnits="objectBoundingBox">
      <stop offset="0" stop-color="#00345b"/>
      <stop offset="0.024" stop-color="#063659"/>
      <stop offset="0.137" stop-color="#204055"/>
      <stop offset="0.254" stop-color="#334852"/>
      <stop offset="0.373" stop-color="#3f4c50"/>
      <stop offset="0.5" stop-color="#434e50"/>
      <stop offset="1" stop-color="#6c0e1f"/>
    </linearGradient>
    <linearGradient id="linear-gradient-3" x1="-0.209" y1="0.5" x2="1.205" y2="0.5" gradientUnits="objectBoundingBox">
      <stop offset="0" stop-color="#aa6b1d"/>
      <stop offset="0.065" stop-color="#895622"/>
      <stop offset="0.148" stop-color="#674029"/>
      <stop offset="0.232" stop-color="#4d2f2d"/>
      <stop offset="0.318" stop-color="#3a2331"/>
      <stop offset="0.406" stop-color="#2e1c33"/>
      <stop offset="0.5" stop-color="#2b1a34"/>
      <stop offset="1" stop-color="#253f3b"/>
    </linearGradient>
  </defs>
  <g id="Group_16" data-name="Group 16" transform="translate(592.5 0.5) rotate(90)">
    <g id="Group_5" data-name="Group 5">
      <rect id="Rectangle_1" data-name="Rectangle 1" width="360" height="592" rx="73" stroke="#707070" stroke-width="1" fill="url(#linear-gradient)"/>
      <path id="Path_1" data-name="Path 1" d="M281.5,5.5h0Z" fill="none" stroke="#707070" stroke-width="1"/>
      <path id="Path_2" data-name="Path 2" d="M265.584,138.756c13.355.584,25.448.812,36.049.837,1.311,0,2.555,0,3.742-.01-11.677-.05-24.975-.32-39.707-1C265.642,138.64,265.611,138.7,265.584,138.756Z" transform="translate(0 89.741)" fill="none" stroke="#707070" stroke-width="1"/>
      <rect id="Rectangle_2" data-name="Rectangle 2" width="7.869" height="89.278" transform="translate(346.63 168.63)" fill="none" stroke="#707070" stroke-width="1"/>
      <path id="Path_3" data-name="Path 3" d="M192.664,142.18A44.16,44.16,0,0,1,180,140.348,40.489,40.489,0,0,0,192.664,142.18Z" transform="translate(0 91.092)" fill="none" stroke="#707070" stroke-width="1"/>
      <path id="Path_4" data-name="Path 4" d="M213.2,146.9a41.556,41.556,0,0,1-5.313-7.231c-.357.119-.713.221-1.07.331a41.32,41.32,0,0,0,4.885,6.9c2.854,3.258,7.654,8.806,15.667,10.8a25.518,25.518,0,0,0,7.437.718,27.784,27.784,0,0,1-5.2-.718C221.218,155.705,216.192,150.157,213.2,146.9Z" transform="translate(0 95.152)" fill="none" stroke="#707070" stroke-width="1"/>
      <path id="Path_5" data-name="Path 5" d="M5.5,296.188h7.87V104.749H5.5V296.188Z" transform="translate(0 0)" fill="none" stroke="#707070" stroke-width="1"/>
      <g id="Group_4" data-name="Group 4" transform="translate(18.181 18.18)">
        <path id="Path_6" data-name="Path 6" d="M322.413,90.722h-8.221c.46.679.908,1.4,1.333,2.163a31.476,31.476,0,0,1,3.13,20.995c-.48,2.388-2.682,11.864-10.732,17.73-5.9,4.3-11.92,4.455-21.91,4.433-.607,0-1.239-.006-1.857-.009-1.1.011-2.254.012-3.47.009-9.831-.023-21.045-.235-33.429-.776a33.537,33.537,0,0,1-4.584,7.07,30.372,30.372,0,0,1-12.461,9.182,28.163,28.163,0,0,1-11.492,1.977,23.663,23.663,0,0,1-6.9-.666c-7.431-1.845-11.882-6.99-14.529-10.012a38.317,38.317,0,0,1-4.53-6.4,44.36,44.36,0,0,1-13.128,2.023,37.547,37.547,0,0,1-11.745-1.7c-10.28-3.081-18.279-10.072-21.243-18.749-2.856-8.361-1.3-19.083,4.748-27.271H13.37v82.79H322.413Z" transform="translate(-6.072 64.556)" fill="#999" stroke="#707070" stroke-width="1"/>
        <path id="Path_7" data-name="Path 7" d="M12.8,84.529H150.823a29.6,29.6,0,0,1,4.11-4.537c9.061-8.07,20.057-7.778,22.548-7.651a26.743,26.743,0,0,1-.121-4.208,26.408,26.408,0,0,1,1.248-6.869,23.258,23.258,0,0,1,18.526-16.028,27.71,27.71,0,0,1,13.53.624,37,37,0,0,1,4.224-8.992,38.863,38.863,0,0,1,6.321-7.412,40.566,40.566,0,0,1,14.044-8.427A38.84,38.84,0,0,1,253.9,19.684a43.718,43.718,0,0,1,21.351,9.685,42.243,42.243,0,0,1,14.527,23.991,41.118,41.118,0,0,1-.66,18.489,28.709,28.709,0,0,1,24.5,12.679h15.518V73.2A67.894,67.894,0,0,0,261.448,5.5H73.19A67.894,67.894,0,0,0,5.5,73.162V84.529Z" transform="translate(-5.5 -5.5)" fill="#999" stroke="#707070" stroke-width="1"/>
        <path id="Path_8" data-name="Path 8" d="M12.8,84.529H150.823a29.6,29.6,0,0,1,4.11-4.537c9.061-8.07,20.057-7.778,22.548-7.651a26.743,26.743,0,0,1-.121-4.208,26.408,26.408,0,0,1,1.248-6.869,23.258,23.258,0,0,1,18.526-16.028,27.71,27.71,0,0,1,13.53.624,37,37,0,0,1,4.224-8.992,38.863,38.863,0,0,1,6.321-7.412,40.566,40.566,0,0,1,14.044-8.427A38.84,38.84,0,0,1,253.9,19.684a43.718,43.718,0,0,1,21.351,9.685,42.243,42.243,0,0,1,14.527,23.991,41.118,41.118,0,0,1-.66,18.489,28.709,28.709,0,0,1,24.5,12.679h15.518V73.2A67.894,67.894,0,0,0,261.448,5.5H73.19A67.894,67.894,0,0,0,5.5,73.162V84.529Z" transform="translate(-5.5 -5.5)" stroke="#707070" stroke-width="1" fill="url(#linear-gradient-2)"/>
        <path id="Path_9" data-name="Path 9" d="M12.8,180H5.5v94.158A67.894,67.894,0,0,0,73.194,341.82H261.443a67.894,67.894,0,0,0,67.7-67.7V180H12.8Z" transform="translate(-5.5 214.196)" fill="#999" stroke="#707070" stroke-width="1"/>
        <path id="Path_10" data-name="Path 10" d="M12.8,180H5.5v94.158A67.894,67.894,0,0,0,73.194,341.82H261.443a67.894,67.894,0,0,0,67.7-67.7V180H12.8Z" transform="translate(-5.5 214.196)" stroke="#707070" stroke-width="1" fill="url(#linear-gradient-3)"/>
        <path id="Path_11" data-name="Path 11" d="M156.982,112.868c2.965,8.677,10.963,15.668,21.243,18.749a40.951,40.951,0,0,0,11.745,1.7,44.36,44.36,0,0,0,13.128-2.023c.331-.1.661-.2.992-.307a38.537,38.537,0,0,0,4.927,6.706c2.771,3.021,7.432,8.166,15.215,10.011a25.763,25.763,0,0,0,4.821.666,28.163,28.163,0,0,0,11.492-1.977,30.372,30.372,0,0,0,12.461-9.182,33.537,33.537,0,0,0,4.584-7.07c.025-.051.054-.108.078-.158,13.661.628,25.993.878,36.822.925.618,0,1.249.007,1.857.009,9.99.022,16.01-.134,21.91-4.433,8.05-5.865,10.252-15.342,10.732-17.73a31.477,31.477,0,0,0-3.13-20.995c-.425-.767-.873-1.484-1.333-2.163a28.709,28.709,0,0,0-24.5-12.679,41.118,41.118,0,0,0,.66-18.489,42.243,42.243,0,0,0-14.527-23.991,43.718,43.718,0,0,0-21.351-9.685A38.84,38.84,0,0,0,246.161,22.1a40.566,40.566,0,0,0-14.044,8.427,38.864,38.864,0,0,0-6.321,7.412,37,37,0,0,0-4.224,8.992,27.71,27.71,0,0,0-13.53-.624,23.258,23.258,0,0,0-18.526,16.028,26.407,26.407,0,0,0-1.248,6.869,26.74,26.74,0,0,0,.121,4.208c-2.491-.127-13.487-.419-22.548,7.651a29.6,29.6,0,0,0-4.11,4.537C155.679,93.785,154.126,104.507,156.982,112.868Z" transform="translate(-16.407 -6.567)" fill="#fff" stroke="#707070" stroke-width="1"/>
      </g>
    </g>
    <g id="Group_10" data-name="Group 10">
      <rect id="Rectangle_1-2" data-name="Rectangle 1" width="360" height="567" rx="73" stroke="#707070" stroke-width="1" fill="url(#linear-gradient)"/>
      <path id="Path_1-2" data-name="Path 1" d="M281.5,5.5h0Z" fill="none" stroke="#707070" stroke-width="1"/>
      <path id="Path_2-2" data-name="Path 2" d="M265.584,138.756c13.355.584,25.448.812,36.049.837,1.311,0,2.555,0,3.742-.01-11.677-.05-24.975-.32-39.707-1C265.642,138.64,265.611,138.7,265.584,138.756Z" transform="translate(0 80.157)" fill="none" stroke="#707070" stroke-width="1"/>
      <rect id="Rectangle_2-2" data-name="Rectangle 2" width="7.869" height="89.278" transform="translate(346.63 160.308)" fill="none" stroke="#707070" stroke-width="1"/>
      <path id="Path_3-2" data-name="Path 3" d="M192.664,142.18A44.16,44.16,0,0,1,180,140.348,40.489,40.489,0,0,0,192.664,142.18Z" transform="translate(0 81.364)" fill="none" stroke="#707070" stroke-width="1"/>
      <path id="Path_4-2" data-name="Path 4" d="M213.2,146.9a41.556,41.556,0,0,1-5.313-7.231c-.357.119-.713.221-1.07.331a41.32,41.32,0,0,0,4.885,6.9c2.854,3.258,7.654,8.806,15.667,10.8a25.518,25.518,0,0,0,7.437.718,27.784,27.784,0,0,1-5.2-.718C221.218,155.705,216.192,150.157,213.2,146.9Z" transform="translate(0 84.99)" fill="none" stroke="#707070" stroke-width="1"/>
      <path id="Path_5-2" data-name="Path 5" d="M5.5,283.788h7.87V103.252H5.5V283.788Z" transform="translate(0 0)" fill="none" stroke="#707070" stroke-width="1"/>
      <g id="Group_4-2" data-name="Group 4" transform="translate(18.181 18.18)">
        <path id="Path_6-2" data-name="Path 6" d="M322.413,90.722h-8.221c.46.679.908,1.4,1.333,2.163a31.476,31.476,0,0,1,3.13,20.995c-.48,2.388-2.682,11.864-10.732,17.73-5.9,4.3-11.92,4.455-21.91,4.433-.607,0-1.239-.006-1.857-.009-1.1.011-2.254.012-3.47.009-9.831-.023-21.045-.235-33.429-.776a33.537,33.537,0,0,1-4.584,7.07,30.372,30.372,0,0,1-12.461,9.182,28.163,28.163,0,0,1-11.492,1.977,23.663,23.663,0,0,1-6.9-.666c-7.431-1.845-11.882-6.99-14.529-10.012a38.317,38.317,0,0,1-4.53-6.4,44.36,44.36,0,0,1-13.128,2.023,37.547,37.547,0,0,1-11.745-1.7c-10.28-3.081-18.279-10.072-21.243-18.749-2.856-8.361-1.3-19.083,4.748-27.271H13.37v82.79H322.413Z" transform="translate(-6.072 56.419)" fill="#999" stroke="#707070" stroke-width="1"/>
        <path id="Path_7-2" data-name="Path 7" d="M12.8,84.529H150.823a29.6,29.6,0,0,1,4.11-4.537c9.061-8.07,20.057-7.778,22.548-7.651a26.743,26.743,0,0,1-.121-4.208,26.408,26.408,0,0,1,1.248-6.869,23.258,23.258,0,0,1,18.526-16.028,27.71,27.71,0,0,1,13.53.624,37,37,0,0,1,4.224-8.992,38.863,38.863,0,0,1,6.321-7.412,40.566,40.566,0,0,1,14.044-8.427A38.84,38.84,0,0,1,253.9,19.684a43.718,43.718,0,0,1,21.351,9.685,42.243,42.243,0,0,1,14.527,23.991,41.118,41.118,0,0,1-.66,18.489,28.709,28.709,0,0,1,24.5,12.679h15.518V73.2A67.894,67.894,0,0,0,261.448,5.5H73.19A67.894,67.894,0,0,0,5.5,73.162V84.529Z" transform="translate(-5.5 -5.5)" fill="#999" stroke="#707070" stroke-width="1"/>
        <path id="Path_8-2" data-name="Path 8" d="M12.8,84.529H150.823a29.6,29.6,0,0,1,4.11-4.537c9.061-8.07,20.057-7.778,22.548-7.651a26.743,26.743,0,0,1-.121-4.208,26.408,26.408,0,0,1,1.248-6.869,23.258,23.258,0,0,1,18.526-16.028,27.71,27.71,0,0,1,13.53.624,37,37,0,0,1,4.224-8.992,38.863,38.863,0,0,1,6.321-7.412,40.566,40.566,0,0,1,14.044-8.427A38.84,38.84,0,0,1,253.9,19.684a43.718,43.718,0,0,1,21.351,9.685,42.243,42.243,0,0,1,14.527,23.991,41.118,41.118,0,0,1-.66,18.489,28.709,28.709,0,0,1,24.5,12.679h15.518V73.2A67.894,67.894,0,0,0,261.448,5.5H73.19A67.894,67.894,0,0,0,5.5,73.162V84.529Z" transform="translate(-5.5 -5.5)" stroke="#707070" stroke-width="1" fill="url(#linear-gradient-2)"/>
        <path id="Path_9-2" data-name="Path 9" d="M12.8,180H5.5v94.158A67.894,67.894,0,0,0,73.194,341.82H261.443a67.894,67.894,0,0,0,67.7-67.7V180H12.8Z" transform="translate(-5.5 189.396)" fill="#999" stroke="#707070" stroke-width="1"/>
        <path id="Path_10-2" data-name="Path 10" d="M12.8,180H5.5v94.158A67.894,67.894,0,0,0,73.194,341.82H261.443a67.894,67.894,0,0,0,67.7-67.7V180H12.8Z" transform="translate(-5.5 189.396)" stroke="#707070" stroke-width="1" fill="url(#linear-gradient-3)"/>
        <path id="Path_11-2" data-name="Path 11" d="M156.982,112.868c2.965,8.677,10.963,15.668,21.243,18.749a40.951,40.951,0,0,0,11.745,1.7,44.36,44.36,0,0,0,13.128-2.023c.331-.1.661-.2.992-.307a38.537,38.537,0,0,0,4.927,6.706c2.771,3.021,7.432,8.166,15.215,10.011a25.763,25.763,0,0,0,4.821.666,28.163,28.163,0,0,0,11.492-1.977,30.372,30.372,0,0,0,12.461-9.182,33.537,33.537,0,0,0,4.584-7.07c.025-.051.054-.108.078-.158,13.661.628,25.993.878,36.822.925.618,0,1.249.007,1.857.009,9.99.022,16.01-.134,21.91-4.433,8.05-5.865,10.252-15.342,10.732-17.73a31.477,31.477,0,0,0-3.13-20.995c-.425-.767-.873-1.484-1.333-2.163a28.709,28.709,0,0,0-24.5-12.679,41.118,41.118,0,0,0,.66-18.489,42.243,42.243,0,0,0-14.527-23.991,43.718,43.718,0,0,0-21.351-9.685A38.84,38.84,0,0,0,246.161,22.1a40.566,40.566,0,0,0-14.044,8.427,38.864,38.864,0,0,0-6.321,7.412,37,37,0,0,0-4.224,8.992,27.71,27.71,0,0,0-13.53-.624,23.258,23.258,0,0,0-18.526,16.028,26.407,26.407,0,0,0-1.248,6.869,26.74,26.74,0,0,0,.121,4.208c-2.491-.127-13.487-.419-22.548,7.651a29.6,29.6,0,0,0-4.11,4.537C155.679,93.785,154.126,104.507,156.982,112.868Z" transform="translate(-16.407 -6.567)" fill="#fff" stroke="#707070" stroke-width="1"/>
      </g>
    </g>
    <g id="Group_11" data-name="Group 11">
      <rect id="Rectangle_1-3" data-name="Rectangle 1" width="360" height="541" rx="73" stroke="#707070" stroke-width="1" fill="url(#linear-gradient)"/>
      <path id="Path_1-3" data-name="Path 1" d="M281.5,5.5h0Z" fill="none" stroke="#707070" stroke-width="1"/>
      <path id="Path_2-3" data-name="Path 2" d="M265.584,138.756c13.355.584,25.448.812,36.049.837,1.311,0,2.555,0,3.742-.01-11.677-.05-24.975-.32-39.707-1C265.642,138.64,265.611,138.7,265.584,138.756Z" transform="translate(0 69.993)" fill="none" stroke="#707070" stroke-width="1"/>
      <rect id="Rectangle_2-3" data-name="Rectangle 2" width="7.869" height="89.278" transform="translate(346.63 151.484)" fill="none" stroke="#707070" stroke-width="1"/>
      <path id="Path_3-3" data-name="Path 3" d="M192.664,142.18A44.16,44.16,0,0,1,180,140.348,40.489,40.489,0,0,0,192.664,142.18Z" transform="translate(0 71.047)" fill="none" stroke="#707070" stroke-width="1"/>
      <path id="Path_4-3" data-name="Path 4" d="M213.2,146.9a41.556,41.556,0,0,1-5.313-7.231c-.357.119-.713.221-1.07.331a41.32,41.32,0,0,0,4.885,6.9c2.854,3.258,7.654,8.806,15.667,10.8a25.518,25.518,0,0,0,7.437.718,27.784,27.784,0,0,1-5.2-.718C221.218,155.705,216.192,150.157,213.2,146.9Z" transform="translate(0 74.214)" fill="none" stroke="#707070" stroke-width="1"/>
      <path id="Path_5-3" data-name="Path 5" d="M5.5,270.634h7.87V101.664H5.5v168.97Z" transform="translate(0 0)" fill="none" stroke="#707070" stroke-width="1"/>
      <g id="Group_4-3" data-name="Group 4" transform="translate(18.181 18.18)">
        <path id="Path_6-3" data-name="Path 6" d="M322.413,90.722h-8.221c.46.679.908,1.4,1.333,2.163a31.476,31.476,0,0,1,3.13,20.995c-.48,2.388-2.682,11.864-10.732,17.73-5.9,4.3-11.92,4.455-21.91,4.433-.607,0-1.239-.006-1.857-.009-1.1.011-2.254.012-3.47.009-9.831-.023-21.045-.235-33.429-.776a33.537,33.537,0,0,1-4.584,7.07,30.372,30.372,0,0,1-12.461,9.182,28.163,28.163,0,0,1-11.492,1.977,23.663,23.663,0,0,1-6.9-.666c-7.431-1.845-11.882-6.99-14.529-10.012a38.317,38.317,0,0,1-4.53-6.4,44.36,44.36,0,0,1-13.128,2.023,37.547,37.547,0,0,1-11.745-1.7c-10.28-3.081-18.279-10.072-21.243-18.749-2.856-8.361-1.3-19.083,4.748-27.271H13.37v82.79H322.413Z" transform="translate(-6.072 47.786)" fill="#999" stroke="#707070" stroke-width="1"/>
        <path id="Path_7-3" data-name="Path 7" d="M12.8,84.529H150.823a29.6,29.6,0,0,1,4.11-4.537c9.061-8.07,20.057-7.778,22.548-7.651a26.743,26.743,0,0,1-.121-4.208,26.408,26.408,0,0,1,1.248-6.869,23.258,23.258,0,0,1,18.526-16.028,27.71,27.71,0,0,1,13.53.624,37,37,0,0,1,4.224-8.992,38.863,38.863,0,0,1,6.321-7.412,40.566,40.566,0,0,1,14.044-8.427A38.84,38.84,0,0,1,253.9,19.684a43.718,43.718,0,0,1,21.351,9.685,42.243,42.243,0,0,1,14.527,23.991,41.118,41.118,0,0,1-.66,18.489,28.709,28.709,0,0,1,24.5,12.679h15.518V73.2A67.894,67.894,0,0,0,261.448,5.5H73.19A67.894,67.894,0,0,0,5.5,73.162V84.529Z" transform="translate(-5.5 -5.5)" fill="#999" stroke="#707070" stroke-width="1"/>
        <path id="Path_8-3" data-name="Path 8" d="M12.8,84.529H150.823a29.6,29.6,0,0,1,4.11-4.537c9.061-8.07,20.057-7.778,22.548-7.651a26.743,26.743,0,0,1-.121-4.208,26.408,26.408,0,0,1,1.248-6.869,23.258,23.258,0,0,1,18.526-16.028,27.71,27.71,0,0,1,13.53.624,37,37,0,0,1,4.224-8.992,38.863,38.863,0,0,1,6.321-7.412,40.566,40.566,0,0,1,14.044-8.427A38.84,38.84,0,0,1,253.9,19.684a43.718,43.718,0,0,1,21.351,9.685,42.243,42.243,0,0,1,14.527,23.991,41.118,41.118,0,0,1-.66,18.489,28.709,28.709,0,0,1,24.5,12.679h15.518V73.2A67.894,67.894,0,0,0,261.448,5.5H73.19A67.894,67.894,0,0,0,5.5,73.162V84.529Z" transform="translate(-5.5 -5.5)" stroke="#707070" stroke-width="1" fill="url(#linear-gradient-2)"/>
        <path id="Path_9-3" data-name="Path 9" d="M12.8,180H5.5v94.158A67.894,67.894,0,0,0,73.194,341.82H261.443a67.894,67.894,0,0,0,67.7-67.7V180H12.8Z" transform="translate(-5.5 163.087)" fill="#999" stroke="#707070" stroke-width="1"/>
        <path id="Path_10-3" data-name="Path 10" d="M12.8,180H5.5v94.158A67.894,67.894,0,0,0,73.194,341.82H261.443a67.894,67.894,0,0,0,67.7-67.7V180H12.8Z" transform="translate(-5.5 163.087)" stroke="#707070" stroke-width="1" fill="url(#linear-gradient-3)"/>
        <path id="Path_11-3" data-name="Path 11" d="M156.982,112.868c2.965,8.677,10.963,15.668,21.243,18.749a40.951,40.951,0,0,0,11.745,1.7,44.36,44.36,0,0,0,13.128-2.023c.331-.1.661-.2.992-.307a38.537,38.537,0,0,0,4.927,6.706c2.771,3.021,7.432,8.166,15.215,10.011a25.763,25.763,0,0,0,4.821.666,28.163,28.163,0,0,0,11.492-1.977,30.372,30.372,0,0,0,12.461-9.182,33.537,33.537,0,0,0,4.584-7.07c.025-.051.054-.108.078-.158,13.661.628,25.993.878,36.822.925.618,0,1.249.007,1.857.009,9.99.022,16.01-.134,21.91-4.433,8.05-5.865,10.252-15.342,10.732-17.73a31.477,31.477,0,0,0-3.13-20.995c-.425-.767-.873-1.484-1.333-2.163a28.709,28.709,0,0,0-24.5-12.679,41.118,41.118,0,0,0,.66-18.489,42.243,42.243,0,0,0-14.527-23.991,43.718,43.718,0,0,0-21.351-9.685A38.84,38.84,0,0,0,246.161,22.1a40.566,40.566,0,0,0-14.044,8.427,38.864,38.864,0,0,0-6.321,7.412,37,37,0,0,0-4.224,8.992,27.71,27.71,0,0,0-13.53-.624,23.258,23.258,0,0,0-18.526,16.028,26.407,26.407,0,0,0-1.248,6.869,26.74,26.74,0,0,0,.121,4.208c-2.491-.127-13.487-.419-22.548,7.651a29.6,29.6,0,0,0-4.11,4.537C155.679,93.785,154.126,104.507,156.982,112.868Z" transform="translate(-16.407 -6.567)" fill="#fff" stroke="#707070" stroke-width="1"/>
      </g>
    </g>
    <g id="Group_12" data-name="Group 12">
      <rect id="Rectangle_1-4" data-name="Rectangle 1" width="360" height="512" rx="73" stroke="#707070" stroke-width="1" fill="url(#linear-gradient)"/>
      <path id="Path_1-4" data-name="Path 1" d="M281.5,5.5h0Z" fill="none" stroke="#707070" stroke-width="1"/>
      <path id="Path_2-4" data-name="Path 2" d="M265.584,138.756c13.355.584,25.448.812,36.049.837,1.311,0,2.555,0,3.742-.01-11.677-.05-24.975-.32-39.707-1C265.642,138.64,265.611,138.7,265.584,138.756Z" transform="translate(0 58.756)" fill="none" stroke="#707070" stroke-width="1"/>
      <rect id="Rectangle_2-4" data-name="Rectangle 2" width="7.869" height="89.278" transform="translate(346.63 141.725)" fill="none" stroke="#707070" stroke-width="1"/>
      <path id="Path_3-4" data-name="Path 3" d="M192.664,142.18A44.16,44.16,0,0,1,180,140.348,40.489,40.489,0,0,0,192.664,142.18Z" transform="translate(0 59.641)" fill="none" stroke="#707070" stroke-width="1"/>
      <path id="Path_4-4" data-name="Path 4" d="M213.2,146.9a41.556,41.556,0,0,1-5.313-7.231c-.357.119-.713.221-1.07.331a41.32,41.32,0,0,0,4.885,6.9c2.854,3.258,7.654,8.806,15.667,10.8a25.518,25.518,0,0,0,7.437.718,27.784,27.784,0,0,1-5.2-.718C221.218,155.705,216.192,150.157,213.2,146.9Z" transform="translate(0 62.298)" fill="none" stroke="#707070" stroke-width="1"/>
      <path id="Path_5-4" data-name="Path 5" d="M5.5,256.107h7.87V99.91H5.5v156.2Z" transform="translate(0 0)" fill="none" stroke="#707070" stroke-width="1"/>
      <g id="Group_4-4" data-name="Group 4" transform="translate(18.181 18.18)">
        <path id="Path_6-4" data-name="Path 6" d="M322.413,90.722h-8.221c.46.679.908,1.4,1.333,2.163a31.476,31.476,0,0,1,3.13,20.995c-.48,2.388-2.682,11.864-10.732,17.73-5.9,4.3-11.92,4.455-21.91,4.433-.607,0-1.239-.006-1.857-.009-1.1.011-2.254.012-3.47.009-9.831-.023-21.045-.235-33.429-.776a33.537,33.537,0,0,1-4.584,7.07,30.372,30.372,0,0,1-12.461,9.182,28.163,28.163,0,0,1-11.492,1.977,23.663,23.663,0,0,1-6.9-.666c-7.431-1.845-11.882-6.99-14.529-10.012a38.317,38.317,0,0,1-4.53-6.4,44.36,44.36,0,0,1-13.128,2.023,37.547,37.547,0,0,1-11.745-1.7c-10.28-3.081-18.279-10.072-21.243-18.749-2.856-8.361-1.3-19.083,4.748-27.271H13.37v82.79H322.413Z" transform="translate(-6.072 38.253)" fill="#999" stroke="#707070" stroke-width="1"/>
        <path id="Path_7-4" data-name="Path 7" d="M12.8,84.529H150.823a29.6,29.6,0,0,1,4.11-4.537c9.061-8.07,20.057-7.778,22.548-7.651a26.743,26.743,0,0,1-.121-4.208,26.408,26.408,0,0,1,1.248-6.869,23.258,23.258,0,0,1,18.526-16.028,27.71,27.71,0,0,1,13.53.624,37,37,0,0,1,4.224-8.992,38.863,38.863,0,0,1,6.321-7.412,40.566,40.566,0,0,1,14.044-8.427A38.84,38.84,0,0,1,253.9,19.684a43.718,43.718,0,0,1,21.351,9.685,42.243,42.243,0,0,1,14.527,23.991,41.118,41.118,0,0,1-.66,18.489,28.709,28.709,0,0,1,24.5,12.679h15.518V73.2A67.894,67.894,0,0,0,261.448,5.5H73.19A67.894,67.894,0,0,0,5.5,73.162V84.529Z" transform="translate(-5.5 -5.5)" fill="#999" stroke="#707070" stroke-width="1"/>
        <path id="Path_8-4" data-name="Path 8" d="M12.8,84.529H150.823a29.6,29.6,0,0,1,4.11-4.537c9.061-8.07,20.057-7.778,22.548-7.651a26.743,26.743,0,0,1-.121-4.208,26.408,26.408,0,0,1,1.248-6.869,23.258,23.258,0,0,1,18.526-16.028,27.71,27.71,0,0,1,13.53.624,37,37,0,0,1,4.224-8.992,38.863,38.863,0,0,1,6.321-7.412,40.566,40.566,0,0,1,14.044-8.427A38.84,38.84,0,0,1,253.9,19.684a43.718,43.718,0,0,1,21.351,9.685,42.243,42.243,0,0,1,14.527,23.991,41.118,41.118,0,0,1-.66,18.489,28.709,28.709,0,0,1,24.5,12.679h15.518V73.2A67.894,67.894,0,0,0,261.448,5.5H73.19A67.894,67.894,0,0,0,5.5,73.162V84.529Z" transform="translate(-5.5 -5.5)" stroke="#707070" stroke-width="1" fill="url(#linear-gradient-2)"/>
        <path id="Path_9-4" data-name="Path 9" d="M12.8,180H5.5v94.158A67.894,67.894,0,0,0,73.194,341.82H261.443a67.894,67.894,0,0,0,67.7-67.7V180H12.8Z" transform="translate(-5.5 134.034)" fill="#999" stroke="#707070" stroke-width="1"/>
        <path id="Path_10-4" data-name="Path 10" d="M12.8,180H5.5v94.158A67.894,67.894,0,0,0,73.194,341.82H261.443a67.894,67.894,0,0,0,67.7-67.7V180H12.8Z" transform="translate(-5.5 134.034)" stroke="#707070" stroke-width="1" fill="url(#linear-gradient-3)"/>
        <path id="Path_11-4" data-name="Path 11" d="M156.982,112.868c2.965,8.677,10.963,15.668,21.243,18.749a40.951,40.951,0,0,0,11.745,1.7,44.36,44.36,0,0,0,13.128-2.023c.331-.1.661-.2.992-.307a38.537,38.537,0,0,0,4.927,6.706c2.771,3.021,7.432,8.166,15.215,10.011a25.763,25.763,0,0,0,4.821.666,28.163,28.163,0,0,0,11.492-1.977,30.372,30.372,0,0,0,12.461-9.182,33.537,33.537,0,0,0,4.584-7.07c.025-.051.054-.108.078-.158,13.661.628,25.993.878,36.822.925.618,0,1.249.007,1.857.009,9.99.022,16.01-.134,21.91-4.433,8.05-5.865,10.252-15.342,10.732-17.73a31.477,31.477,0,0,0-3.13-20.995c-.425-.767-.873-1.484-1.333-2.163a28.709,28.709,0,0,0-24.5-12.679,41.118,41.118,0,0,0,.66-18.489,42.243,42.243,0,0,0-14.527-23.991,43.718,43.718,0,0,0-21.351-9.685A38.84,38.84,0,0,0,246.161,22.1a40.566,40.566,0,0,0-14.044,8.427,38.864,38.864,0,0,0-6.321,7.412,37,37,0,0,0-4.224,8.992,27.71,27.71,0,0,0-13.53-.624,23.258,23.258,0,0,0-18.526,16.028,26.407,26.407,0,0,0-1.248,6.869,26.74,26.74,0,0,0,.121,4.208c-2.491-.127-13.487-.419-22.548,7.651a29.6,29.6,0,0,0-4.11,4.537C155.679,93.785,154.126,104.507,156.982,112.868Z" transform="translate(-16.407 -6.567)" fill="#fff" stroke="#707070" stroke-width="1"/>
      </g>
    </g>
    <g id="Group_13" data-name="Group 13">
      <rect id="Rectangle_1-5" data-name="Rectangle 1" width="360" height="484" rx="73" stroke="#707070" stroke-width="1" fill="url(#linear-gradient)"/>
      <path id="Path_1-5" data-name="Path 1" d="M281.5,5.5h0Z" fill="none" stroke="#707070" stroke-width="1"/>
      <path id="Path_2-5" data-name="Path 2" d="M265.584,138.756c13.355.584,25.448.812,36.049.837,1.311,0,2.555,0,3.742-.01-11.677-.05-24.975-.32-39.707-1C265.642,138.64,265.611,138.7,265.584,138.756Z" transform="translate(0 48.095)" fill="none" stroke="#707070" stroke-width="1"/>
      <rect id="Rectangle_2-5" data-name="Rectangle 2" width="7.869" height="89.278" transform="translate(346.63 132.469)" fill="none" stroke="#707070" stroke-width="1"/>
      <path id="Path_3-5" data-name="Path 3" d="M192.664,142.18A44.16,44.16,0,0,1,180,140.348,40.489,40.489,0,0,0,192.664,142.18Z" transform="translate(0 48.819)" fill="none" stroke="#707070" stroke-width="1"/>
      <path id="Path_4-5" data-name="Path 4" d="M213.2,146.9a41.556,41.556,0,0,1-5.313-7.231c-.357.119-.713.221-1.07.331a41.32,41.32,0,0,0,4.885,6.9c2.854,3.258,7.654,8.806,15.667,10.8a25.518,25.518,0,0,0,7.437.718,27.784,27.784,0,0,1-5.2-.718C221.218,155.705,216.192,150.157,213.2,146.9Z" transform="translate(0 50.994)" fill="none" stroke="#707070" stroke-width="1"/>
      <path id="Path_5-5" data-name="Path 5" d="M5.5,242.3h7.87V98.244H5.5V242.3Z" transform="translate(0 0)" fill="none" stroke="#707070" stroke-width="1"/>
      <g id="Group_4-5" data-name="Group 4" transform="translate(18.181 18.18)">
        <path id="Path_6-5" data-name="Path 6" d="M322.413,90.722h-8.221c.46.679.908,1.4,1.333,2.163a31.476,31.476,0,0,1,3.13,20.995c-.48,2.388-2.682,11.864-10.732,17.73-5.9,4.3-11.92,4.455-21.91,4.433-.607,0-1.239-.006-1.857-.009-1.1.011-2.254.012-3.47.009-9.831-.023-21.045-.235-33.429-.776a33.537,33.537,0,0,1-4.584,7.07,30.372,30.372,0,0,1-12.461,9.182,28.163,28.163,0,0,1-11.492,1.977,23.663,23.663,0,0,1-6.9-.666c-7.431-1.845-11.882-6.99-14.529-10.012a38.317,38.317,0,0,1-4.53-6.4,44.36,44.36,0,0,1-13.128,2.023,37.547,37.547,0,0,1-11.745-1.7c-10.28-3.081-18.279-10.072-21.243-18.749-2.856-8.361-1.3-19.083,4.748-27.271H13.37v82.79H322.413Z" transform="translate(-6.072 29.195)" fill="#999" stroke="#707070" stroke-width="1"/>
        <path id="Path_7-5" data-name="Path 7" d="M12.8,84.529H150.823a29.6,29.6,0,0,1,4.11-4.537c9.061-8.07,20.057-7.778,22.548-7.651a26.743,26.743,0,0,1-.121-4.208,26.408,26.408,0,0,1,1.248-6.869,23.258,23.258,0,0,1,18.526-16.028,27.71,27.71,0,0,1,13.53.624,37,37,0,0,1,4.224-8.992,38.863,38.863,0,0,1,6.321-7.412,40.566,40.566,0,0,1,14.044-8.427A38.84,38.84,0,0,1,253.9,19.684a43.718,43.718,0,0,1,21.351,9.685,42.243,42.243,0,0,1,14.527,23.991,41.118,41.118,0,0,1-.66,18.489,28.709,28.709,0,0,1,24.5,12.679h15.518V73.2A67.894,67.894,0,0,0,261.448,5.5H73.19A67.894,67.894,0,0,0,5.5,73.162V84.529Z" transform="translate(-5.5 -5.5)" fill="#999" stroke="#707070" stroke-width="1"/>
        <path id="Path_8-5" data-name="Path 8" d="M12.8,84.529H150.823a29.6,29.6,0,0,1,4.11-4.537c9.061-8.07,20.057-7.778,22.548-7.651a26.743,26.743,0,0,1-.121-4.208,26.408,26.408,0,0,1,1.248-6.869,23.258,23.258,0,0,1,18.526-16.028,27.71,27.71,0,0,1,13.53.624,37,37,0,0,1,4.224-8.992,38.863,38.863,0,0,1,6.321-7.412,40.566,40.566,0,0,1,14.044-8.427A38.84,38.84,0,0,1,253.9,19.684a43.718,43.718,0,0,1,21.351,9.685,42.243,42.243,0,0,1,14.527,23.991,41.118,41.118,0,0,1-.66,18.489,28.709,28.709,0,0,1,24.5,12.679h15.518V73.2A67.894,67.894,0,0,0,261.448,5.5H73.19A67.894,67.894,0,0,0,5.5,73.162V84.529Z" transform="translate(-5.5 -5.5)" stroke="#707070" stroke-width="1" fill="url(#linear-gradient-2)"/>
        <path id="Path_9-5" data-name="Path 9" d="M12.8,180H5.5v94.158A67.894,67.894,0,0,0,73.194,341.82H261.443a67.894,67.894,0,0,0,67.7-67.7V180H12.8Z" transform="translate(-5.5 106.429)" fill="#999" stroke="#707070" stroke-width="1"/>
        <path id="Path_10-5" data-name="Path 10" d="M12.8,180H5.5v94.158A67.894,67.894,0,0,0,73.194,341.82H261.443a67.894,67.894,0,0,0,67.7-67.7V180H12.8Z" transform="translate(-5.5 106.429)" stroke="#707070" stroke-width="1" fill="url(#linear-gradient-3)"/>
        <path id="Path_11-5" data-name="Path 11" d="M156.982,112.868c2.965,8.677,10.963,15.668,21.243,18.749a40.951,40.951,0,0,0,11.745,1.7,44.36,44.36,0,0,0,13.128-2.023c.331-.1.661-.2.992-.307a38.537,38.537,0,0,0,4.927,6.706c2.771,3.021,7.432,8.166,15.215,10.011a25.763,25.763,0,0,0,4.821.666,28.163,28.163,0,0,0,11.492-1.977,30.372,30.372,0,0,0,12.461-9.182,33.537,33.537,0,0,0,4.584-7.07c.025-.051.054-.108.078-.158,13.661.628,25.993.878,36.822.925.618,0,1.249.007,1.857.009,9.99.022,16.01-.134,21.91-4.433,8.05-5.865,10.252-15.342,10.732-17.73a31.477,31.477,0,0,0-3.13-20.995c-.425-.767-.873-1.484-1.333-2.163a28.709,28.709,0,0,0-24.5-12.679,41.118,41.118,0,0,0,.66-18.489,42.243,42.243,0,0,0-14.527-23.991,43.718,43.718,0,0,0-21.351-9.685A38.84,38.84,0,0,0,246.161,22.1a40.566,40.566,0,0,0-14.044,8.427,38.864,38.864,0,0,0-6.321,7.412,37,37,0,0,0-4.224,8.992,27.71,27.71,0,0,0-13.53-.624,23.258,23.258,0,0,0-18.526,16.028,26.407,26.407,0,0,0-1.248,6.869,26.74,26.74,0,0,0,.121,4.208c-2.491-.127-13.487-.419-22.548,7.651a29.6,29.6,0,0,0-4.11,4.537C155.679,93.785,154.126,104.507,156.982,112.868Z" transform="translate(-16.407 -6.567)" fill="#fff" stroke="#707070" stroke-width="1"/>
      </g>
    </g>
    <g id="Group_14" data-name="Group 14">
      <rect id="Rectangle_1-6" data-name="Rectangle 1" width="360" height="455" rx="73" stroke="#707070" stroke-width="1" fill="url(#linear-gradient)"/>
      <path id="Path_1-6" data-name="Path 1" d="M281.5,5.5h0Z" fill="none" stroke="#707070" stroke-width="1"/>
      <path id="Path_2-6" data-name="Path 2" d="M265.584,138.756c13.355.584,25.448.812,36.049.837,1.311,0,2.555,0,3.742-.01-11.677-.05-24.975-.32-39.707-1C265.642,138.64,265.611,138.7,265.584,138.756Z" transform="translate(0 36.662)" fill="none" stroke="#707070" stroke-width="1"/>
      <rect id="Rectangle_2-6" data-name="Rectangle 2" width="7.869" height="89.278" transform="translate(346.63 122.545)" fill="none" stroke="#707070" stroke-width="1"/>
      <path id="Path_3-6" data-name="Path 3" d="M192.664,142.18A44.16,44.16,0,0,1,180,140.348,40.489,40.489,0,0,0,192.664,142.18Z" transform="translate(0 37.213)" fill="none" stroke="#707070" stroke-width="1"/>
      <path id="Path_4-6" data-name="Path 4" d="M213.2,146.9a41.556,41.556,0,0,1-5.313-7.231c-.357.119-.713.221-1.07.331a41.32,41.32,0,0,0,4.885,6.9c2.854,3.258,7.654,8.806,15.667,10.8a25.518,25.518,0,0,0,7.437.718,27.784,27.784,0,0,1-5.2-.718C221.218,155.705,216.192,150.157,213.2,146.9Z" transform="translate(0 38.871)" fill="none" stroke="#707070" stroke-width="1"/>
      <path id="Path_5-6" data-name="Path 5" d="M5.5,227.494h7.87V96.456H5.5V227.494Z" transform="translate(0 0)" fill="none" stroke="#707070" stroke-width="1"/>
      <g id="Group_4-6" data-name="Group 4" transform="translate(18.181 18.18)">
        <path id="Path_6-6" data-name="Path 6" d="M322.413,90.722h-8.221c.46.679.908,1.4,1.333,2.163a31.476,31.476,0,0,1,3.13,20.995c-.48,2.388-2.682,11.864-10.732,17.73-5.9,4.3-11.92,4.455-21.91,4.433-.607,0-1.239-.006-1.857-.009-1.1.011-2.254.012-3.47.009-9.831-.023-21.045-.235-33.429-.776a33.537,33.537,0,0,1-4.584,7.07,30.372,30.372,0,0,1-12.461,9.182,28.163,28.163,0,0,1-11.492,1.977,23.663,23.663,0,0,1-6.9-.666c-7.431-1.845-11.882-6.99-14.529-10.012a38.317,38.317,0,0,1-4.53-6.4,44.36,44.36,0,0,1-13.128,2.023,37.547,37.547,0,0,1-11.745-1.7c-10.28-3.081-18.279-10.072-21.243-18.749-2.856-8.361-1.3-19.083,4.748-27.271H13.37v82.79H322.413Z" transform="translate(-6.072 19.476)" fill="#999" stroke="#707070" stroke-width="1"/>
        <path id="Path_7-6" data-name="Path 7" d="M12.8,84.529H150.823a29.6,29.6,0,0,1,4.11-4.537c9.061-8.07,20.057-7.778,22.548-7.651a26.743,26.743,0,0,1-.121-4.208,26.408,26.408,0,0,1,1.248-6.869,23.258,23.258,0,0,1,18.526-16.028,27.71,27.71,0,0,1,13.53.624,37,37,0,0,1,4.224-8.992,38.863,38.863,0,0,1,6.321-7.412,40.566,40.566,0,0,1,14.044-8.427A38.84,38.84,0,0,1,253.9,19.684a43.718,43.718,0,0,1,21.351,9.685,42.243,42.243,0,0,1,14.527,23.991,41.118,41.118,0,0,1-.66,18.489,28.709,28.709,0,0,1,24.5,12.679h15.518V73.2A67.894,67.894,0,0,0,261.448,5.5H73.19A67.894,67.894,0,0,0,5.5,73.162V84.529Z" transform="translate(-5.5 -5.5)" fill="#999" stroke="#707070" stroke-width="1"/>
        <path id="Path_8-6" data-name="Path 8" d="M12.8,84.529H150.823a29.6,29.6,0,0,1,4.11-4.537c9.061-8.07,20.057-7.778,22.548-7.651a26.743,26.743,0,0,1-.121-4.208,26.408,26.408,0,0,1,1.248-6.869,23.258,23.258,0,0,1,18.526-16.028,27.71,27.71,0,0,1,13.53.624,37,37,0,0,1,4.224-8.992,38.863,38.863,0,0,1,6.321-7.412,40.566,40.566,0,0,1,14.044-8.427A38.84,38.84,0,0,1,253.9,19.684a43.718,43.718,0,0,1,21.351,9.685,42.243,42.243,0,0,1,14.527,23.991,41.118,41.118,0,0,1-.66,18.489,28.709,28.709,0,0,1,24.5,12.679h15.518V73.2A67.894,67.894,0,0,0,261.448,5.5H73.19A67.894,67.894,0,0,0,5.5,73.162V84.529Z" transform="translate(-5.5 -5.5)" stroke="#707070" stroke-width="1" fill="url(#linear-gradient-2)"/>
        <path id="Path_9-6" data-name="Path 9" d="M12.8,180H5.5v94.158A67.894,67.894,0,0,0,73.194,341.82H261.443a67.894,67.894,0,0,0,67.7-67.7V180H12.8Z" transform="translate(-5.5 76.808)" fill="#999" stroke="#707070" stroke-width="1"/>
        <path id="Path_10-6" data-name="Path 10" d="M12.8,180H5.5v94.158A67.894,67.894,0,0,0,73.194,341.82H261.443a67.894,67.894,0,0,0,67.7-67.7V180H12.8Z" transform="translate(-5.5 76.808)" stroke="#707070" stroke-width="1" fill="url(#linear-gradient-3)"/>
        <path id="Path_11-6" data-name="Path 11" d="M156.982,112.868c2.965,8.677,10.963,15.668,21.243,18.749a40.951,40.951,0,0,0,11.745,1.7,44.36,44.36,0,0,0,13.128-2.023c.331-.1.661-.2.992-.307a38.537,38.537,0,0,0,4.927,6.706c2.771,3.021,7.432,8.166,15.215,10.011a25.763,25.763,0,0,0,4.821.666,28.163,28.163,0,0,0,11.492-1.977,30.372,30.372,0,0,0,12.461-9.182,33.537,33.537,0,0,0,4.584-7.07c.025-.051.054-.108.078-.158,13.661.628,25.993.878,36.822.925.618,0,1.249.007,1.857.009,9.99.022,16.01-.134,21.91-4.433,8.05-5.865,10.252-15.342,10.732-17.73a31.477,31.477,0,0,0-3.13-20.995c-.425-.767-.873-1.484-1.333-2.163a28.709,28.709,0,0,0-24.5-12.679,41.118,41.118,0,0,0,.66-18.489,42.243,42.243,0,0,0-14.527-23.991,43.718,43.718,0,0,0-21.351-9.685A38.84,38.84,0,0,0,246.161,22.1a40.566,40.566,0,0,0-14.044,8.427,38.864,38.864,0,0,0-6.321,7.412,37,37,0,0,0-4.224,8.992,27.71,27.71,0,0,0-13.53-.624,23.258,23.258,0,0,0-18.526,16.028,26.407,26.407,0,0,0-1.248,6.869,26.74,26.74,0,0,0,.121,4.208c-2.491-.127-13.487-.419-22.548,7.651a29.6,29.6,0,0,0-4.11,4.537C155.679,93.785,154.126,104.507,156.982,112.868Z" transform="translate(-16.407 -6.567)" fill="#fff" stroke="#707070" stroke-width="1"/>
      </g>
    </g>
    <g id="Group_15" data-name="Group 15">
      <rect id="Rectangle_1-7" data-name="Rectangle 1" width="360" height="420" rx="73" stroke="#707070" stroke-width="1" fill="url(#linear-gradient)"/>
      <path id="Path_1-7" data-name="Path 1" d="M281.5,5.5h0Z" fill="none" stroke="#707070" stroke-width="1"/>
      <path id="Path_2-7" data-name="Path 2" d="M265.584,138.756c13.355.584,25.448.812,36.049.837,1.311,0,2.555,0,3.742-.01-11.677-.05-24.975-.32-39.707-1C265.642,138.64,265.611,138.7,265.584,138.756Z" transform="translate(0 23.269)" fill="none" stroke="#707070" stroke-width="1"/>
      <rect id="Rectangle_2-7" data-name="Rectangle 2" width="7.869" height="89.278" transform="translate(346.63 110.917)" fill="none" stroke="#707070" stroke-width="1"/>
      <path id="Path_3-7" data-name="Path 3" d="M192.664,142.18A44.16,44.16,0,0,1,180,140.348,40.489,40.489,0,0,0,192.664,142.18Z" transform="translate(0 23.619)" fill="none" stroke="#707070" stroke-width="1"/>
      <path id="Path_4-7" data-name="Path 4" d="M213.2,146.9a41.556,41.556,0,0,1-5.313-7.231c-.357.119-.713.221-1.07.331a41.32,41.32,0,0,0,4.885,6.9c2.854,3.258,7.654,8.806,15.667,10.8a25.518,25.518,0,0,0,7.437.718,27.784,27.784,0,0,1-5.2-.718C221.218,155.705,216.192,150.157,213.2,146.9Z" transform="translate(0 24.671)" fill="none" stroke="#707070" stroke-width="1"/>
      <path id="Path_5-7" data-name="Path 5" d="M5.5,210.161h7.87V94.363H5.5v115.8Z" transform="translate(0 0)" fill="none" stroke="#707070" stroke-width="1"/>
      <g id="Group_4-7" data-name="Group 4" transform="translate(18.181 18.18)">
        <path id="Path_6-7" data-name="Path 6" d="M322.413,90.722h-8.221c.46.679.908,1.4,1.333,2.163a31.476,31.476,0,0,1,3.13,20.995c-.48,2.388-2.682,11.864-10.732,17.73-5.9,4.3-11.92,4.455-21.91,4.433-.607,0-1.239-.006-1.857-.009-1.1.011-2.254.012-3.47.009-9.831-.023-21.045-.235-33.429-.776a33.537,33.537,0,0,1-4.584,7.07,30.372,30.372,0,0,1-12.461,9.182,28.163,28.163,0,0,1-11.492,1.977,23.663,23.663,0,0,1-6.9-.666c-7.431-1.845-11.882-6.99-14.529-10.012a38.317,38.317,0,0,1-4.53-6.4,44.36,44.36,0,0,1-13.128,2.023,37.547,37.547,0,0,1-11.745-1.7c-10.28-3.081-18.279-10.072-21.243-18.749-2.856-8.361-1.3-19.083,4.748-27.271H13.37v82.79H322.413Z" transform="translate(-6.072 8.101)" fill="#999" stroke="#707070" stroke-width="1"/>
        <path id="Path_7-7" data-name="Path 7" d="M12.8,84.529H150.823a29.6,29.6,0,0,1,4.11-4.537c9.061-8.07,20.057-7.778,22.548-7.651a26.743,26.743,0,0,1-.121-4.208,26.408,26.408,0,0,1,1.248-6.869,23.258,23.258,0,0,1,18.526-16.028,27.71,27.71,0,0,1,13.53.624,37,37,0,0,1,4.224-8.992,38.863,38.863,0,0,1,6.321-7.412,40.566,40.566,0,0,1,14.044-8.427A38.84,38.84,0,0,1,253.9,19.684a43.718,43.718,0,0,1,21.351,9.685,42.243,42.243,0,0,1,14.527,23.991,41.118,41.118,0,0,1-.66,18.489,28.709,28.709,0,0,1,24.5,12.679h15.518V73.2A67.894,67.894,0,0,0,261.448,5.5H73.19A67.894,67.894,0,0,0,5.5,73.162V84.529Z" transform="translate(-5.5 -5.5)" fill="#999" stroke="#707070" stroke-width="1"/>
        <path id="Path_8-7" data-name="Path 8" d="M12.8,84.529H150.823a29.6,29.6,0,0,1,4.11-4.537c9.061-8.07,20.057-7.778,22.548-7.651a26.743,26.743,0,0,1-.121-4.208,26.408,26.408,0,0,1,1.248-6.869,23.258,23.258,0,0,1,18.526-16.028,27.71,27.71,0,0,1,13.53.624,37,37,0,0,1,4.224-8.992,38.863,38.863,0,0,1,6.321-7.412,40.566,40.566,0,0,1,14.044-8.427A38.84,38.84,0,0,1,253.9,19.684a43.718,43.718,0,0,1,21.351,9.685,42.243,42.243,0,0,1,14.527,23.991,41.118,41.118,0,0,1-.66,18.489,28.709,28.709,0,0,1,24.5,12.679h15.518V73.2A67.894,67.894,0,0,0,261.448,5.5H73.19A67.894,67.894,0,0,0,5.5,73.162V84.529Z" transform="translate(-5.5 -5.5)" stroke="#707070" stroke-width="1" fill="url(#linear-gradient-2)"/>
        <path id="Path_9-7" data-name="Path 9" d="M12.8,180H5.5v94.158A67.894,67.894,0,0,0,73.194,341.82H261.443a67.894,67.894,0,0,0,67.7-67.7V180H12.8Z" transform="translate(-5.5 42.142)" fill="#999" stroke="#707070" stroke-width="1"/>
        <path id="Path_10-7" data-name="Path 10" d="M12.8,180H5.5v94.158A67.894,67.894,0,0,0,73.194,341.82H261.443a67.894,67.894,0,0,0,67.7-67.7V180H12.8Z" transform="translate(-5.5 42.142)" stroke="#707070" stroke-width="1" fill="url(#linear-gradient-3)"/>
        <path id="Path_11-7" data-name="Path 11" d="M156.982,112.868c2.965,8.677,10.963,15.668,21.243,18.749a40.951,40.951,0,0,0,11.745,1.7,44.36,44.36,0,0,0,13.128-2.023c.331-.1.661-.2.992-.307a38.537,38.537,0,0,0,4.927,6.706c2.771,3.021,7.432,8.166,15.215,10.011a25.763,25.763,0,0,0,4.821.666,28.163,28.163,0,0,0,11.492-1.977,30.372,30.372,0,0,0,12.461-9.182,33.537,33.537,0,0,0,4.584-7.07c.025-.051.054-.108.078-.158,13.661.628,25.993.878,36.822.925.618,0,1.249.007,1.857.009,9.99.022,16.01-.134,21.91-4.433,8.05-5.865,10.252-15.342,10.732-17.73a31.477,31.477,0,0,0-3.13-20.995c-.425-.767-.873-1.484-1.333-2.163a28.709,28.709,0,0,0-24.5-12.679,41.118,41.118,0,0,0,.66-18.489,42.243,42.243,0,0,0-14.527-23.991,43.718,43.718,0,0,0-21.351-9.685A38.84,38.84,0,0,0,246.161,22.1a40.566,40.566,0,0,0-14.044,8.427,38.864,38.864,0,0,0-6.321,7.412,37,37,0,0,0-4.224,8.992,27.71,27.71,0,0,0-13.53-.624,23.258,23.258,0,0,0-18.526,16.028,26.407,26.407,0,0,0-1.248,6.869,26.74,26.74,0,0,0,.121,4.208c-2.491-.127-13.487-.419-22.548,7.651a29.6,29.6,0,0,0-4.11,4.537C155.679,93.785,154.126,104.507,156.982,112.868Z" transform="translate(-16.407 -6.567)" fill="#fff" stroke="#707070" stroke-width="1"/>
      </g>
    </g>
    <rect id="Rectangle_1-8" data-name="Rectangle 1" width="360" height="388" rx="73" stroke="#707070" stroke-width="1" fill="url(#linear-gradient)"/>
    <path id="Path_2-8" data-name="Path 2" d="M265.584,138.756c13.355.584,25.448.812,36.049.837,1.311,0,2.555,0,3.742-.01-11.677-.05-24.975-.32-39.707-1C265.642,138.64,265.611,138.7,265.584,138.756Z" transform="translate(0 10.937)" fill="none" stroke="#707070" stroke-width="1"/>
    <path id="Path_3-8" data-name="Path 3" d="M192.664,142.18A44.16,44.16,0,0,1,180,140.348,40.489,40.489,0,0,0,192.664,142.18Z" transform="translate(0 11.101)" fill="none" stroke="#707070" stroke-width="1"/>
    <path id="Path_4-8" data-name="Path 4" d="M213.2,146.9a41.556,41.556,0,0,1-5.313-7.231c-.357.119-.713.221-1.07.331a41.32,41.32,0,0,0,4.885,6.9c2.854,3.258,7.654,8.806,15.667,10.8a25.518,25.518,0,0,0,7.437.718,27.784,27.784,0,0,1-5.2-.718C221.218,155.705,216.192,150.157,213.2,146.9Z" transform="translate(0 11.595)" fill="none" stroke="#707070" stroke-width="1"/>
    <g id="Group_4-8" data-name="Group 4" transform="translate(18.181 18.18)">
      <path id="Path_6-8" data-name="Path 6" d="M322.413,90.722h-8.221c.46.679.908,1.4,1.333,2.163a31.476,31.476,0,0,1,3.13,20.995c-.48,2.388-2.682,11.864-10.732,17.73-5.9,4.3-11.92,4.455-21.91,4.433-.607,0-1.239-.006-1.857-.009-1.1.011-2.254.012-3.47.009-9.831-.023-21.045-.235-33.429-.776a33.537,33.537,0,0,1-4.584,7.07,30.372,30.372,0,0,1-12.461,9.182,28.163,28.163,0,0,1-11.492,1.977,23.663,23.663,0,0,1-6.9-.666c-7.431-1.845-11.882-6.99-14.529-10.012a38.317,38.317,0,0,1-4.53-6.4,44.36,44.36,0,0,1-13.128,2.023,37.547,37.547,0,0,1-11.745-1.7c-10.28-3.081-18.279-10.072-21.243-18.749-2.856-8.361-1.3-19.083,4.748-27.271H13.37v82.79H322.413Z" transform="translate(-6.072 -2.373)" fill="#999" stroke="#707070" stroke-width="1"/>
      <path id="Path_7-8" data-name="Path 7" d="M12.8,84.529H150.823a29.6,29.6,0,0,1,4.11-4.537c9.061-8.07,20.057-7.778,22.548-7.651a26.743,26.743,0,0,1-.121-4.208,26.408,26.408,0,0,1,1.248-6.869,23.258,23.258,0,0,1,18.526-16.028,27.71,27.71,0,0,1,13.53.624,37,37,0,0,1,4.224-8.992,38.863,38.863,0,0,1,6.321-7.412,40.566,40.566,0,0,1,14.044-8.427A38.84,38.84,0,0,1,253.9,19.684a43.718,43.718,0,0,1,21.351,9.685,42.243,42.243,0,0,1,14.527,23.991,41.118,41.118,0,0,1-.66,18.489,28.709,28.709,0,0,1,24.5,12.679h15.518V73.2A67.894,67.894,0,0,0,261.448,5.5H73.19A67.894,67.894,0,0,0,5.5,73.162V84.529Z" transform="translate(-5.5 -5.5)" fill="#999" stroke="#707070" stroke-width="1"/>
      <path id="Path_8-8" data-name="Path 8" d="M12.8,84.529H150.823a29.6,29.6,0,0,1,4.11-4.537c9.061-8.07,20.057-7.778,22.548-7.651a26.743,26.743,0,0,1-.121-4.208,26.408,26.408,0,0,1,1.248-6.869,23.258,23.258,0,0,1,18.526-16.028,27.71,27.71,0,0,1,13.53.624,37,37,0,0,1,4.224-8.992,38.863,38.863,0,0,1,6.321-7.412,40.566,40.566,0,0,1,14.044-8.427A38.84,38.84,0,0,1,253.9,19.684a43.718,43.718,0,0,1,21.351,9.685,42.243,42.243,0,0,1,14.527,23.991,41.118,41.118,0,0,1-.66,18.489,28.709,28.709,0,0,1,24.5,12.679h15.518V73.2A67.894,67.894,0,0,0,261.448,5.5H73.19A67.894,67.894,0,0,0,5.5,73.162V84.529Z" transform="translate(-5.5 -5.5)" stroke="#707070" stroke-width="1" fill="url(#linear-gradient-2)"/>
      <path id="Path_9-8" data-name="Path 9" d="M12.8,180H5.5v94.158A67.894,67.894,0,0,0,73.194,341.82H261.443a67.894,67.894,0,0,0,67.7-67.7V180H12.8Z" transform="translate(-5.5 10.222)" fill="#999" stroke="#707070" stroke-width="1"/>
      <path id="Path_10-8" data-name="Path 10" d="M12.8,180H5.5v94.158A67.894,67.894,0,0,0,73.194,341.82H261.443a67.894,67.894,0,0,0,67.7-67.7V180H12.8Z" transform="translate(-5.5 10.222)" stroke="#707070" stroke-width="1" fill="url(#linear-gradient-3)"/>
      <path id="Path_11-8" data-name="Path 11" d="M156.982,112.868c2.965,8.677,10.963,15.668,21.243,18.749a40.951,40.951,0,0,0,11.745,1.7,44.36,44.36,0,0,0,13.128-2.023c.331-.1.661-.2.992-.307a38.537,38.537,0,0,0,4.927,6.706c2.771,3.021,7.432,8.166,15.215,10.011a25.763,25.763,0,0,0,4.821.666,28.163,28.163,0,0,0,11.492-1.977,30.372,30.372,0,0,0,12.461-9.182,33.537,33.537,0,0,0,4.584-7.07c.025-.051.054-.108.078-.158,13.661.628,25.993.878,36.822.925.618,0,1.249.007,1.857.009,9.99.022,16.01-.134,21.91-4.433,8.05-5.865,10.252-15.342,10.732-17.73a31.477,31.477,0,0,0-3.13-20.995c-.425-.767-.873-1.484-1.333-2.163a28.709,28.709,0,0,0-24.5-12.679,41.118,41.118,0,0,0,.66-18.489,42.243,42.243,0,0,0-14.527-23.991,43.718,43.718,0,0,0-21.351-9.685A38.84,38.84,0,0,0,246.161,22.1a40.566,40.566,0,0,0-14.044,8.427,38.864,38.864,0,0,0-6.321,7.412,37,37,0,0,0-4.224,8.992,27.71,27.71,0,0,0-13.53-.624,23.258,23.258,0,0,0-18.526,16.028,26.407,26.407,0,0,0-1.248,6.869,26.74,26.74,0,0,0,.121,4.208c-2.491-.127-13.487-.419-22.548,7.651a29.6,29.6,0,0,0-4.11,4.537C155.679,93.785,154.126,104.507,156.982,112.868Z" transform="translate(-16.407 -6.567)" fill="#fff" stroke="#707070" stroke-width="1"/>
    </g>
  </g>
</svg>
