<?xml version="1.0" encoding="UTF-8"?><svg id="Layer_2" xmlns="http://www.w3.org/2000/svg" xmlns:xlink="http://www.w3.org/1999/xlink" viewBox="0 0 923.21 815.55"><defs><style>.cls-1{fill:#231f20;}.cls-2{fill:url(#radial-gradient-12);}.cls-2,.cls-3,.cls-4,.cls-5,.cls-6,.cls-7,.cls-8,.cls-9,.cls-10,.cls-11,.cls-12,.cls-13,.cls-14,.cls-15,.cls-16,.cls-17,.cls-18{stroke:#231f20;stroke-miterlimit:10;}.cls-2,.cls-3,.cls-4,.cls-6,.cls-7,.cls-8,.cls-9,.cls-10,.cls-11,.cls-12,.cls-13,.cls-14,.cls-18{stroke-width:8px;}.cls-3{fill:url(#radial-gradient-13);}.cls-4{fill:url(#radial-gradient-10);}.cls-5{fill:url(#radial-gradient-11);}.cls-5,.cls-17{stroke-width:6px;}.cls-19{fill:#fff;}.cls-6{fill:url(#radial-gradient-4);}.cls-7{fill:url(#radial-gradient-7);}.cls-8{fill:url(#radial-gradient-6);}.cls-9{fill:url(#radial-gradient-5);}.cls-10{fill:url(#radial-gradient-2);}.cls-11{fill:url(#radial-gradient-3);}.cls-12{fill:url(#radial-gradient-8);}.cls-13{fill:url(#radial-gradient-9);}.cls-14{fill:url(#radial-gradient);}.cls-15{fill:#be4c3d;stroke-width:3px;}.cls-16{fill:#f5f3b5;stroke-width:7px;}.cls-17,.cls-18{fill:none;}</style><radialGradient id="radial-gradient" cx="146.28" cy="576.65" fx="146.28" fy="576.65" r="35.23" gradientUnits="userSpaceOnUse"><stop offset=".04" stop-color="#878284"/><stop offset=".91" stop-color="#cc2728"/><stop offset=".96" stop-color="#ce2027"/></radialGradient><radialGradient id="radial-gradient-2" cx="99.27" cy="529.09" fx="99.27" fy="529.09" r="34.63" xlink:href="#radial-gradient"/><radialGradient id="radial-gradient-3" cx="107.3" cy="444.76" fx="107.3" fy="444.76" r="83.12" xlink:href="#radial-gradient"/><radialGradient id="radial-gradient-4" cx="119.25" cy="263.05" fx="119.25" fy="263.05" r="43.63" xlink:href="#radial-gradient"/><radialGradient id="radial-gradient-5" cx="164.13" cy="207.84" fx="164.13" fy="207.84" r="34.48" xlink:href="#radial-gradient"/><radialGradient id="radial-gradient-6" cx="208.3" cy="155.07" fx="208.3" fy="155.07" r="31.04" xlink:href="#radial-gradient"/><radialGradient id="radial-gradient-7" cx="274.94" cy="127.29" fx="274.94" fy="127.29" r="37.2" xlink:href="#radial-gradient"/><radialGradient id="radial-gradient-8" cx="401.89" cy="70.39" fx="401.89" fy="70.39" r="39.27" xlink:href="#radial-gradient"/><radialGradient id="radial-gradient-9" cx="572.67" cy="59.44" fx="572.67" fy="59.44" r="40.79" xlink:href="#radial-gradient"/><radialGradient id="radial-gradient-10" cx="708.29" cy="605.06" fx="708.29" fy="605.06" r="98.84" gradientUnits="userSpaceOnUse"><stop offset="0" stop-color="#2fc1d9"/><stop offset=".22" stop-color="#49adbe"/><stop offset=".55" stop-color="#6b959e"/><stop offset=".82" stop-color="#7f878b"/><stop offset="1" stop-color="#878284"/></radialGradient><radialGradient id="radial-gradient-11" cx="769.49" cy="220.81" fx="769.49" fy="220.81" r="43.55" xlink:href="#radial-gradient-10"/><radialGradient id="radial-gradient-12" cx="368.28" cy="213.57" fx="368.28" fy="213.57" r="278.91" gradientUnits="userSpaceOnUse"><stop offset="0" stop-color="#878284"/><stop offset=".4" stop-color="#865889"/><stop offset=".79" stop-color="#85358d"/><stop offset="1" stop-color="#85288f"/></radialGradient><radialGradient id="radial-gradient-13" cx="474.49" cy="393.92" fx="474.49" fy="393.92" r="375.03" gradientUnits="userSpaceOnUse"><stop offset="0" stop-color="#878284"/><stop offset=".46" stop-color="#858385"/><stop offset=".63" stop-color="#7e888c"/><stop offset=".75" stop-color="#729097"/><stop offset=".84" stop-color="#619ca8"/><stop offset=".92" stop-color="#4bacbd"/><stop offset=".99" stop-color="#31bfd6"/><stop offset="1" stop-color="#2fc1d9"/></radialGradient></defs><g id="Layer_1-2"><path class="cls-14" d="M124.36,596.53c-1.66.26-6.23,1.07-12.35.67-4.53-.29-8.19-1.14-10.56-1.8.22-1.7.9-5.1,3.37-8.53,2.29-3.17,5.03-4.77,6.06-5.39,13.35-7.95,21.22-19.11,35.71-23.93,17.06-5.68,41-1.82,44.14,7.82,3.42,10.52-16.66,31.89-35.76,32.96-9.32.52-17.8-3.82-30.61-1.81Z"/><path class="cls-10" d="M70.28,539.22c-1.18-.24-4.9-.91-9.14-3.25-2.67-1.47-4.64-3.1-5.89-4.26.86-1.88,2.45-4.75,5.28-7.51,2.46-2.4,4.95-3.83,6.7-4.67,4.03-2.62,30.13-19.04,55.34-8.35,8.09,3.44,21.6,12,20.67,20.67-1.23,11.48-27.75,22.74-46.37,17.32-7.51-2.19-17.06-8.05-26.59-9.95Z"/><path class="cls-11" d="M79.06,479.54c-10.34-1.85-18.89-3.8-25.11-5.35-24.96-6.2-34.47-11.24-39.76-14.41-3.39-2.04-6.03-3.9-7.67-5.11,6.05-4.93,11.6-8.66,16.04-11.39,7.27-4.46,12.7-6.92,16.97-8.83,6.67-2.99,9.77-3.83,13.02-4.18,4.18-.45,7.68,0,10,.46-3.66-1.08-7.56-2.45-11.62-4.18-10.96-4.68-19.59-10.54-26.04-15.81,4.06-2.43,8.71-4.84,13.95-6.97,16.42-6.7,31.6-7.9,42.31-7.67,12.36-4.66,30.41-9.96,52.59-11.15,20.66-1.11,61.91-3.34,72.07,16.76,10.81,21.4-20.24,55.03-31.85,67.6-14.96,16.2-37.67,40.8-63.69,35.2-16.67-3.59-26.89-17.88-31.21-24.94Z"/><path class="cls-6" d="M75.96,270.07c-1.32-1.21-3.05-2.83-4.82-5.39-3.66-5.29-4.83-10.77-5.25-14.46,4-.01,8.31.15,12.91.57,7.35.67,13.96,1.87,19.71,3.26-1.01-1-2.03-2.17-2.98-3.55-4.68-6.8-4.68-14.33-4.4-18.01,2.29-.27,4.86-.44,7.66-.43,3.79.02,7.17.37,10.07.85,5.53-.89,17.12-1.94,29.91,3.39,15.82,6.6,23.3,18.73,27.93,26.26,4.28,6.94,6.82,11.06,5.59,15.64-2.52,9.37-18.55,12.21-28.49,13.97-7.22,1.28-32.14,5.69-49.72-6.15-2.93-1.98-7.99-6.64-18.11-15.96Z"/><path class="cls-9" d="M139.2,200.01c-1.98-2.27-3.33-3.03-5.47-6.13-4.51-6.54-5.66-13.59-5.91-18.6,1.17,0,2.79,0,4.7.11,3.07.17,7.07.41,11.81,1.64,2.42.63,5.65,1.68,9.3,3.5,17.35-4.17,34.46,2.74,42.12,16.1,6.04,10.55,7.13,26.74-2.23,36.32-12.71,12.99-38.28,7.23-45.25-3.91-5.07-8.1-.13-18.77-9.07-29.04Z"/><path class="cls-8" d="M182.2,146.61c-.67-.98-2.34-3.37-3.76-6.95-2.25-5.71-2.48-10.95-2.35-14.38,2.26.03,5.37.2,9.02.85,6.96,1.22,12,3.46,14.94,4.79,2.49,1.13,5.72,2.76,9.3,5.07,22.47,15.06,34.51,32.08,30.38,40.7-4.37,9.13-28.17,11.65-39.51,2.06-7.87-6.65-8.3-17.94-18.03-32.15Z"/><path class="cls-7" d="M247.1,103.36c-.28-.9-1.19-3.66-1.77-7.56-.72-4.92-.51-9.03-.24-11.66,1.53.13,3.79.42,6.43,1.21,1.62.48,5.1,1.65,12.94,6.99,3.82,2.6,5.71,3.93,9.08,6.75,15.28,12.79,22.92,19.18,26.98,27.38,7.01,14.15,6.03,36.53-3.96,42.29-14.29,8.24-50.05-15.72-50.22-35.68-.06-6.72,3.87-19.68.76-29.72Z"/><path class="cls-12" d="M371.56,59.51c-.53-2.38-1.5-6.66-2-12.54-.76-9,.05-16.48.89-21.53,2.91.78,6.95,2.1,11.43,4.44,5.37,2.8,8.94,5.78,12.1,8.43,0,0,5.59,4.73,10.32,10.32,7.12,8.42,38,44.93,28.38,59.34-7.51,11.25-40.15,9.69-51.54-5.29-4.74-6.23-2.17-10.01-9.57-43.18Z"/><path class="cls-13" d="M549.72,36.45c-.03-2.02-.24-4.65.23-8.63.83-7.17,3.16-12.81,5-16.46,2.45,1.77,5.64,4.28,9.08,7.61,7.75,7.49,11.98,14.49,12.94,16.12,3.54,5.98,4.16,9.05,6.47,14.31,8.77,19.97,19.98,21.2,21.03,32.15.97,10.17-7.47,22.04-17.18,25.11-20.16,6.36-49.57-24.05-46.25-42.29,1.4-7.7,8.86-14.53,8.68-27.91Z"/><path class="cls-4" d="M731.16,653.92l62.47,15.1c11.84-11.15,23.68-22.3,35.52-33.45,5.21-3.67,3.87-9.82.06-12.83-3.92-3.1-9.01-4.13-15.27-8.31-5.81-3.88-12.97-7.74-22.35-13.13-17.89-10.28-38.81-20.74-40.27-42.2-5.05-5.63-8.2-9.28-10.7-11.85,0,0-3.39-3.01-6.81-5.37-11.39-7.85-141.27,44.61-149.48,74.8-6.65,24.44,87.94,21.85,146.82,37.23Z"/><path class="cls-15" d="M864.21,601.81c-.2-.54-1.56-.15-1.84-.59-.58-.91,3.96-4.67,7.78-8.09,5.38-4.82,8.07-7.23,10.37-9.87,3.12-3.58,5.15-6.69,6.68-6.16.71.25,1.05,1.19,1.14,1.78.27,1.87-1.54,3.46-3.71,5.46-1.71,1.58-4.13,3.87-7.06,6.84,2.65-2.19,9.89-8.14,13.82-10.92.94-.66,2.73-1.88,3.35-1.38.3.24.22.8.19,1.05-.21,1.64-1.73,2.71-2.09,2.96-2.87,2.05-5.19,4.82-8.09,6.82-1.97,1.36-7.67,5.29-12.46,10.77-1.17,1.34-2.92,2.75-6.41,5.57-1.05.84-2.72,2.17-3.49,1.67-.31-.2-.36-.62-.41-.97-.19-1.48.87-2.9,1.44-3.65.54-.72.89-1,.78-1.3Z"/><path class="cls-15" d="M877.32,631.43c-.08-1.21,2.1-2.29,3.84-3.16,2.54-1.27,4.68-1.44,10.37-1.41,7.7.04,11.54.06,13.48-.05,4.18-.23,5.15-.55,8.7-.48,2.98.06,7.37.38,7.37.38.3.33.76.94.61,1.53-.19.75-1.28,1.07-2.39,1.3-3.38.7-6.15.42-8.68.37-1.24-.03-3.02-.01-5.19.2,1.7.45,3.57.86,5.59,1.19,4.46.73,6.72.87,7.66.75.65-.08,1.96-.3,2.54.4.27.33.38.87.19,1.26-.46.99-2.65.88-3.46.84-11.82-.52-40.35,1.19-40.62-3.12Z"/><path class="cls-15" d="M876.21,661.18c.04-.17-1.6-.35-2.59-1.6-.41-.51-.93-1.48-.61-2.07.49-.9,2.79-.55,4.86-.14,5.4,1.05,8.21,2.23,12.67,3.51,2.5.71,4.66,1.2,8.98,2.17,2.15.48,5.16-.22,6.16,1.31.07.11.49.75.25,1.18-.3.56-1.51.45-2.12.38-4.02-.46-18.06-3.16-18.11-3.04-.02.07,3.9,1.52,3.9,1.52,3.93,1.45,3.39,1.36,7.59,2.93,2.63.98,5.08,2.44,7.79,3.19.38.11,1.87.5,2.87,1.78.12.16,1.01,1.29.64,1.84-.34.5-2.02.04-2.23-.02-7.48-2.1-35.26-6.6-34.81-11.08.03-.31.24-.99.78-1.45,1.35-1.14,3.91-.18,3.97-.4Z"/><path class="cls-15" d="M860.02,681.43c.4-.3-.1-1.15.23-1.7.29-.48,1.08-.49,1.36-.5,2.35-.04,6.2,5.61,6.86,6.57,2.5,3.63,5.94,6.51,8.88,9.8,2.95,3.3,6.12,5.59,5.67,6.29-.11.17-.41.21-.94.12-4.53-.73-10.84-8.49-11.13-8.28-.08.06.2.93,2.33,3.87,3.46,4.78,5.49,6.3,7.12,10.1.38.88,1.39,3.27.64,3.87-.26.21-.64.13-.78.1-3.5-.7-22.85-25.79-22.38-28.75.04-.26.17-1.08.67-1.26.23-.08.48-.01,1.15-.14.19-.04.28-.06.32-.09Z"/><path class="cls-16" d="M574.34,681.75c.61-2.19,2.04-6.72,4.61-10.58,1.1-1.66,2.07-2.67,3.15-3.49.69-.53,1.98-1.51,3.78-1.98,0,0,2.24-.58,4.88.12,57.12,15.11,127.2,64.27,127.2,64.27.52.25.91.56,1.21.85,2.44,2.42,1.12,6.88.99,7.32-2.29,6.68-4.93,13.63-8,20.78-9.59,22.34-10.82,27.88-26.46,48.51-.16.21-.57,1.03-1.41,1.83-1.53,1.47-3.31,1.91-4.27,2.15-6.14,1.53-12.24-.85-12.24-.85-62.07-22.87-91.76-41.87-91.76-41.87-17.33-11.63-29.91-20.11-31.88-21.4-.2-.13-.81-.53-1.18-1.27-.86-1.71.22-3.86.53-4.52,1.45-2.99,7.04-16.35,14.78-34.79"/><path class="cls-16" d="M587.69,674.81c18.08,37.02,31.27,63.84,34.05,70.13.5,1.13,1.95,4.5,5.47,6.74,0,0,3.09,1.96,7.57,2.18,6.87.33,37.2-6.26,77.9-17.11"/><path class="cls-16" d="M659.71,759c5.87,15.51,11.74,31.01,17.62,46.52"/><path class="cls-16" d="M602.75,728.67c-17.06,5.14-34.12,10.29-51.19,15.43"/><path class="cls-5" d="M800.49,271.07c2.56-12.68,3.62-23.53,4.08-31.71.73-13.08,1.07-20.62-1.64-35.21-2.83-15.21-6.76-20.33-7.98-21.83-1.8-2.22-7.28-8.77-16.9-11.03-12.83-3.02-24.9,3.98-26.67,5.22-4.33,3.82-16.81,15.88-17.44,33.42-.82,22.69,18.79,37.83,27.73,44.73,14.9,11.5,30.35,15.1,38.83,16.41Z"/><path class="cls-2" d="M675.47,106.09c-2.84-9.1-7.26-20.4-14.29-32.5-6.33-10.9-13.12-19.58-19.06-26.2-2.44,2.71-5.72,7.12-7.66,13.27-.72,2.28-1.13,4.41-1.36,6.3-3.84-12.12-10.95-28.31-24.67-43.39-3.4-3.73-6.84-7.01-10.21-9.87-1.71,2.44-4.03,6.12-6.12,10.89-3.21,7.33-4.33,13.69-5.1,19.74-2.31,18.08-2.05,37.25-1.87,44.58-6.35-10.36-14.03-21.53-23.31-33.01-15.75-19.48-31.9-34.61-46.11-46.11-1.67,5.97-3.17,12.93-4.08,20.76-1.41,12.15-.98,22.82,0,31.31-2.1-5.32-4.9-11.04-8.68-16.84-15.6-24.01-38.41-35.06-50.7-39.81-.99,2.69-2.4,6.92-3.57,12.25-.59,2.67-1.64,8.03-2.55,23.99-.24,4.15-.51,9.91-.68,16.84-4.17-4.33-10.37-9.83-18.86-14.65-6.98-3.97-13.49-6.33-18.64-7.78-.71,9.44-1,19.93-.54,31.31.34,8.47,1.05,16.39,1.99,23.71-7.99-7.5-17.99-15.66-30.22-23.34-23.44-14.74-45.85-21.95-62.25-25.7-.54,4.09-.93,8.44-1.09,13.03-.57,16.44,1.93,30.72,5.07,41.98-1.46-4.72-3.95-10.54-8.32-16.29-13.55-17.82-34.56-21.04-40.17-21.72-.52,4.49-.8,9.33-.72,14.48.36,22.88,7.78,41.36,14.3,53.56-9.36-6.13-20.76-12.67-34.2-18.64-15.45-6.86-29.74-11.25-41.8-14.11-.68,5.22-1.09,10.91-1.09,17.01.03,20.75,5,37.99,9.95,50.31-10.25-4.02-22.3-8.01-36.01-11.22-14.74-3.45-28.21-5.26-39.81-6.15,1.61,5.17,3.99,12.42,7.24,20.99,3.81,10.05,5.71,15.08,8.87,20.63,3.19,5.6,8.62,13.52,17.92,21.53-7.05-1.2-14.41-2.25-22.08-3.08-23.23-2.51-44.59-2.54-63.52-1.27,4.01,7.29,8.84,15.11,14.66,23.16,3.27,4.53,14.14,19.21,31.85,35.47,5.7,5.23,13.47,11.88,23.27,18.93-3.97-1.89-8.12-3.62-12.48-5.13-45.49-15.78-90.27-.66-115.38,10.77,2.19,3.52,5.47,8.46,9.91,14.02,8.97,11.22,17.49,18.46,24.61,24.44,4.79,4.03,11.32,9.18,19.49,14.7-4.44-.98-9.48-1.8-15.04-2.22-10.19-.78-19.09.01-26.15,1.2,1.19,3.09,2.78,6.52,4.96,10.08,5.4,8.86,12.01,14.71,16.92,18.29,116.36,67.05,185.75,61.5,227.77,43.64,58.39-24.82,63.63-73.29,181.37-156.35,59.84-42.22,88.53-50.89,115.7-51.6,53.51-1.39,86.55,28.5,103.19,14.07,9.76-8.46,14.56-32.76-20.63-110.26Z"/><path class="cls-3" d="M901.91,508.91c-8.23-5.16-20.05-14.11-29.46-28.63-7.02-10.83-9.89-20.43-12.86-31.12-9.16-32.92-13.2-54.2-16.6-68.46-6.02-25.32-13.29-42.3-25.72-71.37-16.72-39.09-25.08-58.63-37.76-73.03-3.51-3.98-10.98-11.96-17.84-24.89-8.03-15.15-10.47-28.11-11.2-31.53-3.46-16.15-17.21-44.78-62.24-99.58-1.81,3.02-4.21,7.53-6.22,13.28-3.79,10.81-4.02,19.77-4.15,24.48-.41,15.38-1.04,38.96-1.24,68.46-1.55-8.73-4.52-19.44-10.37-30.7-16.57-31.9-44.91-46.37-56.43-51.45l-3.32,51.03c-7.14-9.98-18.23-23.2-34.44-35.68-14.8-11.4-29.02-18.45-39.83-22.82-1.01,7.03-1.63,15.28-1.24,24.48.77,18.6,5.32,33.8,9.54,44.4-2.34-8.66-6.31-19.16-13.28-29.87-20.89-32.12-53.75-43.14-65.56-46.47-.89,6.21-1.51,13.01-1.66,20.33-.39,18.85,2.43,35.07,5.81,47.72-12.38-8.19-28.02-17.11-46.89-24.89-14.97-6.18-28.91-10.38-41.08-13.28.28,5.76.92,12.02,2.07,18.67,2.97,17.07,8.41,31.17,13.69,41.91-6.19-6.02-13.88-12.51-23.24-18.67-19.94-13.12-39.24-19.3-53.11-22.41.33,5.31,1.07,11.17,2.49,17.43,4.53,20.01,13.84,34.92,21.16,44.4-11.89-1.17-24.21-2.16-36.93-2.9-9.77-.57-19.32-.98-28.63-1.24-.06,4.92.37,11.72,2.49,19.5,2.15,7.88,5.3,14.03,7.88,18.26-1.99-3.75-5.56-9.43-11.62-14.52-9.13-7.67-18.95-9.82-35.68-13.28-6.19-1.28-14.98-2.82-25.72-3.73,1.85,6.3,4.59,13.55,8.71,21.16,9.87,18.22,22.96,29.87,31.95,36.51-10.4-3.3-23.26-6.48-38.17-8.3-13.83-1.68-26.19-1.79-36.51-1.24,2.31,4.86,5.17,10.04,8.71,15.35,10.67,16,23.28,26.73,33.19,33.61-10.95-2.37-25.61-4.26-42.74-2.9-31.83,2.51-55.47,14.91-68.05,22.82,3.45,3.92,7.56,8.03,12.45,12.03,15.14,12.41,30.85,18.25,41.91,21.16-10.09-.19-21.22.22-33.19,1.66-30.48,3.66-55.48,12.61-73.85,21.16,6.67,5.44,14.26,10.94,22.82,16.18,28.96,17.72,57.29,25.26,78.42,28.63-10.71,2.1-22.77,5.24-35.68,9.96-22.94,8.39-41.21,19.12-54.77,28.63,6.89,4.04,14.84,8.19,23.86,12.07,10.97,4.72,21.23,8.04,30.25,10.41-6.36-2.07-15.81-4.17-27.11-3.15-27.03,2.44-43.84,20.85-48.16,25.9,1.54,1.69,4.2,4.38,7.99,7.02,10.1,7.05,20.69,8.55,33.16,10.17,3.97.52,9.79,1.11,16.94,1.21-6.73,2.25-15.01,5.77-23.72,11.38-14.49,9.33-23.82,20.37-29.28,28.07,3.72,1.73,8.91,3.99,15.25,6.29,15.52,5.64,27.83,7.83,38.48,9.68,10.96,1.9,25.13,3.75,41.87,4.36-5.54,3.1-13.28,8.27-20.81,16.46-7.23,7.86-11.64,15.67-14.28,21.3,6.11,1.82,12.91,3.51,20.33,4.84,10.18,1.82,20.95,3.76,34.61,2.9,6.17-.39,14.77-1.45,24.87-4.45,8.65,11.2,18.64,23.01,30.14,35.02,18.85,19.67,37.58,35.49,54.55,48.1,19.09-.17,38.18-.33,57.28-.5.55-1.82,1.06-4.46.5-7.44-.5-2.62-1.56-4.05-2.73-6.45-1.83-3.75-2.45-6.83-3.22-10.66-.83-4.12-1.91-9.76-.5-16.61.61-2.97,1.52-5.34,2.23-6.94,13.32,2.57,27.54,4.78,42.59,6.41,36.09,3.92,68.87,3.65,97.21,1.45,4.98,5.39,10.48,10.94,16.55,16.55,10.42,9.62,20.66,17.68,30.2,24.41,20.41.21,40.82.41,61.22.62.95-.52,2.2-1.41,2.9-2.9,1.2-2.56.03-5.36-1.86-9.72-1.8-4.15-2.88-4.35-4.14-7.65-1.07-2.8-1.32-5.14-1.54-7.81-.65-8.22-.63-16.42-.57-20.94,11.48-1.48,23.76-3.74,36.64-7.06,44.75-11.54,79.49-31.52,103.91-49.1,17.56-.63,38.35-2.68,61.31-7.58,32.24-6.89,55.31-15.93,70.5-23.03,47.65-22.26,53.77-40.32,55.14-45.04,2.08-7.16,1.9-13.56,1.44-17.78Z"/><path class="cls-17" d="M675.62,276.03c-3.94-5.57-20.1-27.07-50.21-33.89-11.82-2.68-32.69-8.33-48.96,3.77-19.01,14.13-17.48,41.53-17.16,47.29,2.12,37.88,36.53,59.62,41.01,62.35"/><path class="cls-17" d="M640.89,295.28c-3.2-4.44-11.33-14.33-25.11-17.99-5.42-1.44-15.58-4.14-23.43,1.67-7.56,5.59-8.21,15.54-8.37,17.99-1.29,19.84,19.42,33.36,20.92,34.31"/><path class="cls-1" d="M747.01,442.04c-7.81,1.03-15.69,5.87-19.75,13.96-.79,1.58-5.88,12.15-.17,22.65,4.58,8.43,13.69,12.36,21.8,12.26,9.76-.12,19-5.99,22.82-14.99,5.33-12.55-1.57-27.13-11.69-32.12-5.48-2.7-10.84-2.06-13.01-1.77Z"/><path class="cls-1" d="M878.34,495.18c-3.27,4.28-3.32,9.12-3.34,11.33-.08,8.55,4.69,14.77,8.17,19.32,2.41,3.14,6.63,7.85,13.35,12.01,4.15-3.64,7.57-6.85,10.17-9.34,7.7-7.4,9.52-9.93,10.9-12.66,1.26-2.49,2.76-5.42,2.91-9.55.05-1.42.26-7.34-3.89-12.02-2.37-2.67-5.04-3.67-7.79-4.7-8-3.01-15.19-1.66-17.52-1.14-4.28.97-9.43,2.13-12.96,6.75Z"/><path class="cls-19" d="M754.01,454.11c-3.95.67-5.55,4.36-5.77,4.9-1.01,2.45-1.06,5.98,1.2,8.38,1.84,1.96,4.26,2.15,4.79,2.18,4.15.23,6.62-3.3,6.75-3.48,2-2.96,1.98-7.49-.76-10.12-2.53-2.42-5.97-1.89-6.2-1.85Z"/><path class="cls-18" d="M712.51,602.4c-10.54.79-25.41.78-41.95-3.07-4.76-1.11-9.08-2.4-12.94-3.75"/></g></svg>