<?xml version="1.0" encoding="UTF-8"?><svg id="Layer_2" xmlns="http://www.w3.org/2000/svg" xmlns:xlink="http://www.w3.org/1999/xlink" viewBox="0 0 252.53 267.5"><defs><style>.cls-1{fill:#868284;}.cls-2{fill:none;stroke:#221f20;stroke-width:3px;}.cls-2,.cls-3{stroke-miterlimit:10;}.cls-4{fill:#d1d3d4;}.cls-5{fill:url(#radial-gradient-2);}.cls-6{fill:#f5f4bb;}.cls-7{fill:url(#linear-gradient-8);}.cls-8{fill:url(#linear-gradient-7);}.cls-9{fill:url(#linear-gradient-5);}.cls-10{fill:url(#linear-gradient-6);}.cls-11{fill:url(#linear-gradient-9);}.cls-12{fill:url(#linear-gradient-4);}.cls-13{fill:url(#linear-gradient-3);}.cls-14{fill:url(#linear-gradient-2);}.cls-15{fill:url(#radial-gradient);}.cls-16{fill:url(#linear-gradient);}.cls-17{fill:#221f20;}.cls-3{fill:#222630;stroke:#222630;}.cls-18{fill:url(#linear-gradient-10);}.cls-19{fill:url(#linear-gradient-11);}.cls-20{fill:url(#linear-gradient-12);}.cls-21{fill:url(#linear-gradient-13);}.cls-22{fill:url(#linear-gradient-19);}.cls-23{fill:url(#linear-gradient-14);}.cls-24{fill:url(#linear-gradient-21);}.cls-25{fill:url(#linear-gradient-20);}.cls-26{fill:url(#linear-gradient-22);}.cls-27{fill:url(#linear-gradient-23);}.cls-28{fill:url(#linear-gradient-25);}.cls-29{fill:url(#linear-gradient-15);}.cls-30{fill:url(#linear-gradient-16);}.cls-31{fill:url(#linear-gradient-17);}.cls-32{fill:url(#linear-gradient-18);}.cls-33{fill:url(#linear-gradient-27);}.cls-34{fill:url(#linear-gradient-24);}.cls-35{fill:url(#linear-gradient-26);}.cls-36{fill:#f1f2f2;opacity:.6;}</style><linearGradient id="linear-gradient" x1="-3649.43" y1="77.48" x2="-3612.3" y2="77.48" gradientTransform="translate(3567.94 -1120.76) rotate(-18.11)" gradientUnits="userSpaceOnUse"><stop offset="0" stop-color="#232731"/><stop offset=".5" stop-color="#f5f4bb"/><stop offset="1" stop-color="#7a2f8b"/></linearGradient><linearGradient id="linear-gradient-2" x1="-3589.47" y1="38.67" x2="-3539.97" y2="38.67" gradientTransform="translate(3750.34 -311.77) rotate(-5)" gradientUnits="userSpaceOnUse"><stop offset="0" stop-color="#f5f4bb"/><stop offset=".05" stop-color="#dacab0"/><stop offset=".09" stop-color="#c4a6a7"/><stop offset=".15" stop-color="#b085a0"/><stop offset=".21" stop-color="#9f6a99"/><stop offset=".27" stop-color="#915494"/><stop offset=".35" stop-color="#86438f"/><stop offset=".45" stop-color="#7f378d"/><stop offset=".59" stop-color="#7b308b"/><stop offset=".97" stop-color="#7a2f8b"/></linearGradient><linearGradient id="linear-gradient-3" x1="-3590.18" y1="48.66" x2="-3536.49" y2="48.66" xlink:href="#linear-gradient-2"/><linearGradient id="linear-gradient-4" x1="-3595.94" y1="58.59" x2="-3515.15" y2="58.59" xlink:href="#linear-gradient-2"/><linearGradient id="linear-gradient-5" x1="-3605.99" y1="72.61" x2="-3520.69" y2="72.61" xlink:href="#linear-gradient-2"/><linearGradient id="linear-gradient-6" x1="-3594.9" y1="78.48" x2="-3533.02" y2="78.48" xlink:href="#linear-gradient-2"/><linearGradient id="linear-gradient-7" x1="-3603.94" y1="87.06" x2="-3538.9" y2="87.06" xlink:href="#linear-gradient-2"/><linearGradient id="linear-gradient-8" x1="-3624.55" y1="96.67" x2="-3555.55" y2="96.67" xlink:href="#linear-gradient-2"/><linearGradient id="linear-gradient-9" x1="-4708.78" y1="-144.11" x2="-4672.66" y2="-144.11" gradientTransform="translate(-4515.9 -821.8) rotate(-166.89) scale(1 -1)" xlink:href="#linear-gradient"/><linearGradient id="linear-gradient-10" x1="-4528.24" y1="696.05" x2="-4492.27" y2="696.05" gradientTransform="translate(-2432.11 3201.96) rotate(120.28) scale(.88 -.87)" xlink:href="#linear-gradient"/><linearGradient id="linear-gradient-11" x1="-4673.23" y1="64.51" x2="-4638.23" y2="64.51" gradientTransform="translate(-4627.11) rotate(-180) scale(1 -1)" xlink:href="#linear-gradient-2"/><linearGradient id="linear-gradient-12" x1="-4673.73" y1="75.67" x2="-4639.12" y2="75.67" gradientTransform="translate(-4627.11) rotate(-180) scale(1 -1)" xlink:href="#linear-gradient-2"/><linearGradient id="linear-gradient-13" x1="-4674.32" y1="149.4" x2="-4625.79" y2="149.4" gradientTransform="translate(-4627.05 167.76) rotate(177.15) scale(1 -1)" xlink:href="#linear-gradient-2"/><linearGradient id="linear-gradient-14" x1="-4689.13" y1="97.66" x2="-4632.3" y2="97.66" gradientTransform="translate(-4627.11) rotate(-180) scale(1 -1)" xlink:href="#linear-gradient-2"/><linearGradient id="linear-gradient-15" x1="-4677.88" y1="103.32" x2="-4637.56" y2="103.32" gradientTransform="translate(-4627.11) rotate(-180) scale(1 -1)" xlink:href="#linear-gradient-2"/><linearGradient id="linear-gradient-16" x1="-4687.14" y1="111.43" x2="-4642.14" y2="111.43" gradientTransform="translate(-4627.11) rotate(-180) scale(1 -1)" xlink:href="#linear-gradient-2"/><linearGradient id="linear-gradient-17" x1="-4707.19" y1="120.77" x2="-4646.61" y2="120.77" gradientTransform="translate(-4627.11) rotate(-180) scale(1 -1)" xlink:href="#linear-gradient-2"/><radialGradient id="radial-gradient" cx="-4392.06" cy="738.13" fx="-4392.06" fy="738.13" r="20.35" gradientTransform="translate(-2223.72 3892.69) rotate(112.87) scale(1 -.94)" gradientUnits="userSpaceOnUse"><stop offset="0" stop-color="#868284"/><stop offset=".84" stop-color="#282e37"/></radialGradient><linearGradient id="linear-gradient-18" x1="-4593.06" y1="635.63" x2="-4538.39" y2="635.63" gradientTransform="translate(-3698.86 2766.99) rotate(138.45) scale(1 -1)" xlink:href="#linear-gradient"/><linearGradient id="linear-gradient-19" x1="-4576.58" y1="626.14" x2="-4525.83" y2="626.14" gradientTransform="translate(-3698.86 2766.99) rotate(138.45) scale(1 -1)" xlink:href="#linear-gradient"/><radialGradient id="radial-gradient-2" cx="-4821.58" cy="153.43" fx="-4821.58" fy="153.43" r="9.16" gradientTransform="translate(-4726.34 -630.88) rotate(177.27) scale(1 -6)" xlink:href="#radial-gradient"/><linearGradient id="linear-gradient-20" x1="-304.54" y1="-833.38" x2="-274.89" y2="-833.38" gradientTransform="translate(-632.58 836.62) rotate(55.41) scale(.91 1.18)" gradientUnits="userSpaceOnUse"><stop offset=".03" stop-color="#7a2f8b"/><stop offset=".41" stop-color="#7b308b"/><stop offset=".55" stop-color="#7f378d"/><stop offset=".65" stop-color="#86438f"/><stop offset=".73" stop-color="#915494"/><stop offset=".79" stop-color="#9f6a99"/><stop offset=".85" stop-color="#b085a0"/><stop offset=".91" stop-color="#c4a6a7"/><stop offset=".95" stop-color="#dacab0"/><stop offset="1" stop-color="#f5f4bb"/></linearGradient><linearGradient id="linear-gradient-21" x1="-132.14" y1="-1160.67" x2="-107.21" y2="-1160.67" gradientTransform="translate(-610.53 747.42) rotate(49.7) scale(.85 .79)" xlink:href="#linear-gradient-20"/><linearGradient id="linear-gradient-22" x1="-62.21" y1="-764.8" x2="-23.75" y2="-764.8" gradientTransform="translate(-369.16 668.13) rotate(37.52) scale(.97 .92)" xlink:href="#linear-gradient-20"/><linearGradient id="linear-gradient-23" x1="130.48" y1="-220.11" x2="168.92" y2="-220.11" gradientTransform="translate(-170.07 270.91) rotate(14.16)" xlink:href="#linear-gradient-20"/><linearGradient id="linear-gradient-24" x1="171.76" y1="48.1" x2="205.12" y2="48.1" gradientTransform="translate(-156.46 46.12) rotate(2.42)" xlink:href="#linear-gradient-20"/><linearGradient id="linear-gradient-25" x1="404.43" y1="294.34" x2="442.32" y2="294.34" gradientTransform="translate(-345.53 -79.15) rotate(-6.43) scale(.84 .79)" xlink:href="#linear-gradient-20"/><linearGradient id="linear-gradient-26" x1="106.19" y1="69.51" x2="134.28" y2="69.51" gradientUnits="userSpaceOnUse"><stop offset="0" stop-color="#f5f4bb"/><stop offset=".18" stop-color="#d1c1af"/><stop offset=".37" stop-color="#b194a5"/><stop offset=".55" stop-color="#97719d"/><stop offset=".72" stop-color="#855797"/><stop offset=".88" stop-color="#7a4894"/><stop offset="1" stop-color="#774393"/></linearGradient><linearGradient id="linear-gradient-27" x1="201.64" y1="332.35" x2="235.4" y2="332.35" gradientTransform="translate(-219.97 -154.6) rotate(-8.96) scale(.97 .93)" xlink:href="#linear-gradient-20"/></defs><g id="Layer_1-2"><path class="cls-3" d="M122.61,94.27c.21-1.31.46-2.66.79-4.05,1.19-5.14,2.95-9.58,4.81-13.28,6.81-2.27,14.97-5.6,23.65-10.57,11.13-6.38,19.55-13.39,25.53-19.2-.43,2.77-.68,6.47-.07,10.75.36,2.52.95,4.73,1.59,6.58-1.89,1.96-3.77,3.93-5.66,5.89,0,1.17-.17,3-1.19,4.9-.55,1.02-1.26,1.92-3.54,3.94-3.81,3.37-6.06,4.62-5.89,4.91.3.52,8.02-3.07,9.72-3.86.96-.45,1.76-.83,2.34-1.11.09.54.16,1.39-.13,2.34,0,0-.47,1.53-2.06,2.83-9.44,7.66-27.23,13.58-27.23,13.58-16.33,5.36-19.85,6.64-21.94,4.64-1.9-1.81-1.52-5.26-.7-8.26Z"/><path class="cls-16" d="M125.4,92.51c4.98-2.41,10.97-5.82,17.21-10.63,5.67-4.37,10.15-8.81,13.58-12.68.37.52,1.18,1.79,1.24,3.53.05,1.34-.37,2.39-.51,2.67-.26.52-.52.87-.68,1.09-1.62,2.07-4.82,4-6.65,5.11-4.13,2.51-9.59,5.92-16.44,10.13-.86,0-1.92.06-3.12.3-1.82.36-3.41.77-4.69,1.26"/><path class="cls-14" d="M178.46,46.07c.18,1.81.36,3.63.55,5.44,6.2-3.68,13.18-7.44,20.94-11.06,7.5-3.49,14.64-6.34,21.25-8.67.34-1.11.83-2.4,1.57-3.79,1.09-2.06,2.35-3.61,3.4-4.7-.75.1-1.85.25-3.17.49-3.74.67-10.99,2.31-23.03,8.59-5.8,3.03-13.28,7.43-21.5,13.7Z"/><path class="cls-13" d="M178.57,54.63c.17,2.24.34,4.48.52,6.73,15.97-7.62,31.94-15.25,47.9-22.87,1.17-1.79,2.35-3.58,3.52-5.37-1.11.08-2.56.24-4.23.58,0,0-1.77.37-3.55.95-2.79.92-20.32,8.8-44.16,19.98Z"/><path class="cls-12" d="M174.74,72.72c24.03-8.14,48.06-16.28,72.1-24.43,1.9-2.76,3.8-5.51,5.7-8.27-1,.05-2.65.18-4.66.5-4.77.77-8.2,2.13-9.19,2.52-4.96,1.91-27.19,9.41-58.35,19.88-.08.46-.15.92-.23,1.38-1.82,1.97-3.63,3.93-5.45,5.9.03.72-.07,1.29-.16,1.68-.11.46-.28.9-.15.98.08.05.25-.05.39-.15Z"/><path class="cls-9" d="M165.11,83c.08.13,1.29-.56,3.04-1.44,1.19-.6,4.23-1.97,6.82-3.09,0,0,2.24-.85,5.36-1.59,4.7-1.11,29.26-5.38,62.84-10.84,1.85-1.99,3.7-3.98,5.56-5.97-.58-.21-1.36-.42-2.29-.52-1.08-.11-1.9-.02-2.24.02-9.4,1.09-11.8,1.58-11.8,1.58-6.42,1.31-4.5.65-12.62,2.26-5.82,1.15-5.63,1.26-14.2,3.06-7.08,1.49-8.5,1.69-13.64,2.85-3.93.89-6.37,1.41-9.72,2.34-3.83,1.06-6.97,2.1-9.16,2.87-.13.4-.36.99-.77,1.65-.41.66-.85,1.14-2,2.23-.84.8-1.25,1.19-2.09,1.92-2.13,1.85-3.18,2.56-3.1,2.68Z"/><path class="cls-10" d="M176.74,79c-.16,1.37-.33,2.74-.49,4.11,19.23-2.36,38.47-4.71,57.7-7.07,1.16-1.22,2.32-2.44,3.47-3.67-.24-.38-.61-.81-1.17-1.06-.88-.39-1.77-.13-1.95-.09-1.52.38-24.83,3.49-57.57,7.78Z"/><path class="cls-8" d="M175.25,85.02c-.44.34-1.11.87-1.93,1.54-1.65,1.36-2.12,1.86-3.13,2.51-1.51.97-2.39,1.11-2.38,1.24.04.51,13.65,0,60.97-3.27,1.23-1.28,2.47-2.56,3.7-3.85-.31-.18-.8-.43-1.44-.62-1.42-.41-2.62-.23-2.87-.2-1.76.22-23.1,1.25-52.91,2.64Z"/><path class="cls-7" d="M161.34,103.33c-2.13-1.3-3.95-1.81-5.21-2.03-2.49-.44-4.78-.12-7.43-1.68-.36-.21-.64-.41-.82-.54,5.53-2.17,11.06-4.33,16.59-6.5,3.54-.31,8.38-.67,14.14-.9,4.84-.19,12.04-.45,21.39,0,4.33.21,9.99.61,16.62,1.45-.31.32-.77.75-1.37,1.2-1.39,1.02-2.73,1.5-3.77,1.81-3.28.96-6.18.94-6.18.94-3.38-.03-20.57-.21-44.26-.68,1.61.15,4.39.41,6.07.57,6.57.61,8.04.74,10.38,1.01,3.7.42,5.56.63,7.44.98,4,.74,7.2,1.76,9.35,2.53-.27.09-.66.23-1.12.44-.89.39-1.5.79-1.57.83-1.75,1.08-14.97-.8-17.3-1.08-2.96-.35-7.35-.33-12.96,1.63Z"/><path class="cls-1" d="M165.05,75.19c4.4-4.2,8.79-8.39,13.19-12.59.07.69.14,1.38.21,2.07-1.87,2.04-3.74,4.08-5.6,6.11-2.6,1.47-5.2,2.93-7.8,4.4Z"/><circle class="cls-2" cx="121.38" cy="54.27" r="9.06" transform="translate(-11.58 54.58) rotate(-24.23)"/><path class="cls-3" d="M128.61,145.31c1.66-4.28,3.64-10.28,5.02-17.64,1.89-10.11,1.52-18.01,1.6-24.35.09-8.01-.13-15.4-2.41-23.06,0,0-3.53-10.96-7.05-12.51-.12-.05-.79-.32-1.02-.92-.11-.3-.1-.63.33-1.76.42-1.11.63-1.67.99-2.2,0,0,.67-.98,1.76-1.76,2.41-1.73,7.74-1.13,8.32-1.09-2.09-1.21-6.12-2.77-8.21-3.98-.27-.49-.69-1.25-1.21-2.2-1.43-2.61-1.63-3.03-2.09-3.74-.54-.83-1.42-2.18-2.64-3.19-1.92-1.59-4.1-1.88-5.95-2.09-5.37-.63-9.67,1.1-10.46,1.43-6.23,2.59-9.43,7.47-10.89,9.76-1.36,2.14-2.36,5.1-4.37,11.03-1.94,5.73-2.96,8.81-3.45,13.1,0,0-.51,4.44,0,9.65.83,8.54,9.97,30.11,26.13,56.72,1.08,3.63,4.42,14.92,5.84,20.98.13.54.34,1.46.52,2.68.81,5.26.13,9.35.03,10.05-.5,3.6.31,19.46,4.51,64.15-.01-8.55.11-17.35.38-26.38.29-9.62.75-18.97,1.34-28.03,7.29,22.71,14.57,45.42,21.86,68.13-4.82-29.5-10.71-58.85-14.47-88.5-.38-3.02-1.5-7.88-1.81-10.86-.56-5.39-1.13-8.16-2.6-13.37Z"/><path class="cls-3" d="M101.82,112.67c-.3-1.25-.65-2.54-1.06-3.86-1.52-4.88-3.52-9.04-5.54-12.46-6.52-1.62-14.37-4.16-22.83-8.24-10.86-5.23-19.25-11.32-25.29-16.44.62,2.65,1.16,6.22.94,10.41-.13,2.48-.5,4.66-.94,6.51,1.91,1.74,3.82,3.49,5.74,5.23.09,1.13.4,2.89,1.5,4.64.59.94,1.33,1.75,3.61,3.52,3.81,2.95,6.01,3.96,5.87,4.26-.24.53-7.71-2.29-9.34-2.91-.93-.35-1.71-.66-2.27-.88-.04.53-.04,1.36.31,2.25,0,0,.14.36.48.86,0,0,.64.96,1.67,1.7,14.72,10.6,26.41,10.85,26.41,10.85,9.9.21,17.34-3.46,20.75-5.43Z"/><path class="cls-11" d="M101.32,111.2c-5.03-1.91-11.12-4.71-17.58-8.84-5.87-3.75-10.58-7.68-14.24-11.14-.32.54-.99,1.84-.91,3.53.07,1.31.56,2.28.72,2.54.29.48.57.8.76,1,1.75,1.87,5.01,3.47,6.87,4.39,4.21,2.08,9.8,4.92,16.79,8.42.83-.08,1.87-.1,3.05.03,1.8.2,3.37.46,4.65.82"/><path class="cls-18" d="M99.8,63.02c-.62.09-1.29.21-1.99.37-1.04.23-1.58.35-2.27.65-.51.22-1.12.47-1.75,1.01-.8.67-1.19,1.4-1.54,2.04,0,0-.69,1.31-.98,2.72-.41,2.03-4.19,11.47-2.05,23.71.96-.58,1.65-1.2,2.1-1.66.46-.47.98-1.01,1.39-1.84.4-.79.52-1.48.58-1.84.53-3.24.5-6.18.5-6.18-.02-1.75.27-4.65.85-10.46.06-.62.18-1.72.73-2.99.31-.72.67-1.28.93-1.69.36-.56.91-1.34,1.68-2.17.46-.5,1.07-1.09,1.82-1.67Z"/><path class="cls-19" d="M46.12,70.81l-2.08,4.24c-5.27-2.72-11.09-5.42-17.45-7.97-6.69-2.67-5.7-3.68-11.57-5.35-.32-.09-.57-.34-.7-.67-.36-.92-.84-1.94-1.47-3.01-.48-.81-.98-1.53-1.47-2.17-.61-.78-.02-1.99.91-1.9.01,0,.02,0,.04,0,3.35.33,2.54.19,13.64,5.26,5.38,2.46,12.38,6.13,20.17,11.56Z"/><path class="cls-20" d="M46.59,80.26l.03,2.65c.01,1.28-1.14,2.17-2.23,1.73-13.72-5.66-16.61-7.5-30.33-13.16-.28-.12-.53-.32-.72-.58-.33-.45-.65-.91-.98-1.36-.9-1.26.02-3.13,1.47-2.94.01,0,.03,0,.04,0,0,0,1.58.21,3.19.62,2.48.64,7.18,2.77,28.43,11.35.65.26,1.08.94,1.09,1.69Z"/><path class="cls-21" d="M49.1,94.79l-44.82-11.07c-.25-.07-.49-.23-.66-.47-1.1-1.5-2.19-3-3.29-4.51-.71-.98-.19-2.52.84-2.51.32,0,.65.01,1,.03,3.73.17,6.5,1.07,7.3,1.32,3.97,1.23,8.89,2.02,33.49,8.26.44.11.8.52.94,1.05h0c.07.28.21.53.39.72,1.4,1.45,2.79,2.9,4.19,4.35.22.23.38.54.44.88.07.46.17.83.26,1.11.14.43.32.83.23.93-.06.06-.2-.02-.31-.1Z"/><path class="cls-23" d="M38.64,93.73c3.36.53,5.36,1.46,8.23,2.07,3.02.64,5.54,1.33,7.4,1.87.3.09.55.33.69.65.14.3.32.66.56,1.03.39.6.79,1.03,1.83,2,.76.7,1.14,1.05,1.89,1.68,1.92,1.62,2.85,2.21,2.79,2.34-.06.13-1.12-.43-2.65-1.14-1.04-.48-3.69-1.55-5.94-2.42,0,0-1.94-.64-4.6-1.09-4-.68-10.89-2.13-39.21-4.56-.24-.02-.46-.13-.64-.32-1.15-1.2-2.29-2.4-3.44-3.59-.64-.67-.37-1.94.48-2.13,0,0,.02,0,.02,0,.89-.2,1.59-.18,1.88-.17,7.95.26,9.99.53,9.99.53,5.47.73,3.81.25,10.72,1.12"/><path class="cls-29" d="M10.45,100.65c.68-.46.73-.32.87-.29,1.23.24,11.79.69,37.88,2.04.74.04,1.37.67,1.52,1.54v.04c.22,1.23-.58,2.38-1.63,2.34-14.83-.62-21.73-.68-36.56-1.29-.38-.02-.74-.19-1.02-.49"/><path class="cls-30" d="M15.03,110.51c1.2-.52,2.24-.44,2.46-.43,1.5.06,8.9-.68,33.67-1.81,1.35-.06,2.68.36,3.79,1.22,0,0,.02.01.02.02,1.53,1.18,1.97,1.62,2.89,2.16,1.37.81,2.15.87,2.15,1,0,.49-1.15,1.11-40.29,1.93-1.56.03-3.07-.59-4.24-1.73"/><path class="cls-31" d="M67.88,124.74c1.87-1.44,3.53-2.08,4.69-2.41,2.29-.63,4.45-.52,6.79-2.25.32-.24.57-.45.72-.59-5.33-1.63-10.66-3.26-15.99-4.89-3.32,0-7.86.06-13.25.33-4.52.23-11.26.59-19.93,1.82-4.01.57-5.29-.45-11.4.92.31.28-.04,2.17.56,2.55,1.37.87,2.66,1.23,3.66,1.43,3.14.65,5.83.39,5.83.39,3.15-.31,16-1.56,38.04-4.03-1.48.28-4.06.77-5.61,1.07-6.07,1.15-7.43,1.4-9.59,1.86-3.42.72-5.13,1.08-6.85,1.58-3.67,1.06-6.57,2.31-8.51,3.24.25.06.63.17,1.08.33.86.31,1.46.64,1.53.67,1.72.89,13.89-2.05,16.03-2.51,2.73-.59,6.82-.94,12.21.48Z"/><path class="cls-15" d="M117.44,136.83c.33,1.38,1.19,3.34,1.42,3.32.62-.04-.08-6.26,2.56-7.78,1.18-.69,2.79-.28,3.95,0,1.29.32,2.25.89,2.84,1.3,1.39-2.61,2.05-4.9,2.4-6.49,1.1-5,.42-9.43,0-12.04-.07-.46-.13-.79-.18-1.01-.41-2.08-1.32-5.08-4.48-13.22-1.18-3.04-2.85-7.2-5-12.1-.53.17-1.29.34-2.2.31-1.58-.06-2.73-.71-3.28-1.08-.19,3.91.02,6.54.26,8.25.14,1.03.12,1.99.07,3.92-.02.86-.08,2-.77,3.12-.2.31-.39.55-.54.71.22,1.09.54,2.91.75,5.18.22,2.43.14,3.48.27,8.95.06,2.78.1,4.18.18,5.77.07,1.3.15,2.35.21,2.98.19,2.36.29,3.54.47,4.58.46,2.64.17,1.43,1.09,5.33Z"/><path class="cls-32" d="M129.4,161.66c-.36,2.5-1.27,6.45-3.86,10.52-1.46,2.29-3.07,4.02-4.44,5.26.38,1.74.65,3.52,1.19,5.23,9.54,30.51,19.65,57.91,27.85,84.83-1.46-8.72-2.76-16.32-3.84-22.51-.32-1.82-1.63-9.32-3.38-19.09-1.22-6.8-1.97-10.83-3.15-17.68-.75-4.31-1.34-7.86-1.74-10.22,0-.04,0-.1-.02-.1-.08-.01-.23,1.89-.81,3.55-.24.7-.69,1.73-1.57,2.88-2.08-14.22-4.15-28.45-6.23-42.67Z"/><path class="cls-22" d="M120.68,176.67c2.02,5.5,4.04,11.01,6.06,16.51-.54,8.54-.93,15.94-1.2,21.89-.26,5.75-.6,13.34-.8,22.65-.15,7.1-.23,10.65-.19,14.62.03,3.05.09,5.19-.01,5.19-.16,0-.52-4.79-1.44-15.88-.48-5.7-.96-11.4-1.45-17.09-.62-7.37-.83-9.83-1.11-13.74-.3-4.17-.5-7.47-.64-10.03-.29-5.11-.17-4.12-.35-6.93-.46-7.11-.93-9-.3-12.44.38-2.07.98-3.71,1.43-4.76Z"/><path class="cls-1" d="M61.42,97.78c-4.62-3.69-9.23-7.39-13.85-11.08,0,.68-.02,1.35-.03,2.03,1.98,1.82,3.97,3.63,5.95,5.45,2.64,1.2,5.29,2.4,7.93,3.6Z"/><path class="cls-17" d="M144.59,63.29c-2.61-1.05-6.14-2.4-8.84-3.26-1.9-.61-4.21-.81-6.1-1.44-.16-.05-.33-.11-.49-.16.24.19.47.48.71.67-.44.39-.97.95-1.42,1.34,2.21.42,4.49,1.02,6.7,1.44,2.75.52,6.69.89,9.45,1.41Z"/><path class="cls-5" d="M125.55,52.41c1.58.69,2.54,1.39,3.32,1.86,1.6.96,2.19,1.23,4.46,2.6.88.53,1.51.92,2.41,1.42,3.85,2.15,7.73,4.28,9.29,5.13-1.49-.11-8.83-.11-10.45.02-7.63.65-7.16.36-11.73,2.36.38-.51.57-.72,1.08-1.26,1.19-1.24.63-.91,3.31-2.73.56-.38,1.17-.8,1.81-1.26,5.18.91,10.35,1.82,15.53,2.73-5.07-1.64-10.15-3.29-15.22-4.93-.13-.12-.32-.3-.54-.52-.2-.2-.59-.63-1.31-1.65-.3-.43-.56-.8-.87-1.31-.39-.65-.65-1.31-1.09-2.47Z"/><path class="cls-2" d="M122.85,54.97c.16-.28,1.05-1.85,2.93-3.12,2.04-1.38,3.62-1.31,3.85-1.29"/><path class="cls-2" d="M105.42,54.97c-2.38.19-7.17.99-9.55,1.18-.08,0-1.07.07-1.5.94-.24.49-.18.99-.15,1.18"/><path class="cls-6" d="M30.69,125.42c-.16.24-1.11,1.62-2.96,1.93-1.64.28-2.87-.48-3.16-.66C15.81,53.35,9.57,1.14,9.53.86c0-.02-.02-.12.02-.23.02-.05.06-.15.34-.34.2-.14.3-.21.46-.25.11-.03.27-.07.42,0,0,0,.22.1.31.5.14.62,11.83,75.17,19.62,124.89Z"/><path class="cls-25" d="M23.51,61.89c2.45.82,4.31,1.7,6.73,2.84,2.45,1.16,4.43,2.25,5.79,3.03,1.08-.51,2.36-1.06,3.77-1.53,2.1-.7,3.78-1,5-1.13-.26-.34-.64-.83-1.14-1.38-1.43-1.57-4.5-4.4-12.84-6.88-4.01-1.19-10.16-2.32-17.64-2.78-.19,1.36.32,2.98,1.2,4.37,1.36,2.15,3.66,1.63,9.13,3.45Z"/><path class="cls-24" d="M17.39,67.45c-1.24,1.14-2.47,2.29-3.71,3.43,7.51,2.18,15.02,4.36,22.52,6.54,1.25-.43,2.5-.86,3.75-1.3-.27-.37-.65-.82-1.17-1.27,0,0-.56-.47-1.25-.84-1.08-.58-9.05-3.2-20.14-6.56Z"/><path class="cls-26" d="M4.27,83.41c12.58,2.17,25.17,4.35,37.75,6.52,2.31-1.31,4.61-2.62,6.92-3.93-.35-.29-.94-.74-1.77-1.17-1.97-1.02-3.89-1.19-4.44-1.25-2.74-.29-14.36-2.32-30.62-5.2-.31.3-.62.59-.93.89-1.79.78-3.58,1.56-5.37,2.35-.44.51-.82.88-1.1,1.13-.32.28-.64.54-.66.64,0,.07.11.05.22.02Z"/><path class="cls-27" d="M11.13,95.48c1.51.22,2.71-.29,2.79-.33,1.54-.64,9.62.02,30.82,3.53,1.33-1.48,2.65-2.97,3.98-4.45-.21-.33-.5-.7-.89-1-.45-.34-.85-.44-1.01-.48-4.48-1.04-5.67-1.1-5.67-1.1-3.2-.17-2.17-.37-6.21-.63-2.89-.19-2.83-.04-7.12-.22-3.54-.15-4.22-.27-6.81-.3-1.98-.02-3.2-.06-4.93.08-1.98.16-3.65.46-4.82.71-.15.38-.38.89-.76,1.4-.78,1.07-1.48,1.24-1.45,1.68.04.56,1.19.96,2.08,1.09Z"/><path class="cls-34" d="M13.59,100.67c-.2,1.33-.4,2.67-.6,4,10.46-.14,20.92-.28,31.39-.42.72-1.08,1.44-2.15,2.15-3.23-.1-.4-.26-.87-.54-1.18-.44-.49-.93-.33-1.03-.31-.84.2-13.54.62-31.37,1.14Z"/><path class="cls-28" d="M20.86,110.34c-.21.26-.53.68-.92,1.2-.79,1.06-1,1.44-1.49,1.94-.73.75.07.61.08.71.04.4,5.64.31,29.38-2.01.58-1,1.16-1.99,1.73-2.99-.16-.14-.42-.34-.75-.49-.73-.33-1.33-.19-1.45-.17-.88.17-11.6.86-26.58,1.8Z"/><path class="cls-35" d="M118.31,64.42c-.47.2-2.7.17-3.61.35-1.19.24-2.47-1.06-5.29-1.52-1.35-.22-2.08-3.57-2.86-4.43-.64-.71-.31-2.3,0-4.78.08-.63.46-2.67,1.99-4.17,1.22-1.19,2.58-1.49,3.94-1.8,2.32-.52,4.17-.16,4.73-.03.76.17,2.08.48,3.43,1.46,1.02.74,1.55,1.49,2.55,2.89,1.21,1.7,1.17,2.22,2.04,3.4.62.84,1.63,1.94,3.33,2.96-.2.28-.51.7-.95,1.16-1.05,1.1-1.87,1.45-3.13,2.41-1.06.81-1.55,1.08-1.97,1.77-.28.46-.5.77-.49,1.17,0,.18.05.62.65,1.25.84.89,1.88,1.2,1.99,1.23,2.93.91,6.11,9.72,6.11,9.72,1.21,3.37,2.59,8.01,3.51,13.77-.74-.35-1.84-.91-3.11-1.73-1.83-1.19-4.74-3.08-6.79-6.58-.52-.88-.99-2.25-1.92-4.99-1.59-4.69-2.39-7.04-2.45-9.07-.04-1.48-.15-2.02-1-4.18-.34-.87-.41.18-.7-.26Z"/><path class="cls-33" d="M23.53,117.11c2.07-.34,4.9-.75,8.29-1.04,2.85-.24,7.09-.59,12.66-.32,2.58.13,5.97.41,9.97,1.08-.16.3-.39.71-.71,1.13-.73.96-1.48,1.43-2.07,1.73-1.86.94-3.57.96-3.57.96-2,.03-12.19.12-26.26.04"/><path class="cls-17" d="M113.2,51.71c-.36.12-1.02.39-1.59,1-.93,1.01-.96,2.24-.98,2.78-.02.54-.04,1.37.47,2.21.6.99,1.56,1.36,1.94,1.51.42.16,1.22.47,2.2.23.65-.16,1.09-.48,1.21-.57.5-.39.74-.82.8-.92.56-1.03.25-2.13.13-2.57-.3-1.11-.98-1.79-1.35-2.15-1.04-1.01-2.22-1.38-2.84-1.52Z"/><ellipse class="cls-4" cx="112.8" cy="55.91" rx="1.26" ry="1.63" transform="translate(-6.83 16.7) rotate(-8.22)"/><circle class="cls-36" cx="114.48" cy="56.92" r="9.06"/><circle class="cls-2" cx="114.57" cy="56.92" r="9.06" transform="translate(-13.27 52.02) rotate(-24.23)"/></g></svg>