<?xml version="1.0" encoding="UTF-8"?><svg id="Layer_2" xmlns="http://www.w3.org/2000/svg" xmlns:xlink="http://www.w3.org/1999/xlink" viewBox="0 0 349.52 268.81"><defs><style>.cls-1{fill:#58595b;}.cls-2{fill:#d1d3d4;}.cls-3{fill:#bcbec0;}.cls-4{fill:#231f20;}.cls-5{fill:#6d6e71;}.cls-6{fill:#414042;}.cls-7{fill:url(#radial-gradient);}.cls-8{fill:#f1f2f2;}.cls-9{fill:#808285;}.cls-10{fill:#e6e7e8;}.cls-11{fill:#939598;}.cls-12{fill:#a7a9ac;}</style><radialGradient id="radial-gradient" cx="174.76" cy="113.63" fx="174.76" fy="113.63" r="147.4" gradientUnits="userSpaceOnUse"><stop offset="0" stop-color="#fff"/><stop offset=".44" stop-color="#fcfdfd"/><stop offset=".63" stop-color="#f5f6f6"/><stop offset=".77" stop-color="#e9eaea"/><stop offset=".88" stop-color="#d7d8da"/><stop offset=".98" stop-color="#c0c2c4"/><stop offset="1" stop-color="#bcbec0"/></radialGradient></defs><g id="Layer_1-2"><path class="cls-7" d="M100.02,225.02c-44.98,8.41-84.21-7.73-96.08-35.18-8.06-18.62-1.4-37.53-.52-39.9,8.55-23.22,32.49-39.47,61.43-41.48-1.31-19.18,7.49-37.51,23.1-47.78,20.09-13.21,41.73-6.7,44.63-5.78,2.06-5.21,17-41.21,54.08-51.98,40.67-11.81,84.72,13.51,100.28,49.35,9.96,22.92,5.95,44.83,3.68,54.08,3.53.03,28.45.64,45.68,21.53,17.31,20.98,13.02,45.63,12.08,50.4-.64,3.24-6.21,30.38-28.35,40.95-8.58,4.1-16.49,4.21-21.73,4.13-25.88-.38-56.77-.94-92.2-2.03-35.35,1.23-70.71,2.45-106.06,3.68Z"/><ellipse class="cls-8" cx="112.54" cy="256.22" rx="56.29" ry="12.49"/><ellipse class="cls-5" cx="112.58" cy="250.89" rx="56.29" ry="12.49"/><ellipse class="cls-10" cx="112.54" cy="250.89" rx="56.29" ry="12.49"/><ellipse class="cls-2" cx="112.54" cy="245.68" rx="56.29" ry="12.49"/><ellipse class="cls-3" cx="112.54" cy="239.74" rx="56.29" ry="12.49"/><ellipse class="cls-12" cx="112.56" cy="234.92" rx="56.29" ry="12.49"/><ellipse class="cls-11" cx="112.56" cy="230.92" rx="56.29" ry="12.49"/><ellipse class="cls-9" cx="112.56" cy="226.43" rx="56.29" ry="12.49"/><ellipse class="cls-5" cx="112.59" cy="221.1" rx="56.29" ry="12.49"/><ellipse class="cls-1" cx="112.56" cy="221.1" rx="56.29" ry="12.49"/><ellipse class="cls-6" cx="112.56" cy="215.89" rx="56.29" ry="12.49"/><ellipse class="cls-4" cx="112.56" cy="209.95" rx="56.29" ry="12.49"/><ellipse class="cls-8" cx="240.82" cy="256.33" rx="56.29" ry="12.49"/><ellipse class="cls-5" cx="240.86" cy="251" rx="56.29" ry="12.49"/><ellipse class="cls-10" cx="240.82" cy="251" rx="56.29" ry="12.49"/><ellipse class="cls-2" cx="240.82" cy="245.78" rx="56.29" ry="12.49"/><ellipse class="cls-3" cx="240.82" cy="239.85" rx="56.29" ry="12.49"/><ellipse class="cls-12" cx="240.84" cy="235.03" rx="56.29" ry="12.49"/><ellipse class="cls-11" cx="240.84" cy="231.03" rx="56.29" ry="12.49"/><ellipse class="cls-9" cx="240.84" cy="226.54" rx="56.29" ry="12.49"/><ellipse class="cls-5" cx="240.88" cy="221.21" rx="56.29" ry="12.49"/><ellipse class="cls-1" cx="240.84" cy="221.21" rx="56.29" ry="12.49"/><ellipse class="cls-6" cx="240.84" cy="215.99" rx="56.29" ry="12.49"/><ellipse class="cls-4" cx="240.84" cy="210.06" rx="56.29" ry="12.49"/></g></svg>