<?xml version="1.0" encoding="UTF-8"?><svg id="Layer_2" xmlns="http://www.w3.org/2000/svg" xmlns:xlink="http://www.w3.org/1999/xlink" viewBox="0 0 364.31 364.31"><defs><style>.cls-1{fill:url(#linear-gradient-2);}.cls-1,.cls-2,.cls-3,.cls-4{stroke:#868284;stroke-miterlimit:10;stroke-width:2px;}.cls-2{fill:none;}.cls-3{fill:url(#linear-gradient);}.cls-4{fill:#61bfd6;}</style><linearGradient id="linear-gradient" x1="182.15" y1="352.64" x2="182.15" y2="1" gradientUnits="userSpaceOnUse"><stop offset="0" stop-color="#f5f4bb"/><stop offset=".43" stop-color="#382517"/><stop offset=".63" stop-color="#59534f"/><stop offset=".76" stop-color="#6d6e71"/></linearGradient><linearGradient id="linear-gradient-2" x1="173.87" y1="95.06" x2="173.87" y2="1" gradientUnits="userSpaceOnUse"><stop offset=".12" stop-color="#61bfd6"/><stop offset="1" stop-color="#f1f2f2"/></linearGradient></defs><g id="Layer_1-2"><circle class="cls-4" cx="182.15" cy="182.15" r="181.15"/><path class="cls-3" d="M73.52,315.91c.05-3.04.22-9.25,3.14-15.87,2.03-4.6,5.59-9.87,15.25-17.05,10.49-7.8,19.53-11.44,35.19-17.61,10.59-4.12,22.2-8.03,34.79-11.43,4.98-1.35,9.75-2.97,14.38-4.2,3.79-1.07,10.79-3.5,20.46-7.13,16.87-6.35,25.58-10.3,23.58-11.31-1.73-.87-3.25-1.14-11.97-4.24-5.65-2.01-10.43-3.64-11.94-4.26-15.04-6.18-27.03-10.79-28.15-18.44-1.38-9.48,10.38-18.9,19.23-26,13.02-10.44,33-20.5,32.76-27.65,0-.15-.02-.3-.02-.3-.49-6.43-9.15-10.2-10.18-10.63-4.14-1.74-6.53-1.28-6.55-1.85-.05-1.37,13.9-3.67,27.1-1.72,1.29.19,3.71.57,6.55,1.85,1.46.66,9.71,4.37,10.18,10.63,0,0,.01.15.02.3.24,7.15-19.73,17.21-32.76,27.65-8.33,6.67-21.4,17.16-19.23,26,2.01,8.2,16.91,14.04,28.15,18.44,1.98.78,2.14.76,4.53,1.72,11.27,4.5,20.61,8.51,21.65,15.18.03.16.03.3.03.43.18,10.76-25.51,21.85-69.64,39.49-40.58,16.21-42.92,28.78-40.89,37.13,2.87,11.83,24.3,17.42,59.84,26.34,12.32,3.09,27.24,6.86,44.51,11.28,69.84-25.14,119.79-91.98,119.79-170.49C363.31,82.11,282.2,1,182.15,1S1,82.11,1,182.15c0,59.97,29.15,113.12,74.04,146.09-1.61-6.8-1.52-12.34-1.52-12.34Z"/><polyline class="cls-2" points="23.4 94.85 42.41 87.78 55.99 81.84 65.32 81.84 78.05 75.06 93.32 70.81 105.2 70.81 116.23 78.45 125.56 75.91 137.44 79.3 146.77 94.85 156.1 99.66 156.1 108.14 162.89 117.48 173.07 121.72 185.8 131.9 194.28 136.99 203.47 137.93"/><polyline class="cls-2" points="109.71 73.79 122.85 69.87 133.32 62.94 144.67 60.73 152.34 54.69 157.79 53.65 162.45 49.88 168.92 54.63 178.43 49.88 184.75 40.68 199.75 35.64 213.24 31.68 229.06 35.64 236.98 44.34 246.47 47.51 251.88 55.18 257.25 53.84 263.51 53.84 268.89 50.7 273.14 51.97 276.44 55.97 278.56 60.91 283.26 61.95 286.09 64.67 293.38 69.15 296.2 69.15 300.89 70.07 307.24 72.22 316.35 70.81 320.04 69.04 324.35 69.9"/><path class="cls-1" d="M23.4,95.06c10.51-4.2,21.01-8.41,31.52-12.61h10.44l11.08-6.31,15.02-4.7h13.63l3.83,2.89,13.74-3.95,9.58-6.63,12.25-2.67,7.35-6.2,5.22-.53,5.01-3.85,6.82,4.38,8.63-4.38,7.35-9.73,28.33-8.76,15.55,4.06,7.99,8.34,9.9,3.53,5.43,7.7,4.79-1.28,7.24-.21,5.01-3.31,3.51,1.28,4.15,4.38,1.92,4.7,4.47,1.07,2.98,2.89,6.71,4.28,4.69.21,9.27,2.89,3.41-.32,3.83-.53,3.41-.53,2.56-1.39c1.46.18,2.91.36,4.37.53-2.26-2.9-5.06-6.32-8.41-10.05-3.57-3.97-6.52-6.9-7.88-8.23-5.66-5.54-10.34-9.36-11.71-10.47-6.01-4.86-10.88-8.05-14.59-10.47-9.02-5.88-16.27-9.6-18.21-10.58-7.6-3.85-13.6-6.22-17.36-7.7-4.72-1.85-9.06-3.55-15.12-5.24-4.87-1.35-8.29-1.98-14.91-3.21-7.73-1.43-12.69-2.34-19.59-2.89-5.73-.45-10.2-.44-14.8-.43-2.95,0-7.59.03-13.63.43-3.94.26-9.44.64-16.51,1.82-6.67,1.11-11.57,2.4-16.19,3.63-3.94,1.05-9.43,2.53-16.51,5.13-7.41,2.72-12.94,5.35-15.33,6.52-5.57,2.72-9.51,5.05-13.63,7.48-3.67,2.17-7.77,4.6-12.99,8.23-1.39.96-6.27,4.39-12.35,9.41-3,2.48-6.08,5.03-9.9,8.76-3.76,3.68-6.36,6.66-8.95,9.62-1.16,1.33-4.21,4.86-7.99,9.73-3.53,4.54-5.5,7.08-7.77,10.69-1.85,2.93-4.27,7.15-6.6,12.61Z"/></g></svg>