<?xml version="1.0" encoding="UTF-8"?><svg id="Layer_2" xmlns="http://www.w3.org/2000/svg" xmlns:xlink="http://www.w3.org/1999/xlink" viewBox="0 0 77.9 252.92"><defs><style>.cls-1{fill:#d1d3d4;}.cls-2{fill:url(#radial-gradient-7);}.cls-3{fill:url(#radial-gradient-8);}.cls-4{fill:url(#linear-gradient-8);}.cls-5{fill:url(#linear-gradient-7);}.cls-6{fill:url(#linear-gradient-5);}.cls-7{fill:url(#linear-gradient-6);}.cls-8{fill:url(#linear-gradient-9);}.cls-9{fill:url(#linear-gradient-4);}.cls-10{fill:url(#linear-gradient-3);}.cls-11{fill:url(#linear-gradient-2);}.cls-12{fill:#231f20;}.cls-13{fill:url(#radial-gradient);}.cls-13,.cls-14,.cls-15,.cls-16,.cls-17,.cls-18,.cls-19,.cls-20,.cls-21,.cls-22,.cls-23,.cls-24,.cls-25,.cls-26,.cls-27{stroke-miterlimit:10;}.cls-13,.cls-22,.cls-23{stroke-width:2px;}.cls-13,.cls-22,.cls-23,.cls-25,.cls-26,.cls-27{stroke:#878284;}.cls-28{fill:url(#linear-gradient);}.cls-14{fill:#f5f3b5;stroke:#6d6e71;}.cls-15,.cls-17,.cls-18,.cls-19,.cls-20,.cls-21{stroke-width:.5px;}.cls-15,.cls-17,.cls-18,.cls-19,.cls-20,.cls-21,.cls-24{stroke:#212631;}.cls-15,.cls-24{fill:#212631;}.cls-16{stroke:#f5f3b5;stroke-width:.75px;}.cls-16,.cls-29{fill:#878284;}.cls-17{fill:url(#linear-gradient-11);}.cls-18{fill:url(#linear-gradient-12);}.cls-19{fill:url(#linear-gradient-14);}.cls-20{fill:url(#linear-gradient-16);}.cls-21{fill:url(#linear-gradient-15);}.cls-22{fill:url(#radial-gradient-6);}.cls-23{fill:url(#radial-gradient-3);}.cls-30{fill:url(#linear-gradient-10);}.cls-31{fill:url(#linear-gradient-13);}.cls-32{fill:url(#linear-gradient-19);}.cls-33{fill:url(#linear-gradient-21);}.cls-34{fill:url(#linear-gradient-20);}.cls-35{fill:url(#linear-gradient-22);}.cls-36{fill:url(#linear-gradient-23);}.cls-37{fill:url(#linear-gradient-17);}.cls-38{fill:url(#linear-gradient-18);}.cls-39{fill:url(#linear-gradient-24);}.cls-25{fill:url(#radial-gradient-4);}.cls-26{fill:url(#radial-gradient-2);}.cls-26,.cls-27{stroke-width:1.5px;}.cls-27{fill:url(#radial-gradient-5);}</style><radialGradient id="radial-gradient" cx="879.74" cy="85.26" fx="879.74" fy="85.26" r="10.66" gradientTransform="translate(908.55 11.54) rotate(-180) scale(1 -.96)" gradientUnits="userSpaceOnUse"><stop offset="0" stop-color="#f5f3b5"/><stop offset=".27" stop-color="#f2f2b5"/><stop offset=".42" stop-color="#eaf0b6"/><stop offset=".54" stop-color="#dcecb9"/><stop offset=".64" stop-color="#c9e7bc"/><stop offset=".73" stop-color="#b0e1c1"/><stop offset=".82" stop-color="#90d9c7"/><stop offset=".9" stop-color="#6bd0cd"/><stop offset=".97" stop-color="#42c5d5"/><stop offset="1" stop-color="#2fc1d9"/></radialGradient><radialGradient id="radial-gradient-2" cx="645.05" cy="120.49" fx="645.05" fy="120.49" r="13.41" gradientTransform="translate(782.33 -23.88) rotate(-180) scale(1.13 -1.07)" xlink:href="#radial-gradient"/><radialGradient id="radial-gradient-3" cx="867.08" cy="82.66" fx="867.08" fy="82.66" r="16.21" gradientTransform="translate(908.55) rotate(-180) scale(1 -1)" xlink:href="#radial-gradient"/><radialGradient id="radial-gradient-4" cx="878.55" cy="90.5" fx="878.55" fy="90.5" r="3.76" gradientTransform="translate(-848.55 180.99) scale(1 -1)" xlink:href="#radial-gradient"/><radialGradient id="radial-gradient-5" cx="666.04" cy="119.86" fx="666.04" fy="119.86" r="13.11" gradientTransform="translate(782.33 -23.88) rotate(-180) scale(1.13 -1.07)" xlink:href="#radial-gradient"/><radialGradient id="radial-gradient-6" cx="854.99" cy="111.11" fx="854.99" fy="111.11" r="12.93" gradientTransform="translate(908.55) rotate(-180) scale(1 -1)" xlink:href="#radial-gradient"/><linearGradient id="linear-gradient" x1="-6.96" y1="62.17" x2="9.77" y2="62.17" gradientTransform="translate(52.91) rotate(-180) scale(1 -1)" gradientUnits="userSpaceOnUse"><stop offset="0" stop-color="#222732"/><stop offset=".18" stop-color="#252a33"/><stop offset=".32" stop-color="#2f333a"/><stop offset=".45" stop-color="#3f4344"/><stop offset=".57" stop-color="#575a53"/><stop offset=".69" stop-color="#767866"/><stop offset=".8" stop-color="#9b9c7d"/><stop offset=".9" stop-color="#c7c698"/><stop offset="1" stop-color="#f5f3b5"/></linearGradient><linearGradient id="linear-gradient-2" x1="-2697.44" y1="1545.06" x2="-2662.29" y2="1545.06" gradientTransform="translate(1829.38 2582.45) rotate(84.88)" gradientUnits="userSpaceOnUse"><stop offset="0" stop-color="#85288f"/><stop offset=".07" stop-color="#802f92"/><stop offset=".17" stop-color="#74459d"/><stop offset=".3" stop-color="#6068ae"/><stop offset=".45" stop-color="#4598c5"/><stop offset=".55" stop-color="#2fc1d9"/><stop offset="1" stop-color="#222732"/></linearGradient><linearGradient id="linear-gradient-3" x1="-2060.36" y1="1365.31" x2="-2010.97" y2="1365.31" gradientTransform="translate(1126.05 2320.83) rotate(97.99)" gradientUnits="userSpaceOnUse"><stop offset="0" stop-color="#fff"/><stop offset=".51" stop-color="#ce2027"/><stop offset="1" stop-color="#212631"/></linearGradient><linearGradient id="linear-gradient-4" x1="-2060.9" y1="1366.42" x2="-2007.5" y2="1366.42" gradientTransform="translate(1126.49 2321.03) rotate(97.98)" xlink:href="#linear-gradient-3"/><linearGradient id="linear-gradient-5" x1="-2072.42" y1="1367.28" x2="-1993.08" y2="1367.28" xlink:href="#linear-gradient-3"/><linearGradient id="linear-gradient-6" x1="-2151.08" y1="1414.21" x2="-2068.53" y2="1414.21" gradientTransform="translate(1228.19 2364.32) rotate(96.25)" xlink:href="#linear-gradient-3"/><linearGradient id="linear-gradient-7" x1="-1894.19" y1="729.53" x2="-1834.92" y2="729.53" gradientTransform="translate(870.07 2275.74) rotate(105.51) scale(1 1.87)" xlink:href="#linear-gradient-3"/><linearGradient id="linear-gradient-8" x1="-1888.48" y1="116.65" x2="-1826.62" y2="116.65" gradientTransform="translate(-171.09 1967.53) rotate(104.09) scale(1 2.04)" xlink:href="#linear-gradient-3"/><linearGradient id="linear-gradient-9" x1="-2.1" y1="79.24" x2="3.45" y2="79.24" gradientTransform="translate(52.91) rotate(-180) scale(1 -1)" gradientUnits="userSpaceOnUse"><stop offset="0" stop-color="#f5f3b5"/><stop offset="1" stop-color="#222732"/></linearGradient><linearGradient id="linear-gradient-10" x1="-1136.84" y1="-2917.7" x2="-1100.87" y2="-2917.7" gradientTransform="translate(1705.63 2163.22) rotate(120.28) scale(.88 -.87)" gradientUnits="userSpaceOnUse"><stop offset="0" stop-color="#222732"/><stop offset=".5" stop-color="#f5f3b5"/></linearGradient><linearGradient id="linear-gradient-11" x1="-999.85" y1="-1760.27" x2="-945.17" y2="-1760.27" gradientTransform="translate(498.25 2132.9) rotate(138.45) scale(1 -1)" xlink:href="#linear-gradient-3"/><linearGradient id="linear-gradient-12" x1="-983.37" y1="-1769.76" x2="-932.61" y2="-1769.76" gradientTransform="translate(498.25 2132.9) rotate(138.45) scale(1 -1)" gradientUnits="userSpaceOnUse"><stop offset="0" stop-color="#212631"/><stop offset=".22" stop-color="#ce2027"/><stop offset=".38" stop-color="#2fc1d9"/><stop offset="1" stop-color="#fff"/></linearGradient><radialGradient id="radial-gradient-7" cx="-1119.85" cy="-41.59" fx="-1119.85" fy="-41.59" r="9.16" gradientTransform="translate(-878.88 397.8) rotate(171.95) scale(.87 -6)" gradientUnits="userSpaceOnUse"><stop offset="0" stop-color="#878284"/><stop offset=".84" stop-color="#262e38"/></radialGradient><linearGradient id="linear-gradient-13" x1="-2492.23" y1="25.41" x2="-2472.38" y2="25.41" gradientTransform="translate(2525.51)" gradientUnits="userSpaceOnUse"><stop offset=".19" stop-color="#f5f3b5"/><stop offset=".27" stop-color="#eceaaf"/><stop offset=".39" stop-color="#d5d4a1"/><stop offset=".55" stop-color="#b0b18a"/><stop offset=".73" stop-color="#7d7f6a"/><stop offset=".93" stop-color="#3c4042"/><stop offset="1" stop-color="#222732"/></linearGradient><linearGradient id="linear-gradient-14" x1="-89.68" y1="322.49" x2="-21.05" y2="322.49" gradientTransform="translate(114.07 -162.72) rotate(-161.21) scale(1 -1)" gradientUnits="userSpaceOnUse"><stop offset="0" stop-color="#fff"/><stop offset=".62" stop-color="#2fc1d9"/><stop offset=".78" stop-color="#ce2027"/><stop offset="1" stop-color="#212631"/></linearGradient><linearGradient id="linear-gradient-15" x1="-46.95" y1="333.43" x2="3.26" y2="333.43" gradientTransform="translate(119.28 -161.74) rotate(-160.31) scale(1 -1)" gradientUnits="userSpaceOnUse"><stop offset="0" stop-color="#fff"/><stop offset=".33" stop-color="#85288f"/><stop offset=".51" stop-color="#ce2027"/><stop offset="1" stop-color="#212631"/></linearGradient><linearGradient id="linear-gradient-16" x1="8.95" y1="252.88" x2="8.95" y2="83.56" gradientTransform="translate(52.91) rotate(-180) scale(1 -1)" xlink:href="#linear-gradient-3"/><linearGradient id="linear-gradient-17" x1="-2505.11" y1="-874.69" x2="-2465.18" y2="-874.69" gradientTransform="translate(1052.31 2470.36) rotate(86.14) scale(1 -1)" gradientUnits="userSpaceOnUse"><stop offset="0" stop-color="#f5f3b5"/><stop offset=".27" stop-color="#e7ab84"/><stop offset=".52" stop-color="#dc6f5c"/><stop offset=".74" stop-color="#d4443f"/><stop offset=".9" stop-color="#cf292d"/><stop offset="1" stop-color="#ce2027"/></linearGradient><linearGradient id="linear-gradient-18" x1="-2414.53" y1="-1037.5" x2="-2358.41" y2="-1037.5" gradientTransform="translate(1706.16 2102.14) rotate(73.03) scale(1 -1)" xlink:href="#linear-gradient-3"/><linearGradient id="linear-gradient-19" x1="-2414.78" y1="-1036.32" x2="-2354.11" y2="-1036.32" gradientTransform="translate(1705.76 2102.4) rotate(73.04) scale(1 -1)" xlink:href="#linear-gradient-3"/><linearGradient id="linear-gradient-20" x1="-2428.22" y1="-1035.27" x2="-2338.09" y2="-1035.27" gradientTransform="translate(1706.16 2102.14) rotate(73.03) scale(1 -1)" xlink:href="#linear-gradient-3"/><linearGradient id="linear-gradient-21" x1="-2434.66" y1="-997.46" x2="-2340.88" y2="-997.46" gradientTransform="translate(1612.07 2161.04) rotate(74.77) scale(1 -1)" xlink:href="#linear-gradient-3"/><linearGradient id="linear-gradient-22" x1="-2560.38" y1="-517.74" x2="-2493.05" y2="-517.74" gradientTransform="translate(1951.96 2017.64) rotate(65.51) scale(1 -1.87)" xlink:href="#linear-gradient-3"/><linearGradient id="linear-gradient-23" x1="-2497.72" y1="-1033.39" x2="-2427.45" y2="-1033.39" gradientTransform="translate(2932.22 1550.64) rotate(66.92) scale(1 -2.04)" xlink:href="#linear-gradient-3"/><linearGradient id="linear-gradient-24" x1="34.14" y1="81.3" x2="38.38" y2="81.3" gradientTransform="translate(52.91) rotate(-180) scale(1 -1)" gradientUnits="userSpaceOnUse"><stop offset="0" stop-color="#222732"/><stop offset=".1" stop-color="#353a3e"/><stop offset=".32" stop-color="#696c5e"/><stop offset=".62" stop-color="#bbbb91"/><stop offset=".81" stop-color="#f5f3b5"/></linearGradient><radialGradient id="radial-gradient-8" cx="34.92" cy="59.6" fx="34.92" fy="59.6" r="22.7" gradientUnits="userSpaceOnUse"><stop offset="0" stop-color="#2fc1d9"/><stop offset=".48" stop-color="#2a7384"/><stop offset=".83" stop-color="#27414d"/><stop offset="1" stop-color="#262e38"/></radialGradient></defs><g id="Layer_1-2"><path class="cls-13" d="M16.71,85.19c8.05.02,16.1.44,24.15.46.36.79.33,1.06.02,1.83-.26.64-.71.96-1.16.81v11.24c-.05.3-.15.83-.39,1.34-.3.65-.66.92-.83,1.03-3.34,0-6.69.02-10.03.02-3.09,0-6.18.01-9.26.02-.16-.06-.51-.25-.83-.8-.37-.65.17-.65.14-.93-.02-3.9-.57-6.8-.58-10.69-.07.01-.75-1.67-1.14-2.42-.36-.7-.36-.97-.08-1.9Z"/><polygon class="cls-26" points="39.36 89.64 66.61 104.59 65.16 121.02 39.33 100.83 39.36 89.64"/><path class="cls-16" d="M42.5,110.7c.56-2.3,2.22-9.42,2.78-11.72.56-2.3,1.12-4.6,1.68-6.9.69.26,1.39.52,2.08.78-.18-2.68-.36-5.36-.53-8.05-1.04-.23-2.09-.45-3.13-.68-1.26,2.17-2.52,4.34-3.78,6.51.71.27,1.42.54,2.13.82-1.18,4.94-3.46,14.69-4.64,19.63,1.14-.13,2.28-.26,3.42-.39Z"/><path class="cls-16" d="M53.16,105.26s7.27-5.93,7.29-5.95,3.38-2.68,3.4-2.7c.44.25,1.25.62,2.3.65,1.64.04,3.18-.52,3.82-.98.77-.56,1.5-1.66,1.9-3.2.43-1.63-.22-3.01-.44-3.44-.36.6-1.64,2.56-3.83,2.96-.84.15-1.41,0-1.52-.04-1.84-.53-2.42-2.69-2.45-2.81-.07-.29-.23-.95-.07-1.69.34-1.53,1.89-2.73,3.88-3.15-.52-.28-1.37-.64-2.45-.74-.41-.04-2.48-.22-4.07,1.02-1.64,1.27-2.29,3.68-1.68,6.06-3.87,3.34-7.74,6.68-11.61,10.01,3.14.25,2.39,3.75,5.53,3.99Z"/><path class="cls-23" d="M51.79,84.4c.36.68.38,1.34.38,1.64,0,.36.01.63,0,.69-.04.81-.06,5.5-.05,13.47,1.31.04,2.63-.04,3.95,0,.09-8.3.1-14.35.13-15.6,0-.34.07-1.32-.52-2.07-.6-.78-1.17-1.23-1.55-1.55-1.64-1.38-12.74-7.93-24.26-15.83-.47-.08-1.28-.13-1.9.35-.57.44-.72,1.11-.78,1.38-.33,1.5-.51,11.77-.45,20.9h3.13c-.34-6.29-.41-14.49-.19-15.66.04-.21.14-.76.57-1.1.5-.39,1.17-.35,1.4-.27,2.76.97,17.16,10.35,19.02,12.2.13.13.7.71,1.1,1.45Z"/><rect class="cls-25" x="25.47" y="87.7" width="9.05" height="5.59" rx="2.8" ry="2.8" transform="translate(60 180.99) rotate(180)"/><path class="cls-16" d="M40.7,104c-2.38-3.81-9.48-19.46-11.86-23.27.26-.2.63-.54.86-1.06.27-.62.09-.95.26-1.68.07-.3.29-1.27,1.06-1.8.65-.46,1.41-.4,2.38-.33.76.06,1.37.22,1.79.36-.27-.61-.83-1.64-1.9-2.54-1.57-1.33-3.27-1.58-4-1.68-1.59-.21-2.81.09-3.82.35-1.28.33-3.52,1.11-5.88,3.07-.03.35-.11.86-.34,1.42-.2.47-.38.91-.75,1.15-.6.39-1.58.17-2.47-.46-.17,0-2.02,0-2.87,1.36-.24.38-.34.77-.37,1.09,1.03,1.81,2.06,3.62,3.1,5.43.23.17.64.43,1.2.47.91.07,1.81-.44,2.37-1.31.04-.32.13-.8.37-1.34.22-.48.36-.81.68-.96.45-.21.92.11,1.5.35.59.24,1.46.47,2.66.39,1.65,2.79,8.02,17.44,9.67,20.23,2.12.25,4.24.5,6.37.75Z"/><polygon class="cls-27" points="17.34 88.28 40.8 103.75 41.15 121.02 18.08 103.26 17.34 88.28"/><path class="cls-22" d="M39.09,100.2c9.6.03,19.21.05,28.81.08.43.97.46,2.35.09,3.3-.31.8-.85,1.19-1.38,1.01v14.44c-.06.38-.18,1.02-.47,1.66-.36.8-.79,1.14-.99,1.27-3.99,0-7.98.02-11.97.03-3.68,0-7.37.02-11.05.03-.19-.08-.61-.31-.99-1-.45-.8-.57-1.75-.61-2.1-.02-4.83-.04-9.66-.06-14.49-.09.02-.76.11-1.22-.83-.43-.86-.5-2.24-.17-3.4Z"/><rect class="cls-29" x="33.36" y="102.54" width="3.86" height="5.09" rx="1.69" ry="1.69" transform="translate(70.58 210.17) rotate(-180)"/><rect class="cls-29" x="19.16" y="98.88" width="17.22" height="2.68" transform="translate(59.46 1.17) rotate(33.23)"/><rect class="cls-29" x="18.81" y="93.07" width="3.86" height="5.09" rx="1.69" ry="1.69" transform="translate(41.49 191.23) rotate(-180)"/><path class="cls-14" d="M23.22,131.2c1.27-2.8,2.64-5.82,4.13-9.11-1.72,1.11-3.44,2.22-5.17,3.33-3.67-1.23-7.35-2.46-11.02-3.69-.34,1.4-.69,2.79-1.03,4.19-3.33-.53-6.66-1.07-9.99-1.6,7.69,2.3,15.38,4.6,23.08,6.9Z"/><path class="cls-14" d="M23.84,131.03c-.08,0-.11-.02-.2-.04-.09-.02-.2-.05-.25-.07,0,0-.22-.06-.41-.2-.3-.2-.42-27.11-.72-45.1.19-.08,1.34-.51,3.22-.53,1.67-.01,2.77.32,3.02.4-2.25,26.4-4.33,45.33-4.33,45.43,0,0,0,0,0,0,0,.03-.03.06-.05.07-.05.03-.08.05-.27.02Z"/><path class="cls-14" d="M37.27,131.45c-1.27-2.8-2.64-5.82-4.13-9.11,1.72,1.11,3.44,2.22,5.17,3.33,3.67-1.23,7.35-2.46,11.02-3.69.34,1.4.69,2.79,1.03,4.19,3.33-.53,6.66-1.07,9.99-1.6-7.69,2.3-15.38,4.6-23.08,6.9Z"/><path class="cls-14" d="M36.65,131.28c.08,0,.11-.02.2-.04.09-.02.2-.05.25-.07,0,0,.22-.06.41-.2.3-.2.42-27.11.72-45.1-.19-.08-1.34-.51-3.22-.53-1.67-.01-2.77.32-3.02.4,2.25,26.4,4.33,45.33,4.33,45.43,0,0,0,0,0,0,0,.03.03.06.05.07.05.03.08.05.27.02Z"/><path class="cls-28" d="M48.73,33.34c.36.48.72,1.01,1.1,1.61,1.38,2.22,2.53,4.8,3.47,7.3,2.58,6.16,5.47,14.82,6.41,23.73,1.21,11.43-4.4,20.2-4.79,26.83-.41-.99-.54-1.34-1.13-1.78-.31-.23-.62-.13-.84-.25-.45-2.13.3-4.45-.15-6.59-.33-.26-.83-.83-1.31-2.17-.26-.72-.47-1.56-.92-4.06-.75-4.18-.98-6.48-1.07-6.39-.16.16.44,7.9.58,9.6.08.96.14,1.77.19,2.35-.16-.04-.4-.17-.65-.64,0,0-.4-.76-.68-2.49-2.87-10.52-5.7-25.94-5.7-25.94-.65-15.88,2.48-20.91,3.15-22.34.61-1.3,1.55-.18,2.35,1.23Z"/><path class="cls-11" d="M49.14,34.05c.41,5.22,1.05,11.61,2.06,18.56.92,6.31,1.93,11.52,2.83,15.62-.17.23-.57.7-1.06.36-.38-.26-.65-.89-.72-1.09-.13-.36-.22-.68-.27-.89-.49-1.99-.86-5.43-1.08-7.4-.48-4.44-1.15-10.34-1.96-17.72.05-.8.08-1.82.08-2.99,0-1.79-.04-3.37-.1-4.69"/><path class="cls-10" d="M55.76,90.58c-.52-.24-1.04-.48-1.55-.73.7,6.65,1.38,14.06,1.98,22.15.58,7.83,1,15.17,1.3,21.9.29.57.63,1.33.98,2.33.52,1.49.89,3.03,1.14,4.25.01-.73.03-1.79.03-3.08.01-3.66-.06-10.83-1.18-23.55-.54-6.13-1.38-14.15-2.69-23.28Z"/><path class="cls-9" d="M55.08,90.52c-.64-.35-1.27-.7-1.91-1.05,1.29,16.71,2.58,33.42,3.86,50.12.44,1.51.88,3.02,1.32,4.53.04-1.06.07-2.45.06-4.1,0,0,0-1.74-.08-3.55-.11-2.83-1.39-21.06-3.25-45.96Z"/><path class="cls-6" d="M52.06,77.8c1,24.39,2,48.78,3.01,73.16.67,2.41,1.34,4.82,2.01,7.23.04-.95.09-2.52.11-4.48.04-4.65-.16-8.17-.22-9.19-.27-5.09-1.19-27.64-2.46-59.24-.12-.18-.25-.35-.37-.53-.45-2.15-.91-4.3-1.36-6.45-.2-.14-.36-.35-.46-.54-.12-.21-.24-.47-.27-.36-.02.07,0,.25.02.4Z"/><path class="cls-7" d="M49.83,71.32s.13,1.34.34,3.17c.14,1.25.46,4.41.72,7.08,0,0,.19,2.29.32,5.38.2,4.66.82,28.65,1.56,61.38.53,2.18,1.05,4.35,1.58,6.53.07-.5.15-1.18.21-2.03.06-.99.05-1.78.05-2.11-.08-9.07-.16-11.42-.16-11.42-.22-6.31-.08-4.36-.34-12.34-.19-5.72-.22-5.56-.53-14-.25-6.97-.27-8.35-.48-13.43-.16-3.89-.25-6.29-.43-9.64-.21-3.83-.43-7.01-.6-9.23-.11-.21-.28-.56-.45-1.08-.18-.53-.31-1.04-.59-2.36-.21-.96-.31-1.44-.5-2.38-.48-2.41-.66-3.55-.69-3.5Z"/><path class="cls-5" d="M54.65,85.04c-.68-.61-1.35-1.22-2.03-1.84-.92,18.88-1.85,37.77-2.77,56.65.49,1.5.99,3,1.48,4.49.22-.1.48-.3.67-.75.3-.69.26-1.62.26-1.8-.03-1.56.96-24.53,2.39-56.76Z"/><path class="cls-4" d="M52.71,84.83c-.16-.53-.41-1.35-.73-2.34-.65-2.02-.9-2.63-1.19-3.8-.44-1.75-.45-2.64-.53-2.67-.29-.13-1.01,12.92-2.66,58.8.64,1.6,1.27,3.19,1.91,4.79.12-.23.3-.62.46-1.16.34-1.21.32-2.4.32-2.65,0-1.74,1-22.28,2.42-50.96Z"/><path class="cls-8" d="M49.46,67.15c1.03,4.49,3.32,8.87,4.35,13.36.82,3.57.38,7.25,1.2,10.82-.09-.04-.55-.25-.64-.3-.21-.1-.43-.2-.64-.3-.94-3.53-2.83-7.35-3.77-10.88-.48-4.33-.02-8.37-.51-12.7Z"/><path class="cls-24" d="M47.3,101.15c1.66-4.28,3.64-10.28,5.02-17.64,1.89-10.11,1.52-18.01,1.6-24.35.09-8.01-.13-15.4-2.41-23.06,0,0-3.53-10.96-7.05-12.51-.12-.05-.79-.32-1.02-.92-.11-.3-.1-.63.33-1.76.42-1.11.63-1.67.99-2.2,0,0,.67-.98,1.76-1.76,2.41-1.73,7.74-1.13,8.32-1.09-2.09-1.21-6.12-2.77-8.21-3.98-.27-.49-.69-1.25-1.21-2.2-1.43-2.61-1.63-3.03-2.09-3.74-.54-.83-1.42-2.18-2.64-3.19-1.92-1.59-4.1-1.88-5.95-2.09C29.37,0,25.06,1.74,24.27,2.07c-6.23,2.59-9.43,7.47-10.89,9.76-1.36,2.14-2.36,5.1-4.37,11.03-1.94,5.73-2.96,8.81-3.45,13.1,0,0-.51,4.44,0,9.65.83,8.54,9.97,30.11,26.13,56.72,1.08,3.63,4.42,14.92,5.84,20.98.13.54.34,1.46.52,2.68.81,5.26.13,9.35.03,10.05-.5,3.6.31,19.46,4.51,64.15-.01-8.55.11-17.35.38-26.38.29-9.62.75-18.97,1.34-28.03,7.29,22.71,14.57,45.42,21.86,68.13-4.82-29.5-10.71-58.85-14.47-88.5-.38-3.02-1.5-7.88-1.81-10.86-.56-5.39-1.13-8.16-2.6-13.37Z"/><path class="cls-30" d="M18.66,18.92c-.62.09-1.29.21-1.99.37-1.04.23-1.58.35-2.27.65-.51.22-1.12.47-1.75,1.01-.8.67-1.19,1.4-1.54,2.04,0,0-.69,1.31-.98,2.72-.41,2.03-4.19,11.47-2.05,23.71.96-.58,1.65-1.2,2.1-1.66.46-.47.98-1.01,1.39-1.84.4-.79.52-1.48.58-1.84.53-3.24.5-6.18.5-6.18-.02-1.75.27-4.65.85-10.46.06-.62.18-1.72.73-2.99.31-.72.67-1.28.93-1.69.36-.56.91-1.34,1.68-2.17.46-.5,1.07-1.09,1.82-1.67Z"/><path class="cls-17" d="M48.26,117.56c-.36,2.5-1.27,6.45-3.86,10.52-1.46,2.29-3.07,4.02-4.44,5.26.38,1.74.65,3.52,1.19,5.23,9.54,30.51,19.65,57.91,27.85,84.83-1.46-8.72-2.76-16.32-3.84-22.51-.32-1.82-1.63-9.32-3.38-19.09-1.22-6.8-1.97-10.83-3.15-17.68-.75-4.31-1.34-7.86-1.74-10.22,0-.04,0-.1-.02-.1-.08-.01-.23,1.89-.81,3.55-.24.7-.69,1.73-1.57,2.88-2.08-14.22-4.15-28.45-6.23-42.67Z"/><path class="cls-18" d="M39.54,132.57c2.02,5.5,4.04,11.01,6.06,16.51-.54,8.54-.93,15.94-1.2,21.89-.26,5.75-.6,13.34-.8,22.65-.15,7.1-.23,10.65-.19,14.62.03,3.05.09,5.19-.01,5.19-.16,0-.52-4.79-1.44-15.88-.48-5.7-.96-11.4-1.45-17.09-.62-7.37-.83-9.83-1.11-13.74-.3-4.17-.5-7.47-.64-10.03-.29-5.11-.17-4.12-.35-6.93-.46-7.11-.93-9-.3-12.44.38-2.07.98-3.71,1.43-4.76Z"/><path class="cls-12" d="M60.98,18.09c-2.37-.85-5.56-1.93-7.99-2.59-1.7-.46-3.73-.5-5.44-.98-.14-.04-.3-.08-.44-.12.23.17.46.45.68.62-.35.42-.75,1.02-1.09,1.44,1.96.25,3.99.68,5.95.93,2.44.31,5.89.39,8.33.7Z"/><path class="cls-2" d="M43.39,8.66c1.44.57,2.34,1.2,3.06,1.6,1.48.83,2.02,1.06,4.12,2.25.82.47,1.4.8,2.23,1.24,3.55,1.85,7.13,3.68,8.57,4.41-1.3,0-7.67.54-9.06.8-6.56,1.22-6.18.89-9.94,3.22.28-.54.43-.76.82-1.33.91-1.33.45-.96,2.6-2.96.45-.42.93-.88,1.45-1.38,4.58.52,9.16,1.04,13.73,1.56-4.56-1.26-9.13-2.51-13.69-3.77-.13-.11-.31-.27-.52-.48-.19-.19-.58-.59-1.3-1.54-.3-.4-.57-.76-.88-1.24-.4-.62-.69-1.25-1.19-2.38Z"/><path class="cls-31" d="M41.77,20.32c-.34.2-1.9.39-2.57.35-.86-.06-1.99-.03-3.76-1.52-.83-.7-1.91-3.19-2.03-4.43-.09-.95-.22-2.3,0-4.78.05-.63.33-2.67,1.42-4.17.87-1.19,1.84-1.49,2.81-1.8,1.65-.52,2.97-.16,3.36-.03.54.17,1.48.48,2.44,1.46.72.74,1.11,1.49,1.82,2.89.86,1.7.83,2.22,1.45,3.4.44.84,1.16,1.94,2.37,2.96-.14.28-.36.7-.68,1.16-.75,1.1-1.33,1.45-2.23,2.41-.75.81-1.11,1.08-1.4,1.77-.2.46-.36.77-.35,1.17,0,.18.04.62.46,1.25.6.89,1.34,1.2,1.41,1.23,2.09.91,4.35,9.72,4.35,9.72.86,3.37,1.84,8.01,2.5,13.77-.52-.35-1.31-.91-2.21-1.73-1.3-1.19-3.37-3.08-4.84-6.58-.37-.88-.7-2.25-1.36-4.99-1.13-4.69-1.7-7.04-1.74-9.07-.03-1.48.84-3.4-.71-4.18-.22-.11-.38-.18-.5-.26Z"/><path class="cls-12" d="M38.14,7.61c-.26.12-.73.39-1.13,1-.66,1.01-.69,2.24-.7,2.78-.01.54-.03,1.37.34,2.21.43.99,1.11,1.36,1.38,1.51.3.16.87.47,1.57.23.47-.16.78-.48.86-.57.36-.39.53-.82.57-.92.4-1.03.18-2.13.09-2.57-.22-1.11-.7-1.79-.96-2.15-.74-1.01-1.58-1.38-2.02-1.52Z"/><ellipse class="cls-1" cx="39.41" cy="10.4" rx=".62" ry="1.12" transform="translate(-.54 2.33) rotate(-3.37)"/><path class="cls-19" d="M47.6,98.03c.41,9.37-.59,21.29-.18,30.66,4.26,12.33,7.86,23.08,10.72,31.75,2.76,8.36,6.41,19.42,10.66,33.11,3.25,10.44,4.87,15.66,6.56,21.57,1.3,4.55,2.17,7.75,2.28,7.69.16-.08-1.58-7.41-5.51-24.41-2.02-8.73-4.02-17.47-6.03-26.21-2.6-11.3-3.47-15.07-4.9-21.04-1.52-6.35-2.77-11.38-3.74-15.25-1.95-7.74-1.63-6.22-2.68-10.48-2.65-10.82-3.01-13.9-5.13-18.62-1.28-2.84-1.48-6.94-2.06-8.76Z"/><path class="cls-21" d="M30.24,77.38c.75,3.67,2.33,9.5,5.75,15.21,1.91,3.2,3.9,5.51,5.53,7.12-.14,2.71-.14,5.45-.44,8.15-5.36,48.05-11.82,91.51-16.33,133.86.18-13.5.38-25.26.56-34.85,0-.26.01-.6.02-1,.29-13.56.59-28.57.59-28.57.37-16.76.53-24.6.59-27.4.31-13.65,1.18-35.75,3.73-72.53Z"/><path class="cls-15" d="M33.06,87.68c-.23,3.44-.81,9.86-1.12,15.04-.45,7.56-.77,13.81-1.92,37.48-.12,2.56-.52,10.76-.65,13.32-.31-.21-.73-.57-1.16-1.14,0,0-.65-.81-1.01-1.56,0,0-.33-.56-.53-1.49-.18-.87,1.25-31.63,3.48-70.54.74,2.48,2.18,6.41,2.91,8.89Z"/><path class="cls-20" d="M31.08,83.56c1.44,3.49,4.06,8.81,8.38,13.29,2.44,2.53,4.77,4.12,6.65,5.14.38,2.81.89,5.6,1.12,8.46,3.93,50.94,5.94,97.62,9.62,142.43-2.37-13.81-4.4-25.85-6.04-35.67-.48-2.89-2.46-14.79-5-30.32-1.76-10.81-2.79-17.23-4.61-28.1-1.15-6.84-2.11-12.45-2.75-16.19-.02-.06-.04-.15-.03-.16.07-.06,1.05,2.67,2.34,4.78.54.89,1.43,2.15,2.8,3.33-4.16-22.33-8.32-44.66-12.48-66.99Z"/><path class="cls-24" d="M11.9,29.17c-.31.6-.63,1.26-.94,2.01-1.15,2.74-1.99,5.84-2.6,8.8-1.8,7.37-3.51,17.6-2.98,27.77.67,13.05,8.52,21.89,10.14,29.25.28-1.18.37-1.6.95-2.2.31-.32.67-.26.9-.43.13-2.48-1.13-4.94-1-7.42.32-.35.79-1.07,1.09-2.66.16-.85.25-1.84.31-4.72.1-4.82-.05-7.45.06-7.36.21.15.9,8.94,1.06,10.87.09,1.09.16,2.01.2,2.67.17-.07.42-.26.61-.83,0,0,.32-.93.33-2.91,1.35-12.32,1.79-30.11,1.79-30.11-2.08-17.93-6.49-23.02-7.5-24.51-.91-1.35-1.78.07-2.42,1.79Z"/><path class="cls-37" d="M11.57,30.04c.47,5.93.89,13.21.98,21.19.09,7.25-.12,13.27-.4,18.03.23.23.76.69,1.25.22.38-.36.57-1.12.62-1.35.08-.42.12-.8.14-1.05.2-2.33,0-6.25-.1-8.49-.25-5.07-.55-11.81-.94-20.24-.2-.89-.42-2.02-.62-3.34-.31-2.01-.56-3.79-.72-5.28"/><path class="cls-38" d="M14.16,94.65c.54-.36,1.08-.73,1.61-1.09.39,7.59.94,16.02,1.7,25.21.74,8.89,1.57,17.2,2.43,24.8-.23.69-.47,1.6-.68,2.79-.32,1.77-.46,3.55-.52,4.98-.14-.82-.35-2.01-.58-3.45-.66-4.11-1.85-12.16-2.85-26.64-.48-6.97-.97-16.12-1.11-26.6Z"/><path class="cls-32" d="M14.92,94.47c.65-.5,1.31-1.01,1.96-1.51,1.52,18.98,3.04,37.95,4.56,56.93-.23,1.77-.45,3.54-.68,5.31-.23-1.18-.51-2.74-.79-4.59,0,0-.3-1.96-.54-4-.38-3.19-2.18-23.88-4.5-52.15Z"/><path class="cls-34" d="M16.05,79.65c3.2,27.54,6.4,55.09,9.61,82.63-.33,2.82-.65,5.65-.98,8.47-.21-1.06-.55-2.81-.91-5.01-.87-5.21-1.27-9.2-1.39-10.36-.6-5.76-3.57-31.23-7.74-66.91.11-.22.22-.44.33-.66.13-2.49.26-4.99.38-7.48.2-.19.34-.46.42-.68.1-.26.18-.57.24-.45.03.07.04.28.05.45Z"/><path class="cls-33" d="M17.4,71.98c.05.05.09,1.52.18,3.62.06,1.43.26,5.03.45,8.08,0,0,.19,2.61.59,6.09.6,5.27,4.16,32.29,9.14,69.15-.2,2.53-.41,5.07-.61,7.6-.17-.55-.38-1.3-.59-2.25-.24-1.1-.38-1.99-.43-2.36-1.52-10.19-1.85-12.84-1.85-12.84-.88-7.12-.69-4.91-1.81-13.91-.8-6.45-.74-6.28-1.89-15.81-.95-7.87-1.17-9.42-1.84-15.16-.51-4.39-.84-7.1-1.23-10.89-.44-4.34-.76-7.94-.97-10.47.09-.25.21-.67.32-1.29.11-.62.16-1.23.25-2.76.06-1.11.09-1.67.14-2.76.11-2.79.11-4.09.16-4.05Z"/><path class="cls-35" d="M14.42,88.23c.65-.81,1.3-1.61,1.95-2.42,4.39,21.03,8.77,42.05,13.16,63.08-.29,1.77-.58,3.54-.86,5.31-.26-.07-.59-.26-.88-.72-.46-.73-.58-1.77-.61-1.98-.25-1.75-5.43-27.35-12.75-63.27Z"/><path class="cls-36" d="M16.57,87.66c.09-.62.22-1.58.41-2.76.37-2.38.54-3.11.66-4.48.18-2.04.04-3.04.12-3.09.31-.2,3.42,14.32,13.41,65.51-.43,1.9-.86,3.81-1.29,5.71-.18-.24-.45-.64-.72-1.22-.6-1.29-.79-2.64-.83-2.92-.31-1.95-5.07-24.82-11.75-56.76Z"/><path class="cls-39" d="M17.08,67.24c-.36,5.22-2.15,10.54-2.51,15.76-.29,4.15.86,8.2.57,12.36.09-.06.57-.38.66-.45.22-.15.44-.3.66-.45.43-4.13,1.87-8.75,2.29-12.88-.22-4.94-1.46-9.4-1.68-14.34Z"/><path class="cls-15" d="M31.69,82.7c.56,3.4,1.44,9.79,2.31,14.9,1.27,7.47,2.37,13.62,6.6,36.94.46,2.52,2.49,13.48,2.95,16.01-.35-.14-1.93-2.64-2.47-3.11,0,0-.65-1.13-1.17-1.78,0,0-1.19-2.7-1.59-3.56-.38-.81-4.85-29-11.48-67.4,1.28,2.25,3.57,5.75,4.85,8Z"/><path class="cls-3" d="M28.6,29.75c.92.42,2.61,1.04,4.78.99,1.46-.03,2.65-.36,3.46-.66,1.18,2.4,2.73,5.76,4.29,9.89,1.83,4.85,3.7,9.79,4.78,16.65,1.24,7.86.79,13.99.66,15.5-.41,4.96-1.45,9.77-2.14,13.03-.38,1.78-.73,3.25-.99,4.29-2.28-1.09-4.94-1.73-6.93-3.46-5.89-5.14-8.82-10.04-13.43-12.88.55-10.37.08-14.33.9-20.43,1.24-9.16,2.46-14.79,3.63-19.29.39-1.51.74-2.76.99-3.63Z"/></g></svg>