<?xml version="1.0" encoding="UTF-8"?><svg id="Layer_2" xmlns="http://www.w3.org/2000/svg" viewBox="0 0 324.5 324.5"><defs><style>.cls-1{fill:#222630;}.cls-1,.cls-2,.cls-3,.cls-4{stroke-miterlimit:10;}.cls-1,.cls-3,.cls-4{stroke:#7a2f8b;}.cls-2{fill:none;stroke:#868284;stroke-width:2px;}.cls-3{fill:#f5f4bb;}.cls-3,.cls-4{stroke-width:.5px;}.cls-4{fill:#868284;}</style></defs><g id="Layer_1-2"><rect class="cls-3" x=".25" y=".25" width="324" height="324" rx="12" ry="12"/><path class="cls-2" d="M259.2,116.93c-3.47,1.16-12.5,4.62-20.11,13.06-2.39,2.65-6.33,7.03-6.96,11.73-.75,5.65,3.78,8.11,6.4,9.53,4.51,2.45,9.74,2.14,12.88,1.67-3.43,1.18-9.06,3.51-15.42,8.08-4.68,3.36-14.72,10.57-18.9,21.23-4.11,10.49.22,17.29,1.17,18.68-.33-.25-5.31-3.91-13.1-.09-5.82,2.85-9.19,7.9-10.05,9.26-5.35,8.48-1.92,14.97-1.72,15.33-.62-2.1-2.61-7.39-8.92-9.59-1.63-.57-6.1-2.14-12.1-.14-2.26.75-8.98,3.41-20.38,17.87-5.98,7.59-15.51,21.31-21.92,40.31,3.67-8.97,4.39-15.7,4.45-19.79.08-5.61.15-10.74-3.58-13.17-4.66-3.03-12.44-.01-17.22,1.84-16.31,6.34-28.86,19.88-34.34,26.36,4.2-4.48,10.16-11.76,14.19-21,2.5-5.73,5.62-12.89,3.54-18.91-2-5.79-7.65-7.17-9.92-7.72-11.16-2.71-24.37,5.01-27.25,6.76,8.39-6.25,14.53-12.27,18.51-16.53,5.94-6.35,10.16-10.87,13.08-17.42.95-2.14,4.2-9.96,2.47-16.74-2.19-8.6-11.63-12.47-23.89-10.15,9.21-2.64,17.16-5.24,23.45-7.41,11.74-4.06,15.97-6.04,20.24-10,1.26-1.17,6.78-6.29,8.57-12.61,2.06-7.25-1.53-13.42-8.97-15.47,3.63.75,9.14,1.54,16.36,1.27,7.52-.28,11.78-.45,17.49-3.02,10.5-4.72,17.73-13.89,20.17-16.99,9.22-11.7,11.07-22.35,11.52-25.94-.55,4.71,1.17,8.13,4.6,8.76,4.04.75,8.88-2.67,10.65-3.91,11.82-8.34,14.84-24.61,15.12-26.23-1.19,3.74-3.48,12.47-.9,20.91.87,2.84,3.81,10.61,12.61,13.77,16.54,5.95,39.21-9.61,40.72-10.67-1.82,1.2-12.79,8.59-17.33,19.94-1.05,2.63-3.96,9.91-.59,14.69,4.27,6.04,14.76,2.65,15.38,2.44Z"/><polygon class="cls-4" points="239.66 135.52 264.84 123.04 268.9 123.56 239.66 135.52"/><polygon class="cls-4" points="277.97 123.46 277.62 126.19 241.49 136.26 277.97 123.46"/><polygon class="cls-4" points="272.61 132.63 270.18 135.54 237.85 138.87 272.61 132.63"/><polygon class="cls-4" points="170.73 226.75 182.33 266.76 180.74 270.2 170.73 226.75"/><polygon class="cls-4" points="170.08 228.84 174.61 264.93 172.54 264.29 170.08 228.84"/><polygon class="cls-4" points="96.13 144.01 48.92 140.81 47.93 137.27 96.13 144.01"/><polygon class="cls-4" points="107.55 145.01 80.88 139.3 81.27 136.71 107.55 145.01"/><polygon class="cls-4" points="107.52 142.9 74.31 127.89 70.4 130.62 107.52 142.9"/><polygon class="cls-4" points="192.73 72.88 205.18 43.65 203.39 41.81 192.73 72.88"/><polygon class="cls-4" points="206.99 25.61 195.41 55.95 203.11 24.89 206.99 25.61"/><polygon class="cls-4" points="195.35 37 189.15 75.69 192.47 39.39 195.35 37"/><path class="cls-1" d="M196.34,98.65c5.54-1.58,10.12-1.44,12.86-1.14,3.4.37,7.28.8,10.94,3.54,3.4,2.55,4.86,5.8,5.85,8.06,4.06,9.3,2.18,18.77,1.06,22.99-4.08.04-8.15.08-12.23.12.27-1.61.49-4.14-.11-7.13-.39-1.92-1.22-5.78-4.53-9-3.91-3.81-8.74-4.25-10.19-4.32l-3.64-13.12Z"/><path class="cls-1" d="M191.51,100.07c-1.07.14-2.58.47-4.25,1.25-1.66.78-2.88,1.73-3.67,2.45,1.81,4.38,3.62,8.75,5.43,13.13,1.85-1.38,3.71-2.77,5.56-4.15-1.02-4.23-2.05-8.46-3.07-12.68Z"/><path class="cls-1" d="M177.85,107.18c-1.25.4-3.05,1.14-4.93,2.54-2.06,1.53-3.35,3.23-4.09,4.38,3.81,3.91,7.63,7.82,11.45,11.72,1.74-1.62,3.47-3.25,5.21-4.87-2.55-4.59-5.09-9.18-7.64-13.77Z"/><path class="cls-1" d="M165.95,118.65c-.95.63-2.26,1.64-3.48,3.19-1.49,1.88-2.21,3.74-2.57,4.94,4.18,3.04,8.36,6.07,12.54,9.11,1.73-1.88,3.46-3.75,5.19-5.63-3.89-3.87-7.79-7.74-11.68-11.61Z"/><path class="cls-1" d="M156.76,129.92c-1.08.88-2.54,2.26-3.85,4.26-1.14,1.75-1.8,3.39-2.18,4.63,4.42,2.92,8.84,5.84,13.26,8.76,1.78-2.39,3.55-4.79,5.33-7.18-4.18-3.49-8.37-6.98-12.55-10.47Z"/><path class="cls-1" d="M148.64,143.52c-.98,1.17-2.65,3.48-3.42,6.84-.53,2.32-.43,4.32-.26,5.65,4.45.59,8.89,1.18,13.34,1.77,1.32-2.64,2.63-5.29,3.95-7.93-4.54-2.11-9.07-4.22-13.61-6.33Z"/><path class="cls-1" d="M179.15,174.27c-2.28,1.61-4.56,3.22-6.83,4.83,1.51,4.25,3.02,8.49,4.52,12.74,1.11.05,3.26,0,5.63-1.1,3-1.4,4.58-3.66,5.16-4.61-2.83-3.96-5.66-7.91-8.49-11.87Z"/><path class="cls-1" d="M190.31,164.35c-2.18,1.94-4.35,3.87-6.53,5.81,3.16,4.11,6.32,8.22,9.49,12.33.95-.17,2.72-.63,4.5-1.97,2.15-1.62,3.1-3.63,3.47-4.55-3.64-3.87-7.28-7.75-10.92-11.63Z"/><path class="cls-1" d="M197.08,155.87c-1.6,2.23-3.2,4.46-4.8,6.68,3.88,3.3,7.75,6.61,11.63,9.91.94-.3,2.95-1.07,4.7-3.01,1.46-1.62,2.06-3.3,2.32-4.22-4.62-3.12-9.23-6.24-13.85-9.36Z"/><path class="cls-1" d="M204.42,146.63c-1.21,2.18-2.42,4.35-3.63,6.53,4.43,3.03,8.87,6.06,13.3,9.09,1.02-.93,2.44-2.42,3.64-4.57,1.27-2.29,1.79-4.4,2.02-5.8-5.11-1.75-10.22-3.5-15.33-5.25Z"/><path class="cls-1" d="M211.18,136.79c-1.13,1.94-2.26,3.88-3.38,5.81,4.49,1.32,8.97,2.65,13.46,3.97.74-.65,2.46-2.33,3.14-5.1.4-1.64.3-3.05.15-3.93-4.46-.25-8.91-.5-13.37-.75Z"/><path class="cls-1" d="M198.56,116.98c-1.85,1.64-3.7,3.28-5.55,4.91,3.4,0,6.8,0,10.2-.01.89-1.17,1.78-2.34,2.67-3.51-2.44-.46-4.89-.93-7.33-1.39Z"/><polygon class="cls-1" points="207.76 121.82 204.76 125.75 206.19 135.82 211 128.49 207.76 121.82"/><polygon class="cls-1" points="189.08 124.14 183.1 131.37 193.59 131.93 197.42 127.42 189.08 124.14"/><polygon class="cls-1" points="199.43 130.97 195.89 136.09 198.94 145.93 204.25 138.36 199.43 130.97"/><polygon class="cls-1" points="179.48 133.88 174.48 140.44 184.68 141.48 187.97 137.17 179.48 133.88"/><polygon class="cls-1" points="192.43 140.97 189 145.47 192.24 155.22 197.19 148.23 192.43 140.97"/><polygon class="cls-1" points="172.98 141.7 167.39 149.74 179.42 148.39 182.22 144.71 172.98 141.7"/><polygon class="cls-1" points="184.74 149.12 181.83 152.94 183.94 164.69 190.43 157.09 184.74 149.12"/><polygon class="cls-1" points="164.21 153.2 161.35 160.7 171.85 159.03 174.79 154.46 164.21 153.2"/><polygon class="cls-1" points="177.48 157.43 173.72 161.54 174.27 171.79 181.53 167.03 177.48 157.43"/><polygon class="cls-1" points="126.65 167.49 118.73 174.24 130.29 182.42 135.92 175.73 126.65 167.49"/><polygon class="cls-1" points="114.26 175.2 109.49 181.47 122.54 189.51 125.46 184.7 114.26 175.2"/><polygon class="cls-1" points="105.72 184.46 101.37 192.12 115.68 195.99 117.4 192.19 105.72 184.46"/><polygon class="cls-1" points="119.63 197.09 117.73 199.59 120.49 203.93 123.68 201.57 119.63 197.09"/><polygon class="cls-1" points="125.34 189.61 122.96 191.75 129.16 196.47 130.39 193.47 125.34 189.61"/><polygon class="cls-1" points="131.97 182.73 129.09 186.51 134 191.53 136.45 187.75 131.97 182.73"/><polygon class="cls-1" points="138.21 190.48 135.49 194.05 141.64 198 144.71 193.41 138.21 190.48"/><polygon class="cls-1" points="132.86 196.52 130.08 198.77 136.58 203.09 137.91 200.37 132.86 196.52"/><polygon class="cls-1" points="125.77 203.03 124.66 207.11 129.53 208.8 131.54 206.17 125.77 203.03"/><polygon class="cls-1" points="131.43 210.67 127.66 212.16 132.24 226.3 140 221.57 131.43 210.67"/><polygon class="cls-1" points="139.3 203.62 134.81 206.95 143.61 219.47 149.15 214.01 139.3 203.62"/><polygon class="cls-1" points="148.88 194.22 143.09 200.74 152.48 211.01 158.32 202.53 148.88 194.22"/><path class="cls-1" d="M97.93,193.81c-.95,5.33-.65,9.73-.24,12.6.46,3.26,1.07,7.5,3.93,12.03.97,1.53,2.75,4.28,6.13,6.55,3.49,2.34,6.83,2.93,9.33,3.37,3.43.6,6.35.51,8.36.31.04-4.96.08-9.93.12-14.89-1.2-.18-2.96-.58-4.89-1.53-2.89-1.42-4.64-3.33-5.38-4.21-1.59-1.91-2.31-3.73-3.07-5.65-.58-1.46-.95-2.73-1.19-3.67-4.36-1.64-8.73-3.27-13.09-4.91Z"/></g></svg>