<?xml version="1.0" encoding="UTF-8"?><svg id="Layer_2" xmlns="http://www.w3.org/2000/svg" xmlns:xlink="http://www.w3.org/1999/xlink" viewBox="0 0 261.47 318.23"><defs><style>.cls-1{fill:#d1d3d4;}.cls-2{fill:url(#radial-gradient-2);}.cls-3{fill:url(#linear-gradient-8);}.cls-4{fill:url(#linear-gradient-7);}.cls-5{fill:url(#linear-gradient-5);}.cls-6{fill:url(#linear-gradient-6);}.cls-7{fill:url(#linear-gradient-9);}.cls-8{fill:url(#linear-gradient-4);}.cls-9{fill:url(#linear-gradient-3);}.cls-10{fill:url(#linear-gradient-2);}.cls-11{fill:#231f20;}.cls-12,.cls-13,.cls-14{fill:#212631;}.cls-15{fill:url(#radial-gradient);}.cls-16{fill:url(#linear-gradient);}.cls-13,.cls-17,.cls-18,.cls-19{stroke-width:.5px;}.cls-13,.cls-17,.cls-18,.cls-19,.cls-14{stroke:#212631;stroke-miterlimit:10;}.cls-17{fill:url(#linear-gradient-13);}.cls-18{fill:url(#linear-gradient-12);}.cls-19{fill:url(#linear-gradient-14);}.cls-20{fill:url(#linear-gradient-10);}.cls-21{fill:url(#linear-gradient-11);}.cls-22{fill:#878284;}</style><linearGradient id="linear-gradient" x1="137.14" y1="58.01" x2="251.02" y2="58.01" gradientTransform="translate(378.92 -60.87) rotate(162.03) scale(1 -1)" gradientUnits="userSpaceOnUse"><stop offset="0" stop-color="#212631"/><stop offset=".43" stop-color="#fff"/></linearGradient><linearGradient id="linear-gradient-2" x1="-62.43" y1="648.37" x2="-15.97" y2="648.37" gradientTransform="translate(54.81 -540.95) rotate(175.15) scale(1 -1)" gradientUnits="userSpaceOnUse"><stop offset=".57" stop-color="#fff"/><stop offset="1" stop-color="#212631"/></linearGradient><linearGradient id="linear-gradient-3" x1="198.87" y1="94.3" x2="245.14" y2="94.3" xlink:href="#linear-gradient"/><linearGradient id="linear-gradient-4" x1="188.47" y1="111.86" x2="230.71" y2="111.86" gradientTransform="translate(378.92 -60.87) rotate(162.03) scale(1 -1)" gradientUnits="userSpaceOnUse"><stop offset="0" stop-color="#f5f3b5"/><stop offset=".12" stop-color="#f4f2b8"/><stop offset=".24" stop-color="#f3f2c4"/><stop offset=".35" stop-color="#f2f2d7"/><stop offset=".46" stop-color="#f1f2f2"/><stop offset=".49" stop-color="#dfedef"/><stop offset=".55" stop-color="#b1e1e9"/><stop offset=".62" stop-color="#89d7e4"/><stop offset=".69" stop-color="#68cfe0"/><stop offset=".76" stop-color="#4fc9dd"/><stop offset=".83" stop-color="#3dc4da"/><stop offset=".91" stop-color="#32c1d9"/><stop offset="1" stop-color="#2fc1d9"/></linearGradient><linearGradient id="linear-gradient-5" x1="319.62" y1="35.27" x2="381.56" y2="35.27" gradientTransform="translate(378.92 -60.87) rotate(162.03) scale(1 -1)" xlink:href="#linear-gradient-2"/><linearGradient id="linear-gradient-6" x1="318.72" y1="47.77" x2="385.91" y2="47.77" gradientTransform="translate(378.92 -60.87) rotate(162.03) scale(1 -1)" xlink:href="#linear-gradient-2"/><linearGradient id="linear-gradient-7" x1="311.52" y1="60.2" x2="412.61" y2="60.2" gradientTransform="translate(378.92 -60.87) rotate(162.03) scale(1 -1)" xlink:href="#linear-gradient-2"/><linearGradient id="linear-gradient-8" x1="298.94" y1="77.74" x2="405.69" y2="77.74" gradientTransform="translate(378.92 -60.87) rotate(162.03) scale(1 -1)" xlink:href="#linear-gradient-2"/><linearGradient id="linear-gradient-9" x1="312.82" y1="85.09" x2="390.25" y2="85.09" gradientTransform="translate(378.92 -60.87) rotate(162.03) scale(1 -1)" xlink:href="#linear-gradient-2"/><linearGradient id="linear-gradient-10" x1="301.51" y1="95.83" x2="382.9" y2="95.83" gradientTransform="translate(378.92 -60.87) rotate(162.03) scale(1 -1)" xlink:href="#linear-gradient-2"/><linearGradient id="linear-gradient-11" x1="275.72" y1="107.85" x2="362.07" y2="107.85" gradientTransform="translate(378.92 -60.87) rotate(162.03) scale(1 -1)" xlink:href="#linear-gradient-2"/><radialGradient id="radial-gradient" cx="254" cy="193.25" fx="254" fy="193.25" r="33.53" gradientTransform="translate(362.47 -111.6) rotate(162.03) scale(1 -.89)" gradientUnits="userSpaceOnUse"><stop offset="0" stop-color="#878284"/><stop offset=".84" stop-color="#262e38"/></radialGradient><linearGradient id="linear-gradient-12" x1="60.39" y1="205.96" x2="125.68" y2="205.96" gradientTransform="translate(-47.39 77.38) rotate(-17.97)" xlink:href="#linear-gradient"/><radialGradient id="radial-gradient-2" cx="182.91" cy="105.91" fx="182.91" fy="105.91" r="17.76" gradientTransform="translate(246.7 -512.45) rotate(164.12) scale(.95 -5.49)" xlink:href="#radial-gradient"/><linearGradient id="linear-gradient-13" x1="114" y1="222.24" x2="152.8" y2="222.24" gradientTransform="translate(-47.39 77.38) rotate(-17.97)" xlink:href="#linear-gradient"/><linearGradient id="linear-gradient-14" x1="76.55" y1="218.17" x2="146.87" y2="218.17" gradientTransform="translate(-47.39 77.38) rotate(-17.97)" xlink:href="#linear-gradient"/></defs><g id="Layer_1-2"><path class="cls-14" d="M166.1,156.77c1.12-.15,4.06-.39,8.01-1.56.36-.11,1.44-.43,2.91-.98,2.6-.96,8.13-3.04,13.99-7.61,6-4.69,9.75-9.62,13.65-16.15,3.12-5.23,5.59-10.38,8.36-14.06,3.98-5.26,7.64-5.06,10.22-6.51,10.72-6.03,25.45-8.68,33.74-10.61,1.4-.33,1.39-.6,0-.96-6.05-1.54-11.97-4.12-18.02-5.66-.36-.09-.66-.32-.85-.64-.94-1.65-2.55-4.01-5.17-6.17-.89-.73-4.77-3.82-10.83-4.83-4.52-.75-8.04.04-10.42.6-5.26,1.23-8.83,3.54-11.37,5.2-2.26,1.48-6.31,5.83-11.36,11.13,0,0-7.08,8.19-11.71,12.02-.11.09-.69.56-1.58.85-.46.15-1.61.52-2.18.03-.58-.49-.12-1.5-.18-2.64-.11-2.01-1.8-3.38-2.83-4.31-2.23-2.03-6.02-6.29-11.28-12.51-.28-.33-.7-.52-1.13-.49-8.49.55-18.86.52-30.52-1.07-13.52-1.84-24.95-5.25-33.92-8.68-1.17-.45-2.29.76-1.72,1.88,1.27,2.52,2.52,5.56,3.46,9.08.73,2.75,1.14,5.3,1.36,7.54.05.49.35.92.8,1.12,2.63,1.19,5.26,2.38,7.89,3.57.29.13.54.36.67.66.61,1.32,1.66,3.11,3.49,4.64,1.09.92,2.32,1.62,5.81,2.87,5.84,2.09,8.92,2.47,8.88,2.88-.08.74-10.34.25-12.59.14-.32-.02-.62-.03-.92-.05-1.16-.06-1.85,1.24-1.17,2.19.07.09.14.19.21.28.02.03.04.06.07.08.23.26,1.46,1.57,3.61,2.24,2.87.89,16.53,2.02,35.33,2.75.83.03,1.47.78,1.31,1.6,0,0,0,0,0,.01-.38,1.92-2.43,2.94-3.44,3.5,0,0-4.72,2.62-8.77,7.38-1.47,1.73-2.15,3.21-3.45,6.11-3.07,6.81-4.33,12.64-4.76,14.73-2.32,11.1-3.41,21.84-3.91,27.67,0,.04,0,.08-.02.12-.14.76-.37,1.95-.75,3.37-1.75,6.61-4.66,11.08-5.13,11.86-2.01,3.29-7.29,16.91-19.23,52.46-.55,1.64,1.81,2.59,2.54,1.02,1-2.14,2-4.29,3.02-6.45,4.2-8.87,8.43-17.49,12.67-25.85.69-1.36,2.74-.75,2.59.76-2.23,21.98-4.46,43.95-6.69,65.93-.17,1.69,2.28,2.12,2.7.48,7.96-31.25,15.93-62.5,23.89-93.76.02-.09.05-.17.09-.26,1.07-2.19,2.67-5.64,4.36-10.01,1.82-4.72,2.35-6.71,3.96-10.37,1.11-2.52,2.81-5.98,5.37-9.93.05-.08.12-.16.18-.23,4.53-4.69,8.19-6.09,10.78-6.45Z"/><path class="cls-16" d="M204.89,80.03c9.71-11.02,9.24-15.94,19.21-29.25,5.83-7.79,11.86-13.91,12.59-14.67,4.31-4.53,7.34-7.05,14.26-14.48,5.77-6.19,4.21-16.57,3.53-21.63-2.62,4.79-5.99,10.64-10.86,16.39-3.43,4.05-7.08,7.14-10.24,9.91-.44-1.68-.89-3.36-1.33-5.04-4.36,5.77-8.72,11.54-13.08,17.31-.39-1.34-.77-2.69-1.16-4.03-4.87,6.7-9.74,13.39-14.61,20.09-.26-1.43-.53-2.87-.79-4.3-5.08,6.66-10.17,13.33-15.25,19.99-.38-1.5-.77-2.99-1.15-4.49-5.97,8.62-11.93,17.24-17.9,25.86-.33-.55-.66-1.1-.99-1.65-.75.94-1.5,1.87-2.25,2.81,3.95,4.44,7.91,8.88,11.86,13.32,1.42-1.38,2.84-2.77,4.27-4.17,2.5-2.46,3.65-3.62,4.29-4.26,4.14-4.08,5.99-5.43,9.94-8.7,3.52-2.91,6.35-5.25,9.65-8.99Z"/><path class="cls-10" d="M172.1,106.65c-6.92-.34-15.47-1.35-25.02-3.84-8.67-2.26-15.99-5.19-21.84-7.98-.18.78-.49,2.64.29,4.67.6,1.57,1.6,2.57,1.89,2.82.55.47,1.02.75,1.32.92,2.88,1.6,7.51,2.26,10.15,2.64,5.98.88,13.94,2.14,23.89,3.64.99-.42,2.25-.87,3.74-1.17,2.28-.47,4.31-.77,6.02-.84"/><path class="cls-9" d="M218.14,88.04c-.77-.51-1.62-1.04-2.54-1.56-1.36-.77-2.07-1.17-3.11-1.53-.77-.27-1.68-.58-2.9-.62-1.53-.05-2.66.36-3.67.72,0,0-2.03.76-3.72,2.02-2.43,1.83-12.23,11.07-25.23,24.03,1.62.32,2.97.32,3.91.26.97-.06,2.04-.14,3.31-.64,1.2-.48,2.01-1.11,2.42-1.45,3.73-3.04,6.55-6.3,6.55-6.3,1.67-1.94,4.8-4.84,11.07-10.65.67-.62,1.86-1.71,3.7-2.57,1.04-.48,1.97-.75,2.66-.94.94-.26,2.29-.58,3.94-.73.99-.09,2.22-.14,3.62-.04Z"/><path class="cls-8" d="M214.13,115.4c1.76-4.16,8-4.28,9.58-6.19,1.77-2.15,3.78-4.03,6.65-7.97.89-1.22,1.58-2.25,2.04-2.94-1-.36-2.49-.98-4.14-2.03-2.6-1.66-3.44-3.01-5.64-4.64-1.96-1.45-3.6-2.59-6.04-3.04-3.31-.61-6.07.47-7.2.92-1.38.54-2.28,1.17-4.08,2.43-1.57,1.1-2.2,1.75-2.41,2.66-.07.31-.11.72.06,1.6.47,2.35,1.68,4.03,1.98,4.42,1.51,2.02,3.26,3.01,4.04,3.44,2.09,1.15,3.93,1.43,4.41,1.49.79.1,1.66.22,2.8.05,1.04-.15,1.52-.43,1.65-.26.3.4-6.52,1.04-8.07,2.76-2.43,2.69-3.53,5.14-5.21,8.87-2.6,5.76-3.4,10.55-3.59,11.77-.51,3.28-.56,6.08-.49,8.11,1.94-2.67,3.21-4.95,4.01-6.55.65-1.29.96-2.08,1.89-3.75.89-1.6,1.66-3.23,2.93-5.19.63-.97.82-1.21,2.36-3.03.69-.81,2.08-2.47,2.45-2.91Z"/><path class="cls-11" d="M208.41,90.4c-.2.45-.51,1.31-.42,2.38.16,1.76,1.31,2.86,1.81,3.34.5.48,1.27,1.22,2.52,1.46,1.47.28,2.64-.31,3.12-.55.52-.26,1.5-.76,2.12-1.91.41-.76.49-1.45.5-1.64.06-.81-.14-1.42-.19-1.56-.5-1.42-1.81-2.07-2.34-2.34-1.32-.67-2.55-.61-3.22-.57-1.86.11-3.23.92-3.9,1.4Z"/><path class="cls-5" d="M88.29,79.05c.68,2.18,1.35,4.36,2.03,6.54-8.94-1.21-18.82-2.14-29.53-2.51-10.35-.36-19.96-.16-28.72.38-.93-1.11-2.13-2.36-3.65-3.6-2.26-1.84-4.47-3.01-6.21-3.76.92-.25,2.26-.61,3.89-.98,4.64-1.05,13.79-2.71,30.73-1.35,8.16.66,18.93,2.08,31.46,5.28Z"/><path class="cls-6" d="M92.35,88.97c.9,2.67,1.79,5.34,2.69,8-22.12-.99-44.24-1.97-66.36-2.96-2.23-1.49-4.45-2.98-6.68-4.47,1.31-.45,3.06-.97,5.15-1.39,0,0,2.22-.44,4.56-.64,3.67-.31,27.71.22,60.64,1.45Z"/><path class="cls-4" d="M105.6,107.94c-31.66,2.35-63.33,4.71-94.99,7.06-3.54-2.25-7.07-4.49-10.61-6.74,1.18-.42,3.14-1.09,5.61-1.69,5.87-1.44,10.48-1.54,11.82-1.59,6.65-.22,35.93-2.43,76.93-5.58.31.49.62.99.94,1.48,3.05,1.38,6.1,2.76,9.15,4.13.32.84.7,1.45,1.01,1.86.35.47.76.89.65,1.06-.07.1-.31.07-.52.01Z"/><path class="cls-3" d="M121.71,115.09c-.03.18-1.76-.01-4.21-.18-1.66-.11-5.84-.2-9.37-.23,0,0-3,.11-6.95.78-5.96,1.01-36.34,8.09-77.7,18.19-3.11-1.39-6.21-2.78-9.32-4.17.57-.52,1.36-1.15,2.38-1.71,1.18-.66,2.18-.96,2.59-1.08,11.36-3.34,14.36-3.94,14.36-3.94,8.03-1.62,5.5-1.44,15.64-3.56,7.27-1.51,7.1-1.3,17.86-3.41,8.89-1.74,10.62-2.21,17.11-3.38,4.96-.9,8.03-1.48,12.34-2.05,4.94-.65,9.06-.98,11.96-1.16.34.39.9.97,1.69,1.53.79.56,1.53.9,3.39,1.6,1.35.51,2.03.76,3.34,1.19,3.36,1.09,4.91,1.4,4.88,1.57Z"/><path class="cls-7" d="M106.35,116.15c.86,1.5,1.71,2.99,2.57,4.49-23.31,6.68-46.62,13.35-69.93,20.03-1.93-.84-3.86-1.69-5.79-2.53.09-.55.31-1.23.83-1.79.82-.88,1.97-1.02,2.2-1.05,1.94-.3,30.31-8.1,70.12-19.14Z"/><path class="cls-20" d="M111.02,122.36c.67.18,1.71.46,2.97.84,2.57.76,3.35,1.11,4.83,1.36,2.21.38,3.3.11,3.35.26.2.61-15.72,6.66-71.84,26-2.05-.87-4.09-1.75-6.14-2.62.27-.36.71-.89,1.36-1.41,1.43-1.17,2.9-1.54,3.21-1.63,2.14-.6,27.22-9.84,62.26-22.79Z"/><path class="cls-21" d="M135.97,136.67c1.81-2.54,3.67-4.01,5.02-4.88,2.66-1.72,5.46-2.47,7.74-5.56.31-.42.54-.79.68-1.02-7.43.21-14.86.41-22.29.62-4.23,1.37-9.98,3.31-16.73,5.87-5.66,2.15-14.09,5.37-24.64,10.45-4.88,2.35-11.21,5.58-18.45,9.78.51.22,1.25.49,2.17.71,2.1.5,3.88.4,5.22.24,4.25-.5,7.57-1.93,7.57-1.93,3.88-1.68,23.6-10.28,50.66-22.39-1.78.96-4.86,2.62-6.71,3.62-7.27,3.92-8.9,4.78-11.47,6.23-4.06,2.3-6.1,3.44-8.1,4.76-4.25,2.81-7.44,5.54-9.54,7.48.35-.03.87-.06,1.51-.05,1.22.02,2.11.18,2.22.19,2.54.39,16.86-8.24,19.4-9.69,3.25-1.85,8.3-3.97,15.73-4.45Z"/><path class="cls-15" d="M142.74,149.31c-1.39,1.82-2.94,4.87-2.68,5.13.7.68,7.79-6.62,12.47-5.14,2.11.66,3.29,2.96,4.14,4.62.95,1.84,1.25,3.55,1.35,4.68,4.74-1.11,8.32-2.72,10.68-3.97,7.45-3.94,12.3-9.35,15.14-12.57.5-.56.85-.98,1.09-1.27,2.18-2.65,5-6.85,11.9-19.04,2.58-4.55,6.05-10.84,9.95-18.48-.77-.44-1.79-1.16-2.7-2.25-1.59-1.91-1.98-3.92-2.1-4.96-5.12,3.87-8.2,6.84-10.1,8.91-1.14,1.24-2.38,2.22-4.86,4.18-1.11.87-2.6,2-4.73,2.36-.6.1-1.11.11-1.46.11-1.15,1.39-3.09,3.66-5.73,6.28-2.83,2.8-4.22,3.8-10.97,9.66-3.43,2.98-5.15,4.47-7.06,6.24-1.55,1.44-2.79,2.63-3.52,3.35-2.76,2.69-4.14,4.03-5.26,5.33-2.84,3.3-1.63,1.69-5.55,6.83Z"/><path class="cls-18" d="M123.17,195.93c-.45,7.53-.9,15.05-1.34,22.58-5.03,9.78-9.29,18.31-12.68,25.19-3.27,6.64-7.58,15.42-12.6,26.29-3.84,8.29-5.75,12.44-7.75,17.14-1.54,3.61-2.56,6.16-2.69,6.12-.19-.07,1.85-5.91,6.47-19.47,2.37-6.96,4.73-13.93,7.09-20.89,3.06-9.01,4.08-12.01,5.76-16.77,1.79-5.06,3.26-9.07,4.4-12.15,2.29-6.17,1.93-4.95,3.15-8.35,3.12-8.62,3.53-11.09,6.05-14.82,1.51-2.24,3.07-3.86,4.13-4.88Z"/><path class="cls-11" d="M260.63,98.92c-9.51-1.02-18.93-2.16-28.56-2.1-.33,0-.72-.04-1.05-.06.55.24,1.2.95,1.76,1.19-.64.98-1.29,1.95-1.93,2.93,9.98-.8,19.8-1.16,29.78-1.96Z"/><path class="cls-22" d="M117.96,106.06c-7.11-2.69-14.23-5.37-21.34-8.06.26.83.51,1.66.77,2.49,3.15,1.44,6.29,2.87,9.44,4.31,3.71.42,7.42.84,11.13,1.26Z"/><path class="cls-12" d="M230.58,36.53c.87-3.04,1.73-6.09,2.6-9.13-2.19,3.43-4.79,7.34-7.82,11.59-1.61,2.25-4.52,6.32-8.58,11.38-2.29,2.85-5.19,6.19-10.91,12.76-2.94,3.38-5.36,6.14-6.99,8-.08-1.36-.07-3.05.18-4.98.27-2.11.72-3.67,1.09-4.92.4-1.35.96-2.98,1.76-4.78-10.66,13.84-21.31,27.68-31.97,41.52,2.27,2.54,4.55,5.09,6.82,7.63,5.94-5.93,11.9-11.87,17.9-17.8.48-.48,2.05-1.84,3.93-3.88,2.35-2.56,3.92-4.74,5.33-6.74,3.41-4.87,5.45-8.15,7.97-12.01,2.7-4.14,3.28-4.87,6.39-9.51,2.97-4.44,7.18-10.86,12.3-19.12Z"/><path class="cls-2" d="M229.34,103.64c.84-.88,1.75-1.85,2.72-2.9,9.52-.61,19.05-1.22,28.57-1.83-9.64-.68-19.27-1.37-28.91-2.05-.28-.15-.69-.37-1.16-.66-.43-.26-1.3-.83-2.97-2.26-.7-.6-1.32-1.13-2.06-1.87-.95-.94-2.17-2.29-3.42-4.09,3.15.18,5.56.76,7.12,1.23,3.2.97,4.49,1.95,8.92,3.46,1.75.6,3.03.94,4.83,1.42,7.67,2.05,15.38,4.06,18.49,4.87-2.68.43-15.68,3.49-18.49,4.4-13.26,4.3-14.43,2.42-21.73,7.73"/><ellipse class="cls-1" cx="211.4" cy="93.03" rx="1.62" ry="2.09" transform="translate(-11.73 152.69) rotate(-38.72)"/><path class="cls-17" d="M145.97,178.3c-.96,3.05-2.93,7.89-7.1,12.54-2.34,2.61-4.74,4.46-6.73,5.74.12,2.29.09,4.6.41,6.89,5.72,40.71,12.82,77.61,17.6,113.49-.02-11.38-.09-21.29-.16-29.37,0-.22,0-.5,0-.84-.14-11.43-.29-24.09-.29-24.09-.19-14.13-.27-20.74-.3-23.1-.17-11.51-.9-30.16-3.41-61.25Z"/><path class="cls-13" d="M142.45,186.84c.22,2.91.83,8.34,1.12,12.72.43,6.39.72,11.66,1.76,31.65.11,2.16.47,9.08.58,11.25.37-.17.89-.44,1.4-.91,0,0,.79-.65,1.24-1.26,0,0,.4-.45.65-1.23.23-.73-1.03-26.7-3.13-59.56-.92,2.05-2.7,5.29-3.62,7.35Z"/><path class="cls-19" d="M141.17,182.73c-1.71,2.76-4.82,6.95-9.97,10.41-2.9,1.95-5.69,3.15-7.93,3.91-.44,2.25-1.04,4.48-1.29,6.78-4.46,40.87-6.64,78.38-10.82,114.33,2.77-11.03,5.14-20.66,7.06-28.51.56-2.31,2.88-11.82,5.83-24.24,2.06-8.64,3.25-13.77,5.38-22.47,1.34-5.47,2.46-9.95,3.21-12.94.02-.05.05-.12.03-.13-.08-.05-1.25,2.11-2.78,3.77-.65.7-1.7,1.68-3.33,2.59,4.87-17.84,9.74-35.67,14.61-53.51Z"/></g></svg>